<svg width="32" height="32" xmlns="http://www.w3.org/2000/svg">
    <g>
        <title>Layer 1</title>
        <path fill="#fff" id="svg_1"
              d="m27.18487,25.27123a9.97006,9.97006 0 0 1 -7.74847,-4.17227a17.61016,17.61016 0 0 1 -1.55782,-2.26223a2.1945,2.1945 0 1 1 1.89648,-0.96179c1.19207,2.04549 3.68459,5.29661 7.40981,5.29661l0,2.09967l0,0.00001zm-1.35463,-3.90134a6.27193,6.27193 0 0 1 -2.28932,-1.35463a5.97391,5.97391 0 0 0 -4.9173,-9.37403l-11.62271,0l0,11.97492l11.6498,0a14.18295,14.18295 0 0 0 2.47897,2.24868a8.43933,8.43933 0 0 1 -2.56025,0.39284l-14.21005,0l0,-17.23088l14.21005,0a8.62898,8.62898 0 0 1 8.61543,8.62898a8.50706,8.50706 0 0 1 -1.40881,4.71411l0.05419,0l0,0.00001z"
              class="cls-2"/>
    </g>
</svg>
