<?xml version="1.0" encoding="utf-8"?>
<!-- Generator: Adobe Illustrator 24.1.0, SVG Export Plug-In . SVG Version: 6.00 Build 0)  -->
<svg version="1.1" id="Layer_1" xmlns="http://www.w3.org/2000/svg" xmlns:xlink="http://www.w3.org/1999/xlink" x="0px" y="0px"
	 viewBox="0 0 24 24" style="enable-background:new 0 0 24 24;" xml:space="preserve">
<style type="text/css">
	.st0{fill:none;}
</style>
<g id="Apple" fill="#fff">
	<g id="Group-2" transform="translate(2.000000, 2.000000)">
		<g id="Group-15">
			<rect id="Rectangle" class="st0" width="20" height="20"/>
			<g id="Apple_logo_black" transform="translate(1.666667, 0.000000)">
				<path id="path4" d="M16.5,15.6c-0.3,0.7-0.7,1.3-1.1,1.9c-0.6,0.8-1,1.4-1.4,1.7c-0.6,0.5-1.1,0.8-1.8,0.8c-0.5,0-1-0.1-1.6-0.4
					c-0.6-0.3-1.2-0.4-1.8-0.4c-0.6,0-1.2,0.1-1.8,0.4C6.4,19.8,5.8,20,5.4,20c-0.6,0-1.2-0.2-1.8-0.8c-0.4-0.3-0.9-0.9-1.4-1.7
					c-0.6-0.9-1.1-1.9-1.5-3C0.2,13.2,0,12,0,10.8c0-1.3,0.3-2.5,0.9-3.5c0.5-0.8,1.1-1.4,1.8-1.8C3.4,5,4.3,4.8,5.2,4.8
					c0.5,0,1.1,0.1,1.9,0.4c0.8,0.3,1.3,0.4,1.5,0.4c0.2,0,0.7-0.2,1.7-0.5c0.9-0.3,1.7-0.5,2.3-0.4c1.7,0.1,2.9,0.8,3.8,2
					c-1.5,0.9-2.2,2.2-2.2,3.8c0,1.3,0.5,2.3,1.4,3.2c0.4,0.4,0.9,0.7,1.4,0.9C16.7,15,16.6,15.3,16.5,15.6z M12.6,0.4
					c0,1-0.4,1.9-1.1,2.8c-0.9,1-1.9,1.6-3.1,1.5c0-0.1,0-0.2,0-0.4c0-1,0.4-2,1.2-2.8c0.4-0.4,0.8-0.8,1.4-1.1
					C11.6,0.2,12.1,0,12.6,0C12.6,0.1,12.6,0.3,12.6,0.4L12.6,0.4z"/>
			</g>
		</g>
	</g>
</g>
</svg>
