<?xml version="1.0" encoding="utf-8"?>
<!-- Generator: Adobe Illustrator 23.1.0, SVG Export Plug-In . SVG Version: 6.00 Build 0)  -->
<svg version="1.1" id="Layer_1" xmlns="http://www.w3.org/2000/svg" xmlns:xlink="http://www.w3.org/1999/xlink" x="0px" y="0px"
	 viewBox="0 0 50 50" style="enable-background:new 0 0 50 50;" xml:space="preserve">
<style type="text/css">
	.st0{fill:#FFFFFF;}
</style>
<path class="st0" d="M9.6,18.8c0.6-0.7,1-1.7,0.9-2.7c-0.9,0-1.9,0.6-2.5,1.3C7.4,18,6.9,19,7.1,20C8.1,20.1,9,19.6,9.6,18.8
	 M10.5,20.2C9.1,20.2,7.9,21,7.2,21c-0.7,0-1.7-0.7-2.8-0.7c-1.4,0-2.8,0.8-3.5,2.1C-0.6,25,0.5,28.8,2,30.9c0.7,1,1.6,2.2,2.7,2.1
	c1.1,0,1.5-0.7,2.8-0.7s1.6,0.7,2.8,0.7s1.9-1,2.6-2.1c0.8-1.2,1.2-2.3,1.2-2.4c0,0-2.3-0.9-2.3-3.4c0-2.1,1.7-3.2,1.8-3.2
	C12.6,20.4,11,20.3,10.5,20.2"/>
<g>
	<path class="st0" d="M22.6,17.3c3,0,5.1,2.1,5.1,5.1c0,3-2.1,5.1-5.2,5.1h-3.3v5.3h-2.4V17.3H22.6z M19.2,25.5h2.8
		c2.1,0,3.3-1.2,3.3-3.1c0-2-1.2-3.1-3.3-3.1h-2.8L19.2,25.5L19.2,25.5z M28.4,29.7c0-2,1.5-3.2,4.2-3.4l3.1-0.2v-0.9
		c0-1.3-0.9-2-2.3-2c-1.4,0-2.2,0.7-2.4,1.6h-2.2c0.1-2.1,1.9-3.6,4.7-3.6c2.8,0,4.5,1.4,4.5,3.7v7.8h-2.2v-1.9h0
		c-0.7,1.3-2.1,2.1-3.6,2.1C29.9,33.1,28.4,31.7,28.4,29.7z M35.7,28.7v-0.9l-2.8,0.2c-1.4,0.1-2.2,0.7-2.2,1.7c0,1,0.8,1.6,2.1,1.6
		C34.5,31.3,35.7,30.2,35.7,28.7z M40.1,37.1v-1.9c0.2,0,0.6,0,0.7,0c1.1,0,1.6-0.5,2-1.6c0,0,0.2-0.7,0.2-0.7L39,21.6h2.5l2.9,9.3
		h0l2.9-9.3h2.5l-4.2,12c-1,2.8-2.1,3.6-4.4,3.6C40.9,37.2,40.4,37.2,40.1,37.1z"/>
</g>
</svg>
