<?xml version="1.0" encoding="utf-8"?>
<!-- Generator: Adobe Illustrator 24.0.2, SVG Export Plug-In . SVG Version: 6.00 Build 0)  -->
<svg version="1.1" id="Layer_1" xmlns="http://www.w3.org/2000/svg" xmlns:xlink="http://www.w3.org/1999/xlink" x="0px" y="0px"
	 viewBox="0 0 32 32" fill="white" style="enable-background:new 0 0 32 32;" xml:space="preserve">
<style type="text/css">
	.st0{fill-rule:evenodd;clip-rule:evenodd;}
</style>

	<path class="st0" d="M19.2,1.5c3.4,0,5.3,1.7,5.3,4.6v14.5c0,0.6-0.3,1.2-0.8,1.5c-0.5,0.3-1.2,0.3-1.7,0l-6-3.4l-6,3.4
		c-0.3,0.1-0.5,0.2-0.8,0.2c-0.3,0-0.6-0.1-0.9-0.2c-0.5-0.3-0.8-0.9-0.8-1.5V5.9c0-2.8,1.9-4.4,5.3-4.4H19.2z M19.2,3h-6.4
		C10.3,3,9,4,9,5.9v14.7c0,0.1,0.1,0.1,0.1,0.2c0,0,0.1,0,0.2,0l6.4-3.6c0.2-0.1,0.5-0.1,0.7,0l6.3,3.6c0.1,0,0.2,0,0.2,0
		s0.1-0.1,0.1-0.2L23,6C23,5.1,22.9,3,19.2,3z M19.6,8.2c0.4,0,0.8,0.3,0.8,0.8c0,0.4-0.3,0.8-0.8,0.8h-7.3c-0.4,0-0.8-0.3-0.8-0.8
		c0-0.4,0.3-0.8,0.8-0.8H19.6z"/>

</svg>
