<svg width="24" height="24" viewBox="0 0 24 24" fill="none" xmlns="http://www.w3.org/2000/svg">
<path d="M4 7C4 4.23858 6.23858 2 9 2H15C17.7614 2 20 4.23858 20 7V13L20.2539 18.5867C20.3552 20.8141 17.8679 22.1991 16.0278 20.94V20.94C15.8433 20.8138 15.6752 20.6652 15.5273 20.4976L15.3471 20.2934C13.5172 18.2194 10.3329 18.0745 8.3221 19.9736L7.5 20.75V20.75C6.16734 21.9875 4 21.0424 4 19.2238V7Z" fill="#00A698"/>
<path fill-rule="evenodd" clip-rule="evenodd" d="M15.201 1.5C18.593 1.5 20.539 3.179 20.539 6.104V20.64C20.539 21.25 20.225 21.799 19.697 22.106C19.171 22.414 18.537 22.42 18.005 22.12L12.045 18.753L6.03 22.127C5.77 22.273 5.485 22.347 5.199 22.347C4.904 22.347 4.609 22.268 4.341 22.11C3.814 21.803 3.5 21.254 3.5 20.645V5.921C3.5 3.111 5.447 1.5 8.842 1.5H15.201ZM15.201 3H8.842C6.293 3 5 3.982 5 5.921V20.645C5 20.739 5.054 20.79 5.099 20.816C5.144 20.844 5.215 20.864 5.297 20.818L11.679 17.238C11.907 17.111 12.186 17.11 12.415 17.239L18.742 20.813C18.825 20.861 18.896 20.839 18.941 20.812C18.986 20.785 19.039 20.734 19.039 20.64L19.0386 5.99004C19.0311 5.12937 18.8645 3 15.201 3ZM15.6398 8.2285C16.0538 8.2285 16.3898 8.5645 16.3898 8.9785C16.3898 9.3925 16.0538 9.7285 15.6398 9.7285H8.3218C7.9078 9.7285 7.5718 9.3925 7.5718 8.9785C7.5718 8.5645 7.9078 8.2285 8.3218 8.2285H15.6398Z" fill="#030303"/>
</svg>
