<svg width="20" height="20" viewBox="0 0 20 20"  xmlns="http://www.w3.org/2000/svg" fill="#00A698">
<mask id="path-1-outside-1_970_10217" maskUnits="userSpaceOnUse" x="-0.582031" y="1.08325" width="21" height="18" fill="black">
<rect fill="white" x="-0.582031" y="1.08325" width="21" height="18"/>
<path fill-rule="evenodd" clip-rule="evenodd" d="M17.918 17.9166H2.08464C1.16422 17.9166 0.417969 17.1703 0.417969 16.2499V3.74992C0.417969 2.8295 1.16422 2.08325 2.08464 2.08325H17.918C18.8384 2.08325 19.5846 2.8295 19.5846 3.74992V16.2499C19.5846 17.1703 18.8384 17.9166 17.918 17.9166ZM18.7513 3.74992C18.7513 3.28992 18.378 2.91659 17.918 2.91659H2.08464C1.62464 2.91659 1.2513 3.28992 1.2513 3.74992V6.24992H18.7513V3.74992ZM18.7513 7.08325H1.2513V16.2499C1.2513 16.7099 1.62464 17.0833 2.08464 17.0833H17.918C18.378 17.0833 18.7513 16.7099 18.7513 16.2499V7.08325ZM17.0846 12.9166H16.2513C16.0213 12.9166 15.8346 12.7303 15.8346 12.4999V11.6666C15.8346 11.4366 16.0213 11.2499 16.2513 11.2499H17.0846C17.3151 11.2499 17.5013 11.4366 17.5013 11.6666V12.4999C17.5013 12.7303 17.3151 12.9166 17.0846 12.9166ZM17.0846 9.99992H16.2513C16.0213 9.99992 15.8346 9.81367 15.8346 9.58325V8.74992C15.8346 8.5195 16.0213 8.33325 16.2513 8.33325H17.0846C17.3151 8.33325 17.5013 8.5195 17.5013 8.74992V9.58325C17.5013 9.81367 17.3151 9.99992 17.0846 9.99992ZM13.7513 12.9166H12.918C12.688 12.9166 12.5013 12.7303 12.5013 12.4999V11.6666C12.5013 11.4366 12.688 11.2499 12.918 11.2499H13.7513C13.9817 11.2499 14.168 11.4366 14.168 11.6666V12.4999C14.168 12.7303 13.9817 12.9166 13.7513 12.9166ZM13.7513 9.99992H12.918C12.688 9.99992 12.5013 9.81367 12.5013 9.58325V8.74992C12.5013 8.5195 12.688 8.33325 12.918 8.33325H13.7513C13.9817 8.33325 14.168 8.5195 14.168 8.74992V9.58325C14.168 9.81367 13.9817 9.99992 13.7513 9.99992ZM10.418 12.9166H9.58464C9.35422 12.9166 9.16797 12.7303 9.16797 12.4999V11.6666C9.16797 11.4366 9.35422 11.2499 9.58464 11.2499H10.418C10.6484 11.2499 10.8346 11.4366 10.8346 11.6666V12.4999C10.8346 12.7303 10.6484 12.9166 10.418 12.9166ZM10.418 9.99992H9.58464C9.35422 9.99992 9.16797 9.81367 9.16797 9.58325V8.74992C9.16797 8.5195 9.35422 8.33325 9.58464 8.33325H10.418C10.6484 8.33325 10.8346 8.5195 10.8346 8.74992V9.58325C10.8346 9.81367 10.6484 9.99992 10.418 9.99992ZM7.08464 15.8333H6.2513C6.02089 15.8333 5.83464 15.647 5.83464 15.4166V14.5833C5.83464 14.3528 6.02089 14.1666 6.2513 14.1666H7.08464C7.31505 14.1666 7.5013 14.3528 7.5013 14.5833V15.4166C7.5013 15.647 7.31505 15.8333 7.08464 15.8333ZM7.08464 12.9166H6.2513C6.02089 12.9166 5.83464 12.7303 5.83464 12.4999V11.6666C5.83464 11.4366 6.02089 11.2499 6.2513 11.2499H7.08464C7.31505 11.2499 7.5013 11.4366 7.5013 11.6666V12.4999C7.5013 12.7303 7.31505 12.9166 7.08464 12.9166ZM7.08464 9.99992H6.2513C6.02089 9.99992 5.83464 9.81367 5.83464 9.58325V8.74992C5.83464 8.5195 6.02089 8.33325 6.2513 8.33325H7.08464C7.31505 8.33325 7.5013 8.5195 7.5013 8.74992V9.58325C7.5013 9.81367 7.31505 9.99992 7.08464 9.99992ZM3.7513 15.8333H2.91797C2.68755 15.8333 2.5013 15.647 2.5013 15.4166V14.5833C2.5013 14.3528 2.68755 14.1666 2.91797 14.1666H3.7513C3.98172 14.1666 4.16797 14.3528 4.16797 14.5833V15.4166C4.16797 15.647 3.98172 15.8333 3.7513 15.8333ZM3.7513 12.9166H2.91797C2.68755 12.9166 2.5013 12.7303 2.5013 12.4999V11.6666C2.5013 11.4366 2.68755 11.2499 2.91797 11.2499H3.7513C3.98172 11.2499 4.16797 11.4366 4.16797 11.6666V12.4999C4.16797 12.7303 3.98172 12.9166 3.7513 12.9166ZM9.58464 14.1666H10.418C10.6484 14.1666 10.8346 14.3528 10.8346 14.5833V15.4166C10.8346 15.647 10.6484 15.8333 10.418 15.8333H9.58464C9.35422 15.8333 9.16797 15.647 9.16797 15.4166V14.5833C9.16797 14.3528 9.35422 14.1666 9.58464 14.1666Z"/>
</mask>
<path fill-rule="evenodd" clip-rule="evenodd" d="M17.918 17.9166H2.08464C1.16422 17.9166 0.417969 17.1703 0.417969 16.2499V3.74992C0.417969 2.8295 1.16422 2.08325 2.08464 2.08325H17.918C18.8384 2.08325 19.5846 2.8295 19.5846 3.74992V16.2499C19.5846 17.1703 18.8384 17.9166 17.918 17.9166ZM18.7513 3.74992C18.7513 3.28992 18.378 2.91659 17.918 2.91659H2.08464C1.62464 2.91659 1.2513 3.28992 1.2513 3.74992V6.24992H18.7513V3.74992ZM18.7513 7.08325H1.2513V16.2499C1.2513 16.7099 1.62464 17.0833 2.08464 17.0833H17.918C18.378 17.0833 18.7513 16.7099 18.7513 16.2499V7.08325ZM17.0846 12.9166H16.2513C16.0213 12.9166 15.8346 12.7303 15.8346 12.4999V11.6666C15.8346 11.4366 16.0213 11.2499 16.2513 11.2499H17.0846C17.3151 11.2499 17.5013 11.4366 17.5013 11.6666V12.4999C17.5013 12.7303 17.3151 12.9166 17.0846 12.9166ZM17.0846 9.99992H16.2513C16.0213 9.99992 15.8346 9.81367 15.8346 9.58325V8.74992C15.8346 8.5195 16.0213 8.33325 16.2513 8.33325H17.0846C17.3151 8.33325 17.5013 8.5195 17.5013 8.74992V9.58325C17.5013 9.81367 17.3151 9.99992 17.0846 9.99992ZM13.7513 12.9166H12.918C12.688 12.9166 12.5013 12.7303 12.5013 12.4999V11.6666C12.5013 11.4366 12.688 11.2499 12.918 11.2499H13.7513C13.9817 11.2499 14.168 11.4366 14.168 11.6666V12.4999C14.168 12.7303 13.9817 12.9166 13.7513 12.9166ZM13.7513 9.99992H12.918C12.688 9.99992 12.5013 9.81367 12.5013 9.58325V8.74992C12.5013 8.5195 12.688 8.33325 12.918 8.33325H13.7513C13.9817 8.33325 14.168 8.5195 14.168 8.74992V9.58325C14.168 9.81367 13.9817 9.99992 13.7513 9.99992ZM10.418 12.9166H9.58464C9.35422 12.9166 9.16797 12.7303 9.16797 12.4999V11.6666C9.16797 11.4366 9.35422 11.2499 9.58464 11.2499H10.418C10.6484 11.2499 10.8346 11.4366 10.8346 11.6666V12.4999C10.8346 12.7303 10.6484 12.9166 10.418 12.9166ZM10.418 9.99992H9.58464C9.35422 9.99992 9.16797 9.81367 9.16797 9.58325V8.74992C9.16797 8.5195 9.35422 8.33325 9.58464 8.33325H10.418C10.6484 8.33325 10.8346 8.5195 10.8346 8.74992V9.58325C10.8346 9.81367 10.6484 9.99992 10.418 9.99992ZM7.08464 15.8333H6.2513C6.02089 15.8333 5.83464 15.647 5.83464 15.4166V14.5833C5.83464 14.3528 6.02089 14.1666 6.2513 14.1666H7.08464C7.31505 14.1666 7.5013 14.3528 7.5013 14.5833V15.4166C7.5013 15.647 7.31505 15.8333 7.08464 15.8333ZM7.08464 12.9166H6.2513C6.02089 12.9166 5.83464 12.7303 5.83464 12.4999V11.6666C5.83464 11.4366 6.02089 11.2499 6.2513 11.2499H7.08464C7.31505 11.2499 7.5013 11.4366 7.5013 11.6666V12.4999C7.5013 12.7303 7.31505 12.9166 7.08464 12.9166ZM7.08464 9.99992H6.2513C6.02089 9.99992 5.83464 9.81367 5.83464 9.58325V8.74992C5.83464 8.5195 6.02089 8.33325 6.2513 8.33325H7.08464C7.31505 8.33325 7.5013 8.5195 7.5013 8.74992V9.58325C7.5013 9.81367 7.31505 9.99992 7.08464 9.99992ZM3.7513 15.8333H2.91797C2.68755 15.8333 2.5013 15.647 2.5013 15.4166V14.5833C2.5013 14.3528 2.68755 14.1666 2.91797 14.1666H3.7513C3.98172 14.1666 4.16797 14.3528 4.16797 14.5833V15.4166C4.16797 15.647 3.98172 15.8333 3.7513 15.8333ZM3.7513 12.9166H2.91797C2.68755 12.9166 2.5013 12.7303 2.5013 12.4999V11.6666C2.5013 11.4366 2.68755 11.2499 2.91797 11.2499H3.7513C3.98172 11.2499 4.16797 11.4366 4.16797 11.6666V12.4999C4.16797 12.7303 3.98172 12.9166 3.7513 12.9166ZM9.58464 14.1666H10.418C10.6484 14.1666 10.8346 14.3528 10.8346 14.5833V15.4166C10.8346 15.647 10.6484 15.8333 10.418 15.8333H9.58464C9.35422 15.8333 9.16797 15.647 9.16797 15.4166V14.5833C9.16797 14.3528 9.35422 14.1666 9.58464 14.1666Z" />
<path fill-rule="evenodd" clip-rule="evenodd" d="M17.918 17.9166H2.08464C1.16422 17.9166 0.417969 17.1703 0.417969 16.2499V3.74992C0.417969 2.8295 1.16422 2.08325 2.08464 2.08325H17.918C18.8384 2.08325 19.5846 2.8295 19.5846 3.74992V16.2499C19.5846 17.1703 18.8384 17.9166 17.918 17.9166ZM18.7513 3.74992C18.7513 3.28992 18.378 2.91659 17.918 2.91659H2.08464C1.62464 2.91659 1.2513 3.28992 1.2513 3.74992V6.24992H18.7513V3.74992ZM18.7513 7.08325H1.2513V16.2499C1.2513 16.7099 1.62464 17.0833 2.08464 17.0833H17.918C18.378 17.0833 18.7513 16.7099 18.7513 16.2499V7.08325ZM17.0846 12.9166H16.2513C16.0213 12.9166 15.8346 12.7303 15.8346 12.4999V11.6666C15.8346 11.4366 16.0213 11.2499 16.2513 11.2499H17.0846C17.3151 11.2499 17.5013 11.4366 17.5013 11.6666V12.4999C17.5013 12.7303 17.3151 12.9166 17.0846 12.9166ZM17.0846 9.99992H16.2513C16.0213 9.99992 15.8346 9.81367 15.8346 9.58325V8.74992C15.8346 8.5195 16.0213 8.33325 16.2513 8.33325H17.0846C17.3151 8.33325 17.5013 8.5195 17.5013 8.74992V9.58325C17.5013 9.81367 17.3151 9.99992 17.0846 9.99992ZM13.7513 12.9166H12.918C12.688 12.9166 12.5013 12.7303 12.5013 12.4999V11.6666C12.5013 11.4366 12.688 11.2499 12.918 11.2499H13.7513C13.9817 11.2499 14.168 11.4366 14.168 11.6666V12.4999C14.168 12.7303 13.9817 12.9166 13.7513 12.9166ZM13.7513 9.99992H12.918C12.688 9.99992 12.5013 9.81367 12.5013 9.58325V8.74992C12.5013 8.5195 12.688 8.33325 12.918 8.33325H13.7513C13.9817 8.33325 14.168 8.5195 14.168 8.74992V9.58325C14.168 9.81367 13.9817 9.99992 13.7513 9.99992ZM10.418 12.9166H9.58464C9.35422 12.9166 9.16797 12.7303 9.16797 12.4999V11.6666C9.16797 11.4366 9.35422 11.2499 9.58464 11.2499H10.418C10.6484 11.2499 10.8346 11.4366 10.8346 11.6666V12.4999C10.8346 12.7303 10.6484 12.9166 10.418 12.9166ZM10.418 9.99992H9.58464C9.35422 9.99992 9.16797 9.81367 9.16797 9.58325V8.74992C9.16797 8.5195 9.35422 8.33325 9.58464 8.33325H10.418C10.6484 8.33325 10.8346 8.5195 10.8346 8.74992V9.58325C10.8346 9.81367 10.6484 9.99992 10.418 9.99992ZM7.08464 15.8333H6.2513C6.02089 15.8333 5.83464 15.647 5.83464 15.4166V14.5833C5.83464 14.3528 6.02089 14.1666 6.2513 14.1666H7.08464C7.31505 14.1666 7.5013 14.3528 7.5013 14.5833V15.4166C7.5013 15.647 7.31505 15.8333 7.08464 15.8333ZM7.08464 12.9166H6.2513C6.02089 12.9166 5.83464 12.7303 5.83464 12.4999V11.6666C5.83464 11.4366 6.02089 11.2499 6.2513 11.2499H7.08464C7.31505 11.2499 7.5013 11.4366 7.5013 11.6666V12.4999C7.5013 12.7303 7.31505 12.9166 7.08464 12.9166ZM7.08464 9.99992H6.2513C6.02089 9.99992 5.83464 9.81367 5.83464 9.58325V8.74992C5.83464 8.5195 6.02089 8.33325 6.2513 8.33325H7.08464C7.31505 8.33325 7.5013 8.5195 7.5013 8.74992V9.58325C7.5013 9.81367 7.31505 9.99992 7.08464 9.99992ZM3.7513 15.8333H2.91797C2.68755 15.8333 2.5013 15.647 2.5013 15.4166V14.5833C2.5013 14.3528 2.68755 14.1666 2.91797 14.1666H3.7513C3.98172 14.1666 4.16797 14.3528 4.16797 14.5833V15.4166C4.16797 15.647 3.98172 15.8333 3.7513 15.8333ZM3.7513 12.9166H2.91797C2.68755 12.9166 2.5013 12.7303 2.5013 12.4999V11.6666C2.5013 11.4366 2.68755 11.2499 2.91797 11.2499H3.7513C3.98172 11.2499 4.16797 11.4366 4.16797 11.6666V12.4999C4.16797 12.7303 3.98172 12.9166 3.7513 12.9166ZM9.58464 14.1666H10.418C10.6484 14.1666 10.8346 14.3528 10.8346 14.5833V15.4166C10.8346 15.647 10.6484 15.8333 10.418 15.8333H9.58464C9.35422 15.8333 9.16797 15.647 9.16797 15.4166V14.5833C9.16797 14.3528 9.35422 14.1666 9.58464 14.1666Z" stroke-width="0.4" mask="url(#path-1-outside-1_970_10217)"/>
</svg>
