<svg width="168" height="61" viewBox="0 0 168 61" fill="none" xmlns="http://www.w3.org/2000/svg">
<path d="M13.472 27.54C20.636 27.54 24.308 22.788 25.28 18.864L20.636 17.46C19.952 19.836 17.828 22.68 13.472 22.68C9.368 22.68 5.552 19.692 5.552 14.256C5.552 8.46 9.584 5.724 13.4 5.724C17.828 5.724 19.808 8.424 20.42 10.872L25.1 9.396C24.092 5.256 20.456 0.935999 13.4 0.935999C6.56 0.935999 0.404 6.12 0.404 14.256C0.404 22.392 6.344 27.54 13.472 27.54ZM44.1065 23.184C41.7665 23.184 39.6065 21.456 39.6065 18.144C39.6065 14.796 41.7665 13.104 44.1065 13.104C46.4465 13.104 48.6065 14.796 48.6065 18.144C48.6065 21.492 46.4465 23.184 44.1065 23.184ZM44.1065 8.748C38.8145 8.748 34.8185 12.672 34.8185 18.144C34.8185 23.58 38.8145 27.54 44.1065 27.54C49.3985 27.54 53.3945 23.58 53.3945 18.144C53.3945 12.672 49.3985 8.748 44.1065 8.748ZM69.662 27V16.632C69.662 14.688 70.886 13.14 72.974 13.14C75.134 13.14 76.106 14.58 76.106 16.488V27H80.858V16.632C80.858 14.724 82.082 13.14 84.134 13.14C86.33 13.14 87.266 14.58 87.266 16.488V27H91.91V15.516C91.91 10.764 88.778 8.784 85.502 8.784C83.162 8.784 81.29 9.576 79.886 11.736C78.986 9.828 77.042 8.784 74.63 8.784C72.686 8.784 70.418 9.72 69.446 11.448V9.288H64.874V27H69.662ZM109.249 27V9.288H104.461V27H109.249ZM103.885 3.492C103.885 5.076 105.217 6.408 106.837 6.408C108.493 6.408 109.789 5.076 109.789 3.492C109.789 1.836 108.493 0.503998 106.837 0.503998C105.217 0.503998 103.885 1.836 103.885 3.492ZM126.863 16.812C126.863 14.76 128.087 13.14 130.175 13.14C132.479 13.14 133.451 14.688 133.451 16.668V27H138.239V15.84C138.239 11.952 136.223 8.82 131.831 8.82C129.923 8.82 127.799 9.648 126.719 11.484V9.288H122.075V27H126.863V16.812ZM149.538 27.972C150.042 31.356 153.282 34.38 158.142 34.38C164.802 34.38 167.43 29.952 167.43 25.092V9.288H162.822V11.376C162.21 10.188 160.59 8.964 157.782 8.964C152.922 8.964 149.538 12.924 149.538 17.604C149.538 22.572 153.066 26.208 157.782 26.208C160.338 26.208 161.994 25.092 162.714 23.94V25.236C162.714 28.656 161.022 30.168 157.998 30.168C155.73 30.168 154.182 28.764 153.858 26.82L149.538 27.972ZM158.61 22.104C156.126 22.104 154.362 20.376 154.362 17.604C154.362 14.868 156.234 13.14 158.61 13.14C160.914 13.14 162.786 14.868 162.786 17.604C162.786 20.34 161.058 22.104 158.61 22.104ZM0.044 55.068C0.26 57.084 2.096 60.54 7.424 60.54C12.068 60.54 14.3 57.588 14.3 54.708C14.3 52.116 12.536 49.992 9.044 49.272L6.524 48.732C5.552 48.552 4.904 48.012 4.904 47.148C4.904 46.14 5.912 45.384 7.172 45.384C9.188 45.384 9.944 46.716 10.088 47.76L14.084 46.86C13.868 44.952 12.176 41.748 7.136 41.748C3.32 41.748 0.512 44.376 0.512 47.544C0.512 50.028 2.06 52.08 5.48 52.836L7.82 53.376C9.188 53.664 9.728 54.312 9.728 55.104C9.728 56.04 8.972 56.868 7.388 56.868C5.3 56.868 4.256 55.572 4.148 54.168L0.044 55.068ZM33.7354 56.184C31.3954 56.184 29.2354 54.456 29.2354 51.144C29.2354 47.796 31.3954 46.104 33.7354 46.104C36.0754 46.104 38.2354 47.796 38.2354 51.144C38.2354 54.492 36.0754 56.184 33.7354 56.184ZM33.7354 41.748C28.4434 41.748 24.4474 45.672 24.4474 51.144C24.4474 56.58 28.4434 60.54 33.7354 60.54C39.0274 60.54 43.0234 56.58 43.0234 51.144C43.0234 45.672 39.0274 41.748 33.7354 41.748ZM62.4589 56.184C60.1189 56.184 57.9589 54.456 57.9589 51.144C57.9589 47.796 60.1189 46.104 62.4589 46.104C64.7989 46.104 66.9589 47.796 66.9589 51.144C66.9589 54.492 64.7989 56.184 62.4589 56.184ZM62.4589 41.748C57.1669 41.748 53.1709 45.672 53.1709 51.144C53.1709 56.58 57.1669 60.54 62.4589 60.54C67.7509 60.54 71.7469 56.58 71.7469 51.144C71.7469 45.672 67.7509 41.748 62.4589 41.748ZM88.0143 49.812C88.0143 47.76 89.2383 46.14 91.3263 46.14C93.6303 46.14 94.6023 47.688 94.6023 49.668V60H99.3903V48.84C99.3903 44.952 97.3743 41.82 92.9823 41.82C91.0743 41.82 88.9503 42.648 87.8703 44.484V42.288H83.2263V60H88.0143V49.812Z" fill="#00A698"/>
</svg>
