<svg width="24" height="24" viewBox="0 0 24 24" fill="#00A698" stroke="#00A698"  xmlns="http://www.w3.org/2000/svg">
<path d="M21 10C21.1372 10.0013 21.274 10.0152 21.4087 10.0415C21.4809 10.0544 21.5551 10.0515 21.626 10.0329C21.697 10.0144 21.7631 9.98067 21.8198 9.9341C21.8762 9.88724 21.9216 9.82853 21.9527 9.76215C21.9839 9.69576 22 9.62333 22 9.55V7.5C21.9992 6.8372 21.7356 6.20178 21.2669 5.73311C20.7982 5.26444 20.1628 5.00079 19.5 5H4.5C3.8372 5.00079 3.20178 5.26444 2.73311 5.73311C2.26444 6.20178 2.00079 6.8372 2 7.5V9.55C1.99998 9.6234 2.01613 9.69591 2.04729 9.76237C2.07846 9.82883 2.12387 9.88762 2.18031 9.93455C2.23675 9.98149 2.30283 10.0154 2.37386 10.0339C2.44489 10.0525 2.51913 10.0551 2.5913 10.0417C2.72598 10.0154 2.86278 10.0014 3 10C3.53043 10 4.03914 10.2107 4.41421 10.5858C4.78929 10.9609 5 11.4696 5 12C5 12.5304 4.78929 13.0391 4.41421 13.4142C4.03914 13.7893 3.53043 14 3 14C2.86279 13.9987 2.72598 13.9848 2.5913 13.9585C2.51909 13.9456 2.44494 13.9485 2.37396 13.9671C2.30299 13.9856 2.23688 14.0193 2.1802 14.0659C2.1238 14.1128 2.07841 14.1715 2.04726 14.2379C2.01612 14.3042 1.99998 14.3767 2 14.45V16.5C2.00079 17.1628 2.26444 17.7982 2.73311 18.2669C3.20178 18.7356 3.8372 18.9992 4.5 19H19.5C20.1628 18.9992 20.7982 18.7356 21.2669 18.2669C21.7356 17.7982 21.9992 17.1628 22 16.5V14.45C22.0001 14.3767 21.984 14.3042 21.9529 14.2378C21.9218 14.1713 21.8764 14.1126 21.82 14.0657C21.7633 14.0192 21.6972 13.9855 21.6262 13.967C21.5553 13.9484 21.4811 13.9455 21.4089 13.9583C21.2742 13.9847 21.1373 13.9986 21 14C20.4696 14 19.9609 13.7893 19.5858 13.4142C19.2107 13.0391 19 12.5304 19 12C19 11.4696 19.2107 10.9609 19.5858 10.5858C19.9609 10.2107 20.4696 10 21 10V10ZM21 15V16.5C20.9996 16.8977 20.8414 17.279 20.5602 17.5602C20.279 17.8414 19.8977 17.9996 19.5 18H4.5C4.10231 17.9996 3.72104 17.8414 3.43984 17.5602C3.15863 17.279 3.00045 16.8977 3 16.5V15C3.79565 15 4.55871 14.6839 5.12132 14.1213C5.68393 13.5587 6 12.7956 6 12C6 11.2044 5.68393 10.4413 5.12132 9.87868C4.55871 9.31607 3.79565 9 3 9V7.5C3.00045 7.10231 3.15863 6.72104 3.43984 6.43984C3.72104 6.15863 4.10231 6.00045 4.5 6H19.5C19.8977 6.00045 20.279 6.15863 20.5602 6.43984C20.8414 6.72104 20.9996 7.10231 21 7.5V9C20.2044 9 19.4413 9.31607 18.8787 9.87868C18.3161 10.4413 18 11.2044 18 12C18 12.7956 18.3161 13.5587 18.8787 14.1213C19.4413 14.6839 20.2044 15 21 15Z" stroke-width="0.6"/>
<path d="M12.5 9V10C12.5 10.1326 12.4473 10.2598 12.3536 10.3536C12.2598 10.4473 12.1326 10.5 12 10.5C11.8674 10.5 11.7402 10.4473 11.6464 10.3536C11.5527 10.2598 11.5 10.1326 11.5 10V9C11.5 8.86739 11.5527 8.74021 11.6464 8.64645C11.7402 8.55268 11.8674 8.5 12 8.5C12.1326 8.5 12.2598 8.55268 12.3536 8.64645C12.4473 8.74021 12.5 8.86739 12.5 9Z" stroke-width="0.6"/>
<path d="M12.5 14V15C12.5 15.1326 12.4473 15.2598 12.3536 15.3536C12.2598 15.4473 12.1326 15.5 12 15.5C11.8674 15.5 11.7402 15.4473 11.6464 15.3536C11.5527 15.2598 11.5 15.1326 11.5 15V14C11.5 13.8674 11.5527 13.7402 11.6464 13.6464C11.7402 13.5527 11.8674 13.5 12 13.5C12.1326 13.5 12.2598 13.5527 12.3536 13.6464C12.4473 13.7402 12.5 13.8674 12.5 14Z" stroke-width="0.6"/>
</svg>
