<svg width="283" height="20" viewBox="0 0 283 20" fill="none" xmlns="http://www.w3.org/2000/svg">
<path d="M1.648 19C1.296 19 1 18.88 0.76 18.64C0.52 18.4 0.4 18.104 0.4 17.752V1.504C0.4 1.136 0.52 0.839999 0.76 0.615999C1 0.375999 1.296 0.256 1.648 0.256H5.992C7.368 0.256 8.616 0.487999 9.736 0.951999C10.872 1.4 11.856 2.048 12.688 2.896C13.52 3.728 14.16 4.712 14.608 5.848C15.056 6.984 15.28 8.24 15.28 9.616C15.28 10.992 15.056 12.256 14.608 13.408C14.16 14.544 13.52 15.536 12.688 16.384C11.856 17.216 10.872 17.864 9.736 18.328C8.616 18.776 7.368 19 5.992 19H1.648ZM2.896 16.792H5.992C7.336 16.792 8.52 16.488 9.544 15.88C10.584 15.256 11.4 14.408 11.992 13.336C12.584 12.248 12.88 11.008 12.88 9.616C12.88 8.208 12.584 6.968 11.992 5.896C11.4 4.824 10.584 3.984 9.544 3.376C8.52 2.768 7.336 2.464 5.992 2.464H2.896V16.792ZM24.1449 19C23.7929 19 23.4969 18.88 23.2569 18.64C23.0169 18.4 22.8969 18.104 22.8969 17.752V1.504C22.8969 1.136 23.0169 0.839999 23.2569 0.615999C23.4969 0.375999 23.7929 0.256 24.1449 0.256H34.9929C35.3609 0.256 35.6569 0.368 35.8809 0.592C36.1049 0.8 36.2169 1.08 36.2169 1.432C36.2169 1.768 36.1049 2.04 35.8809 2.248C35.6569 2.456 35.3609 2.56 34.9929 2.56H25.3929V8.392H32.2809C32.6489 8.392 32.9449 8.504 33.1689 8.728C33.3929 8.936 33.5049 9.208 33.5049 9.544C33.5049 9.88 33.3929 10.16 33.1689 10.384C32.9449 10.592 32.6489 10.696 32.2809 10.696H25.3929V16.696H34.9929C35.3609 16.696 35.6569 16.8 35.8809 17.008C36.1049 17.216 36.2169 17.488 36.2169 17.824C36.2169 18.176 36.1049 18.464 35.8809 18.688C35.6569 18.896 35.3609 19 34.9929 19H24.1449ZM44.6496 19C44.2976 19 44.0016 18.88 43.7616 18.64C43.5216 18.4 43.4016 18.104 43.4016 17.752V1.504C43.4016 1.136 43.5216 0.839999 43.7616 0.615999C44.0016 0.375999 44.2976 0.256 44.6496 0.256H55.4976C55.8656 0.256 56.1616 0.368 56.3856 0.592C56.6096 0.8 56.7216 1.08 56.7216 1.432C56.7216 1.768 56.6096 2.04 56.3856 2.248C56.1616 2.456 55.8656 2.56 55.4976 2.56H45.8976V8.392H52.7856C53.1536 8.392 53.4496 8.504 53.6736 8.728C53.8976 8.936 54.0096 9.208 54.0096 9.544C54.0096 9.88 53.8976 10.16 53.6736 10.384C53.4496 10.592 53.1536 10.696 52.7856 10.696H45.8976V16.696H55.4976C55.8656 16.696 56.1616 16.8 56.3856 17.008C56.6096 17.216 56.7216 17.488 56.7216 17.824C56.7216 18.176 56.6096 18.464 56.3856 18.688C56.1616 18.896 55.8656 19 55.4976 19H44.6496ZM65.1302 19C64.7782 19 64.4822 18.88 64.2422 18.64C64.0182 18.4 63.9062 18.104 63.9062 17.752V1.504C63.9062 1.152 64.0262 0.855999 64.2662 0.615999C64.5062 0.375999 64.7942 0.256 65.1302 0.256C65.4822 0.256 65.7782 0.375999 66.0182 0.615999C66.2582 0.855999 66.3782 1.152 66.3782 1.504V16.504H75.0662C75.4182 16.504 75.7142 16.624 75.9542 16.864C76.1942 17.104 76.3142 17.4 76.3142 17.752C76.3142 18.104 76.1942 18.4 75.9542 18.64C75.7142 18.88 75.4182 19 75.0662 19H65.1302ZM83.1487 19C82.7807 19 82.4847 18.88 82.2607 18.64C82.0527 18.4 81.9327 18.128 81.9007 17.824C81.8847 17.504 81.9727 17.224 82.1647 16.984L93.9007 2.464H83.3887C82.9887 2.464 82.6847 2.368 82.4767 2.176C82.2847 1.968 82.1967 1.712 82.2127 1.408C82.1967 1.072 82.3087 0.8 82.5487 0.592C82.7887 0.368 83.0847 0.256 83.4367 0.256H95.8207C96.1887 0.256 96.4847 0.368 96.7087 0.592C96.9327 0.816 97.0607 1.088 97.0927 1.408C97.1247 1.712 97.0367 1.984 96.8287 2.224L85.0447 16.792H95.8207C96.1887 16.792 96.4847 16.904 96.7087 17.128C96.9327 17.336 97.0447 17.584 97.0447 17.872C97.0447 18.224 96.9327 18.504 96.7087 18.712C96.4847 18.904 96.1887 19 95.8207 19H83.1487ZM103.773 19C103.325 19 102.981 18.808 102.741 18.424C102.501 18.04 102.477 17.632 102.669 17.2L109.413 1.096C109.653 0.535999 110.045 0.256 110.589 0.256C111.165 0.256 111.557 0.535999 111.765 1.096L118.533 17.248C118.709 17.696 118.677 18.104 118.437 18.472C118.213 18.824 117.869 19 117.405 19C117.165 19 116.933 18.936 116.709 18.808C116.501 18.664 116.349 18.472 116.253 18.232L110.301 3.448H110.973L104.925 18.232C104.813 18.488 104.645 18.68 104.421 18.808C104.213 18.936 103.997 19 103.773 19ZM105.045 14.872L106.005 12.808H115.413L116.373 14.872H105.045ZM128.714 19C128.362 19 128.066 18.88 127.826 18.64C127.586 18.4 127.466 18.104 127.466 17.752V0.256H129.962V17.752C129.962 18.104 129.842 18.4 129.602 18.64C129.362 18.88 129.066 19 128.714 19ZM122.282 2.56C121.946 2.56 121.666 2.456 121.442 2.248C121.234 2.024 121.13 1.744 121.13 1.408C121.13 1.072 121.234 0.8 121.442 0.592C121.666 0.368 121.946 0.256 122.282 0.256H135.122C135.458 0.256 135.73 0.368 135.938 0.592C136.162 0.8 136.274 1.072 136.274 1.408C136.274 1.744 136.162 2.024 135.938 2.248C135.73 2.456 135.458 2.56 135.122 2.56H122.282Z" fill="#00A698"/>
<path d="M161.869 19.24C160.573 19.24 159.357 19 158.221 18.52C157.101 18.024 156.117 17.344 155.269 16.48C154.437 15.6 153.781 14.576 153.301 13.408C152.837 12.24 152.605 10.976 152.605 9.616C152.605 8.272 152.837 7.024 153.301 5.872C153.781 4.704 154.437 3.688 155.269 2.824C156.117 1.944 157.101 1.256 158.221 0.759999C159.341 0.263999 160.557 0.0159998 161.869 0.0159998C163.101 0.0159998 164.157 0.176 165.037 0.495999C165.933 0.815999 166.829 1.344 167.725 2.08C167.853 2.176 167.949 2.28 168.013 2.392C168.093 2.488 168.141 2.592 168.157 2.704C168.189 2.8 168.205 2.92 168.205 3.064C168.205 3.368 168.093 3.624 167.869 3.832C167.661 4.024 167.405 4.136 167.101 4.168C166.797 4.184 166.501 4.08 166.213 3.856C165.621 3.344 165.005 2.952 164.365 2.68C163.741 2.408 162.909 2.272 161.869 2.272C160.925 2.272 160.037 2.464 159.205 2.848C158.373 3.232 157.637 3.76 156.997 4.432C156.373 5.104 155.885 5.888 155.533 6.784C155.181 7.664 155.005 8.608 155.005 9.616C155.005 10.64 155.181 11.6 155.533 12.496C155.885 13.376 156.373 14.152 156.997 14.824C157.637 15.496 158.373 16.024 159.205 16.408C160.037 16.776 160.925 16.96 161.869 16.96C162.685 16.96 163.453 16.824 164.173 16.552C164.909 16.264 165.613 15.872 166.285 15.376C166.573 15.168 166.853 15.08 167.125 15.112C167.413 15.128 167.653 15.24 167.845 15.448C168.037 15.64 168.133 15.912 168.133 16.264C168.133 16.424 168.101 16.584 168.037 16.744C167.973 16.888 167.877 17.024 167.749 17.152C166.885 17.84 165.957 18.36 164.965 18.712C163.989 19.064 162.957 19.24 161.869 19.24ZM177.073 19C176.721 19 176.425 18.88 176.185 18.64C175.945 18.4 175.825 18.104 175.825 17.752V1.504C175.825 1.136 175.945 0.839999 176.185 0.615999C176.425 0.375999 176.721 0.256 177.073 0.256C177.441 0.256 177.737 0.375999 177.961 0.615999C178.201 0.839999 178.321 1.136 178.321 1.504V8.392H189.457V1.504C189.457 1.136 189.577 0.839999 189.817 0.615999C190.057 0.375999 190.353 0.256 190.705 0.256C191.073 0.256 191.369 0.375999 191.593 0.615999C191.817 0.839999 191.929 1.136 191.929 1.504V17.752C191.929 18.104 191.817 18.4 191.593 18.64C191.369 18.88 191.073 19 190.705 19C190.353 19 190.057 18.88 189.817 18.64C189.577 18.4 189.457 18.104 189.457 17.752V10.6H178.321V17.752C178.321 18.104 178.201 18.4 177.961 18.64C177.737 18.88 177.441 19 177.073 19ZM209.095 19.24C207.687 19.24 206.399 19.008 205.231 18.544C204.063 18.064 203.055 17.4 202.207 16.552C201.375 15.688 200.727 14.672 200.263 13.504C199.799 12.32 199.567 11.024 199.567 9.616C199.567 8.208 199.799 6.92 200.263 5.752C200.727 4.584 201.375 3.576 202.207 2.728C203.055 1.864 204.063 1.2 205.231 0.735999C206.399 0.256 207.687 0.0159998 209.095 0.0159998C210.503 0.0159998 211.783 0.256 212.935 0.735999C214.103 1.2 215.111 1.864 215.959 2.728C216.807 3.576 217.463 4.584 217.927 5.752C218.391 6.92 218.623 8.208 218.623 9.616C218.623 11.024 218.391 12.32 217.927 13.504C217.463 14.672 216.807 15.688 215.959 16.552C215.111 17.4 214.103 18.064 212.935 18.544C211.783 19.008 210.503 19.24 209.095 19.24ZM209.095 16.984C210.135 16.984 211.087 16.8 211.951 16.432C212.831 16.048 213.591 15.528 214.231 14.872C214.871 14.2 215.359 13.416 215.695 12.52C216.047 11.624 216.223 10.656 216.223 9.616C216.223 8.576 216.047 7.608 215.695 6.712C215.359 5.816 214.871 5.04 214.231 4.384C213.591 3.712 212.831 3.192 211.951 2.824C211.087 2.456 210.135 2.272 209.095 2.272C208.055 2.272 207.095 2.456 206.215 2.824C205.351 3.192 204.599 3.712 203.959 4.384C203.335 5.04 202.847 5.816 202.495 6.712C202.143 7.608 201.967 8.576 201.967 9.616C201.967 10.656 202.143 11.624 202.495 12.52C202.847 13.416 203.335 14.2 203.959 14.872C204.599 15.528 205.351 16.048 206.215 16.432C207.095 16.8 208.055 16.984 209.095 16.984ZM232.185 19.24C231.161 19.24 230.185 19.08 229.257 18.76C228.329 18.44 227.521 17.992 226.833 17.416C226.145 16.84 225.641 16.176 225.321 15.424C225.161 15.088 225.161 14.776 225.321 14.488C225.497 14.2 225.785 14.016 226.185 13.936C226.473 13.872 226.753 13.92 227.025 14.08C227.313 14.224 227.529 14.448 227.673 14.752C227.865 15.152 228.177 15.52 228.609 15.856C229.057 16.192 229.593 16.464 230.217 16.672C230.841 16.88 231.497 16.984 232.185 16.984C232.953 16.984 233.657 16.864 234.297 16.624C234.953 16.384 235.481 16.04 235.881 15.592C236.281 15.128 236.481 14.56 236.481 13.888C236.481 13.04 236.145 12.28 235.473 11.608C234.817 10.936 233.729 10.52 232.209 10.36C230.225 10.168 228.665 9.584 227.529 8.608C226.393 7.632 225.825 6.424 225.825 4.984C225.825 3.928 226.121 3.032 226.713 2.296C227.305 1.56 228.105 0.999999 229.113 0.615999C230.137 0.231999 231.273 0.0399995 232.521 0.0399995C233.497 0.0399995 234.345 0.175999 235.065 0.447999C235.801 0.719999 236.441 1.096 236.985 1.576C237.529 2.056 238.001 2.624 238.401 3.28C238.625 3.632 238.713 3.968 238.665 4.288C238.633 4.592 238.481 4.832 238.209 5.008C237.905 5.2 237.577 5.24 237.225 5.128C236.873 5.016 236.609 4.808 236.433 4.504C236.177 4.04 235.865 3.648 235.497 3.328C235.129 3.008 234.697 2.76 234.201 2.584C233.705 2.392 233.121 2.296 232.449 2.296C231.265 2.28 230.273 2.504 229.473 2.968C228.673 3.416 228.273 4.112 228.273 5.056C228.273 5.536 228.393 6 228.633 6.448C228.889 6.88 229.345 7.256 230.001 7.576C230.673 7.896 231.633 8.12 232.881 8.248C234.785 8.44 236.265 9.024 237.321 10C238.393 10.96 238.929 12.232 238.929 13.816C238.929 14.728 238.737 15.52 238.353 16.192C237.985 16.864 237.481 17.432 236.841 17.896C236.217 18.344 235.497 18.68 234.681 18.904C233.881 19.128 233.049 19.24 232.185 19.24ZM247.704 19C247.352 19 247.056 18.88 246.816 18.64C246.576 18.4 246.456 18.104 246.456 17.752V1.504C246.456 1.136 246.576 0.839999 246.816 0.615999C247.056 0.375999 247.352 0.256 247.704 0.256H258.552C258.92 0.256 259.216 0.368 259.44 0.592C259.664 0.8 259.776 1.08 259.776 1.432C259.776 1.768 259.664 2.04 259.44 2.248C259.216 2.456 258.92 2.56 258.552 2.56H248.952V8.392H255.84C256.208 8.392 256.504 8.504 256.728 8.728C256.952 8.936 257.064 9.208 257.064 9.544C257.064 9.88 256.952 10.16 256.728 10.384C256.504 10.592 256.208 10.696 255.84 10.696H248.952V16.696H258.552C258.92 16.696 259.216 16.8 259.44 17.008C259.664 17.216 259.776 17.488 259.776 17.824C259.776 18.176 259.664 18.464 259.44 18.688C259.216 18.896 258.92 19 258.552 19H247.704ZM268.185 19C267.833 19 267.537 18.88 267.297 18.64C267.073 18.4 266.961 18.104 266.961 17.752V1.504C266.961 1.136 267.073 0.839999 267.297 0.615999C267.537 0.375999 267.833 0.256 268.185 0.256C268.569 0.256 268.889 0.408 269.145 0.711999L279.609 14.632V1.504C279.609 1.136 279.729 0.839999 279.969 0.615999C280.209 0.375999 280.505 0.256 280.857 0.256C281.225 0.256 281.521 0.375999 281.745 0.615999C281.969 0.839999 282.081 1.136 282.081 1.504V17.752C282.081 18.104 281.969 18.4 281.745 18.64C281.521 18.88 281.225 19 280.857 19C280.697 19 280.521 18.968 280.329 18.904C280.153 18.824 280.009 18.712 279.897 18.568L269.433 4.648V17.752C269.433 18.104 269.313 18.4 269.073 18.64C268.849 18.88 268.553 19 268.185 19Z" fill="#393939"/>
</svg>
