<svg id="Layer_1" data-name="Layer 1" xmlns="http://www.w3.org/2000/svg" viewBox="0 0 109.07 40">
    <defs>
        <style>.cls-1{fill:#00a698;}.cls-2{fill:#fff;}</style>
    </defs>
    <path fill='#000' d="M51.76,24.77c0,.8.05,1.4.07,1.59H49.21a5.38,5.38,0,0,1-.08-.86,2.87,2.87,0,0,1-2.38,1.06,4.41,4.41,0,0,1-4.42-4.68,4.35,4.35,0,0,1,4.33-4.65,2.69,2.69,0,0,1,2.4.91V13.37h2.7Zm-4.67-.65a2,2,0,0,0,2-2.23,2,2,0,1,0-4,0A2,2,0,0,0,47.09,24.12Z"/>
    <path fill='#000' d="M62.33,23.8a4,4,0,0,1-4.11,2.83,4.54,4.54,0,0,1-4.65-4.75A4.5,4.5,0,0,1,58,17.17c2.77,0,4.47,1.71,4.47,4.58a5.46,5.46,0,0,1-.05.84H56.23a1.93,1.93,0,0,0,2,1.73,1.73,1.73,0,0,0,1.8-1.17Zm-2.48-3a1.59,1.59,0,0,0-1.79-1.5,1.7,1.7,0,0,0-1.78,1.5Z"/>
    <path fill='#000' d="M72.37,23.8a4,4,0,0,1-4.11,2.83,4.54,4.54,0,0,1-4.65-4.75,4.5,4.5,0,0,1,4.45-4.71c2.76,0,4.47,1.71,4.47,4.58a5,5,0,0,1-.06.84H66.26a1.94,1.94,0,0,0,2,1.73,1.73,1.73,0,0,0,1.8-1.17Zm-2.48-3a1.6,1.6,0,0,0-1.8-1.5,1.69,1.69,0,0,0-1.77,1.5Z"/>
    <path fill='#000' d="M74.29,26.36v-13H77v13Z"/>
    <path fill='#000' d="M78.87,26.36V24l3.93-4.18H79V17.44h7.31v2.25L82.17,24h4.18v2.35Z"/>
    <path fill='#000' d="M90.46,21.21l2.11-.32c.48-.07.64-.31.64-.61,0-.52-.45-1-1.31-1a1.45,1.45,0,0,0-1.53,1.31L88,20.13c.11-1.27,1.3-3,3.92-3,2.89,0,4,1.62,4,3.45V25A8.35,8.35,0,0,0,96,26.36H93.52a4.15,4.15,0,0,1-.09-1,3.12,3.12,0,0,1-5.6-1.46A2.73,2.73,0,0,1,90.46,21.21Zm2.75,1.65v-.39l-1.69.27c-.57.09-1,.36-1,1,0,.46.3.91,1.06.91S93.21,24.25,93.21,22.86Z"/>
    <path fill='#000' d="M101.34,17.44h1.75v2.39h-1.75v3.34c0,.73.4.93,1,.93a3.1,3.1,0,0,0,.72-.09v2.26a3.12,3.12,0,0,1-1.42.26,2.71,2.71,0,0,1-3-2.88V19.83H97.07V17.44h.45A1.31,1.31,0,0,0,98.9,16V14.84h2.44Z"/>
    <path fill='#000' class="cls-1"
          d="M38,11.08V28.92A7.08,7.08,0,0,1,30.9,36H13.14A7.15,7.15,0,0,1,6,28.85V11.08A7.08,7.08,0,0,1,13.07,4H30.9A7.08,7.08,0,0,1,38,11.08Z"/>
    <path fill='#000' class="cls-2"
          d="M28.55,15.5a6.38,6.38,0,0,0-4.5-1.87H13.56V26.36H24.05a6.23,6.23,0,0,0,1.89-.29,10.05,10.05,0,0,1-1.82-1.66H15.51V15.58h8.54a4.41,4.41,0,0,1,3.63,6.92,4.63,4.63,0,0,0,1.69,1,6.36,6.36,0,0,0-.82-8Z"/>
    <path fill='#000' class="cls-2"
          d="M30.41,24.81v1.56a7.38,7.38,0,0,1-5.72-3.09,13,13,0,0,1-1.15-1.67,1.62,1.62,0,1,1,1.4-.71C25.82,22.41,27.66,24.81,30.41,24.81Z"/>
</svg>
