<svg width="168" height="51" viewBox="0 0 168 51" fill="none" xmlns="http://www.w3.org/2000/svg">
<path d="M7.25468 39.125H9.31718C10.4734 39.125 11.3094 38.75 11.825 38C12.3562 37.25 12.6219 35.875 12.6219 33.875L12.5984 13.5078C12.5984 11.3672 12.3328 9.84375 11.8016 8.9375C11.2859 8.03125 10.3875 7.57812 9.10625 7.57812H7.25468V39.125ZM0.973434 44V2.75H10.2312C13.2625 2.75 15.4578 3.64844 16.8172 5.44531C18.1922 7.22656 18.8797 9.85938 18.8797 13.3438L18.9031 31.9531C18.9031 36.1094 18.2156 39.1562 16.8406 41.0938C15.4656 43.0312 13.1922 44 10.0203 44H0.973434ZM32.4781 44.4219C28.525 44.4219 25.9781 42.9141 24.8375 39.8984C24.1187 37.9766 23.7594 35.4453 23.7594 32.3047V19.2031C23.7594 12.0156 26.7516 8.42188 32.7359 8.42188C35.9234 8.42188 38.1266 9.36719 39.3453 11.2578C40.5797 13.1484 41.1969 15.8359 41.1969 19.3203V26.8438H30.0172V33.7578C30.0172 36.1953 30.2281 37.75 30.65 38.4219C31.0719 39.0781 31.7047 39.4062 32.5484 39.4062C33.3922 39.4062 33.9391 39.2109 34.1891 38.8203C34.6109 38.1328 34.8531 37.4297 34.9156 36.7109C34.9781 35.9922 35.0094 35.0078 35.0094 33.7578V30.6641H41.15V32.5391C41.15 35.7266 40.9 38.0156 40.4 39.4062C39.9 40.7969 39.3219 41.8047 38.6656 42.4297C37.2906 43.7578 35.2281 44.4219 32.4781 44.4219ZM29.9937 23.2109H35.0094V18.7109C35.0094 16.7891 34.8531 15.4141 34.5406 14.5859C34.2437 13.7422 33.6266 13.3203 32.6891 13.3203C32.6734 13.3203 32.6656 13.3203 32.6656 13.3203C31.0406 13.3203 30.1656 14.5625 30.0406 17.0469C30.0094 17.5156 29.9937 18.125 29.9937 18.875V23.2109ZM54.6312 44.4219C50.6781 44.4219 48.1312 42.9141 46.9906 39.8984C46.2719 37.9766 45.9125 35.4453 45.9125 32.3047V19.2031C45.9125 12.0156 48.9047 8.42188 54.8891 8.42188C58.0766 8.42188 60.2797 9.36719 61.4984 11.2578C62.7328 13.1484 63.35 15.8359 63.35 19.3203V26.8438H52.1703V33.7578C52.1703 36.1953 52.3812 37.75 52.8031 38.4219C53.225 39.0781 53.8578 39.4062 54.7016 39.4062C55.5453 39.4062 56.0922 39.2109 56.3422 38.8203C56.7641 38.1328 57.0062 37.4297 57.0687 36.7109C57.1312 35.9922 57.1625 35.0078 57.1625 33.7578V30.6641H63.3031V32.5391C63.3031 35.7266 63.0531 38.0156 62.5531 39.4062C62.0531 40.7969 61.475 41.8047 60.8187 42.4297C59.4437 43.7578 57.3812 44.4219 54.6312 44.4219ZM52.1469 23.2109H57.1625V18.7109C57.1625 16.7891 57.0062 15.4141 56.6937 14.5859C56.3969 13.7422 55.7797 13.3203 54.8422 13.3203C54.8266 13.3203 54.8187 13.3203 54.8187 13.3203C53.1937 13.3203 52.3187 14.5625 52.1937 17.0469C52.1625 17.5156 52.1469 18.125 52.1469 18.875V23.2109ZM68.6516 44V2.39844H74.8391V44H68.6516ZM87.0547 39.125H89.1172C90.2734 39.125 91.1094 38.75 91.625 38C92.1562 37.25 92.4219 35.875 92.4219 33.875L92.3984 13.5078C92.3984 11.3672 92.1328 9.84375 91.6016 8.9375C91.0859 8.03125 90.1875 7.57812 88.9062 7.57812H87.0547V39.125ZM80.7734 44V2.75H90.0312C93.0625 2.75 95.2578 3.64844 96.6172 5.44531C97.9922 7.22656 98.6797 9.85938 98.6797 13.3438L98.7031 31.9531C98.7031 36.1094 98.0156 39.1562 96.6406 41.0938C95.2656 43.0312 92.9922 44 89.8203 44H80.7734ZM114.833 24.9219C112.864 25.7969 111.536 26.625 110.848 27.4062C110.161 28.1875 109.817 29.3984 109.817 31.0391V34.8125C109.817 36.4531 109.989 37.6328 110.333 38.3516C110.677 39.0547 111.231 39.4062 111.997 39.4062C112.778 39.4062 113.411 39.1484 113.895 38.6328C114.395 38.1016 114.708 37.5078 114.833 36.8516V24.9219ZM109.934 44.3516C107.637 44.3516 105.997 43.5312 105.012 41.8906C104.028 40.2344 103.52 37.8594 103.489 34.7656V32.5156C103.489 29.5156 104.302 27.2422 105.927 25.6953C106.973 24.6797 108.747 23.6953 111.247 22.7422C111.7 22.5703 112.325 22.3359 113.122 22.0391C113.934 21.7422 114.505 21.5312 114.833 21.4062V18.3359C114.833 16.4297 114.692 15.1406 114.411 14.4688C114.145 13.7812 113.52 13.4375 112.536 13.4375C111.567 13.4375 110.919 13.7969 110.591 14.5156C110.262 15.2344 110.098 16.4453 110.098 18.1484V19.7188H103.958V18.6641C103.958 15.3359 104.575 12.7969 105.809 11.0469C107.059 9.29688 109.262 8.42188 112.419 8.42188C115.591 8.42188 117.841 9.29688 119.169 11.0469C120.512 12.7969 121.184 15.4219 121.184 18.9219V44H114.927V40.5078C114.614 41.5859 114.012 42.5 113.122 43.25C112.247 43.9844 111.184 44.3516 109.934 44.3516ZM126.884 44V8.84375H133.095V44H126.884ZM126.814 5.60938V0.21875H133.072V5.60938H126.814ZM139.077 44V2.39844H145.264V44H139.077ZM150.191 50.2109V45.9219H152.23C153.011 45.9219 153.613 45.8594 154.034 45.7344C154.472 45.6094 154.714 45.3594 154.761 44.9844C154.855 44.8281 154.902 44.5391 154.902 44.1172C154.902 43.6953 154.847 43.125 154.738 42.4062L149.113 8.82031H155.019L157.269 26.8203L158.206 36.2891H158.722L159.566 26.8203L161.628 8.82031H167.511L161.417 45.5C161.152 47.2656 160.706 48.4922 160.081 49.1797C159.456 49.8672 158.363 50.2109 156.8 50.2109H150.191Z" fill="#393939"/>
</svg>
