<svg width="205" height="114" viewBox="0 0 205 114" fill="none" xmlns="http://www.w3.org/2000/svg">
<path d="M18.4069 35.72C27.9589 35.72 32.8549 29.384 34.1509 24.152L27.9589 22.28C27.0469 25.448 24.2149 29.24 18.4069 29.24C12.9349 29.24 7.84694 25.256 7.84694 18.008C7.84694 10.28 13.2229 6.632 18.3109 6.632C24.2149 6.632 26.8549 10.232 27.6709 13.496L33.9109 11.528C32.5669 6.008 27.7189 0.247998 18.3109 0.247998C9.19094 0.247998 0.982939 7.16 0.982939 18.008C0.982939 28.856 8.90294 35.72 18.4069 35.72ZM43.8751 17.96C43.8751 10.28 49.2511 6.632 54.4831 6.632C59.7631 6.632 65.1391 10.28 65.1391 17.96C65.1391 25.64 59.7631 29.288 54.4831 29.288C49.2511 29.288 43.8751 25.64 43.8751 17.96ZM37.0111 18.008C37.0111 28.952 45.2671 35.72 54.4831 35.72C63.7471 35.72 72.0031 28.952 72.0031 18.008C72.0031 7.016 63.7471 0.247998 54.4831 0.247998C45.2671 0.247998 37.0111 7.016 37.0111 18.008ZM115.414 35V0.967998H106.39L96.4058 25.544L86.1818 0.967998H77.4458V35H83.7818V11.336L93.5738 35H99.0938L108.886 11.144V35H115.414ZM129.616 35V0.967998H122.896V35H129.616ZM166.12 35V0.967998H159.496V23.48L145.336 0.967998H137.08V35H143.704V10.856L159.16 35H166.12ZM204.393 35V17.288H187.401V23.048H198.153C197.769 25.448 195.321 29.672 189.033 29.672C183.321 29.672 178.281 25.688 178.281 18.008C178.281 9.944 183.849 6.44 188.985 6.44C194.505 6.44 197.337 9.944 198.201 12.968L204.537 10.712C202.857 5.48 197.913 0.247998 188.985 0.247998C179.769 0.247998 171.561 7.016 171.561 18.008C171.561 29 179.385 35.72 188.553 35.72C193.689 35.72 197.049 33.416 198.585 31.112L199.017 35H204.393ZM58.6793 58.08C57.9113 54.24 54.7433 49.248 46.4873 49.248C40.0553 49.248 34.6313 53.856 34.6313 59.904C34.6313 65.04 38.1353 68.544 43.5593 69.648L48.3113 70.608C50.9513 71.136 52.4393 72.672 52.4393 74.64C52.4393 77.04 50.4713 78.816 46.9193 78.816C42.1193 78.816 39.7673 75.792 39.4793 72.432L33.3353 74.064C33.8633 78.912 37.8473 84.72 46.8713 84.72C54.7913 84.72 59.1593 79.44 59.1593 74.208C59.1593 69.408 55.8473 65.376 49.6553 64.176L44.9033 63.264C42.4073 62.784 41.2073 61.296 41.2073 59.424C41.2073 57.168 43.3193 55.104 46.5353 55.104C50.8553 55.104 52.3913 58.032 52.7273 59.904L58.6793 58.08ZM69.2063 66.96C69.2063 59.28 74.5823 55.632 79.8143 55.632C85.0943 55.632 90.4703 59.28 90.4703 66.96C90.4703 74.64 85.0943 78.288 79.8143 78.288C74.5823 78.288 69.2063 74.64 69.2063 66.96ZM62.3423 67.008C62.3423 77.952 70.5983 84.72 79.8143 84.72C89.0783 84.72 97.3343 77.952 97.3343 67.008C97.3343 56.016 89.0783 49.248 79.8143 49.248C70.5983 49.248 62.3423 56.016 62.3423 67.008ZM107.625 66.96C107.625 59.28 113.001 55.632 118.233 55.632C123.513 55.632 128.889 59.28 128.889 66.96C128.889 74.64 123.513 78.288 118.233 78.288C113.001 78.288 107.625 74.64 107.625 66.96ZM100.761 67.008C100.761 77.952 109.017 84.72 118.233 84.72C127.497 84.72 135.753 77.952 135.753 67.008C135.753 56.016 127.497 49.248 118.233 49.248C109.017 49.248 100.761 56.016 100.761 67.008ZM170.236 84V49.968H163.612V72.48L149.452 49.968H141.196V84H147.82V59.856L163.276 84H170.236ZM54.8646 95.968L52.2726 96.784C52.1606 96.128 51.8326 95.528 51.2886 94.984C50.7446 94.44 49.9606 94.168 48.9366 94.168C48.0886 94.168 47.3846 94.408 46.8246 94.888C46.2806 95.368 46.0086 95.944 46.0086 96.616C46.0086 97.784 46.6726 98.512 48.0006 98.8L50.4486 99.304C51.9206 99.592 53.0566 100.176 53.8566 101.056C54.6566 101.936 55.0566 102.984 55.0566 104.2C55.0566 105.608 54.5126 106.824 53.4246 107.848C52.3526 108.856 50.8886 109.36 49.0326 109.36C47.0326 109.36 45.4726 108.84 44.3526 107.8C43.2326 106.744 42.6006 105.52 42.4566 104.128L45.1446 103.36C45.2406 104.32 45.6246 105.128 46.2966 105.784C46.9686 106.44 47.8806 106.768 49.0326 106.768C50.0246 106.768 50.7846 106.552 51.3126 106.12C51.8566 105.672 52.1286 105.104 52.1286 104.416C52.1286 103.856 51.9286 103.376 51.5286 102.976C51.1286 102.56 50.5686 102.272 49.8486 102.112L47.4486 101.608C46.1206 101.336 45.0646 100.784 44.2806 99.952C43.5126 99.12 43.1286 98.08 43.1286 96.832C43.1286 95.408 43.6966 94.184 44.8326 93.16C45.9686 92.136 47.3286 91.624 48.9126 91.624C50.7206 91.624 52.1046 92.064 53.0646 92.944C54.0246 93.808 54.6246 94.816 54.8646 95.968ZM60.9889 93.736V97.312H63.4129V99.784H60.9889V105.208C60.9889 105.72 61.1089 106.096 61.3489 106.336C61.5889 106.56 61.9649 106.672 62.4769 106.672C62.7969 106.672 63.1169 106.64 63.4369 106.576V108.88C63.0209 109.056 62.4529 109.144 61.7329 109.144C60.6449 109.144 59.7889 108.84 59.1649 108.232C58.5409 107.608 58.2289 106.752 58.2289 105.664V99.784H56.0689V97.312H56.6689C57.2609 97.312 57.7089 97.144 58.0129 96.808C58.3169 96.472 58.4689 96.032 58.4689 95.488V93.736H60.9889ZM65.2769 105.832C65.2769 104.84 65.5969 104.048 66.2369 103.456C66.8929 102.848 67.7489 102.464 68.8049 102.304L71.8049 101.848C72.3809 101.768 72.6689 101.488 72.6689 101.008C72.6689 100.48 72.4849 100.056 72.1169 99.736C71.7489 99.4 71.1969 99.232 70.4609 99.232C69.7569 99.232 69.1969 99.432 68.7809 99.832C68.3649 100.216 68.1249 100.72 68.0609 101.344L65.5169 100.768C65.6289 99.712 66.1329 98.816 67.0289 98.08C67.9249 97.328 69.0609 96.952 70.4369 96.952C72.1329 96.952 73.3809 97.36 74.1809 98.176C74.9969 98.992 75.4049 100.04 75.4049 101.32V107.128C75.4049 107.896 75.4529 108.52 75.5489 109H72.9569C72.8769 108.76 72.8369 108.264 72.8369 107.512C72.0689 108.744 70.8689 109.36 69.2369 109.36C68.0529 109.36 67.0929 109.016 66.3569 108.328C65.6369 107.624 65.2769 106.792 65.2769 105.832ZM69.7649 107.176C70.6289 107.176 71.3249 106.944 71.8529 106.48C72.3969 106 72.6689 105.224 72.6689 104.152V103.624L69.6209 104.08C68.5809 104.256 68.0609 104.784 68.0609 105.664C68.0609 106.08 68.2129 106.44 68.5169 106.744C68.8209 107.032 69.2369 107.176 69.7649 107.176ZM81.7411 113.728H78.7651L81.5731 107.608L76.5811 97.312H79.7251L83.0851 104.704L86.2291 97.312H89.1811L81.7411 113.728ZM100.101 93.736V97.312H102.525V99.784H100.101V105.208C100.101 105.72 100.221 106.096 100.461 106.336C100.701 106.56 101.077 106.672 101.589 106.672C101.909 106.672 102.229 106.64 102.549 106.576V108.88C102.133 109.056 101.565 109.144 100.845 109.144C99.7574 109.144 98.9014 108.84 98.2774 108.232C97.6534 107.608 97.3414 106.752 97.3414 105.664V99.784H95.1814V97.312H95.7814C96.3734 97.312 96.8214 97.144 97.1254 96.808C97.4294 96.472 97.5814 96.032 97.5814 95.488V93.736H100.101ZM112.717 107.704C112.445 108.216 111.997 108.616 111.373 108.904C110.765 109.192 110.109 109.336 109.405 109.336C108.045 109.336 106.965 108.896 106.165 108.016C105.381 107.136 104.989 106.024 104.989 104.68V97.312H107.773V104.176C107.773 104.96 107.965 105.6 108.349 106.096C108.733 106.592 109.325 106.84 110.125 106.84C110.909 106.84 111.509 106.6 111.925 106.12C112.357 105.64 112.573 105.008 112.573 104.224V97.312H115.357V106.864C115.357 107.568 115.397 108.28 115.477 109H112.813C112.749 108.648 112.717 108.216 112.717 107.704ZM121.445 102.256V109H118.661V97.312H121.373V98.872C121.741 98.232 122.229 97.76 122.837 97.456C123.461 97.136 124.125 96.976 124.829 96.976C126.205 96.976 127.253 97.408 127.973 98.272C128.693 99.136 129.053 100.248 129.053 101.608V109H126.269V102.088C126.269 101.304 126.077 100.68 125.693 100.216C125.309 99.736 124.701 99.496 123.869 99.496C123.101 99.496 122.501 99.76 122.069 100.288C121.653 100.8 121.445 101.456 121.445 102.256ZM134.086 101.872H139.822C139.79 101.136 139.526 100.52 139.03 100.024C138.55 99.528 137.854 99.28 136.942 99.28C136.11 99.28 135.438 99.544 134.926 100.072C134.414 100.584 134.134 101.184 134.086 101.872ZM140.134 104.92L142.486 105.664C142.15 106.736 141.518 107.624 140.59 108.328C139.678 109.016 138.55 109.36 137.206 109.36C135.542 109.36 134.126 108.792 132.958 107.656C131.806 106.52 131.23 105 131.23 103.096C131.23 101.304 131.79 99.832 132.91 98.68C134.046 97.528 135.382 96.952 136.918 96.952C138.71 96.952 140.11 97.504 141.118 98.608C142.126 99.696 142.63 101.168 142.63 103.024C142.63 103.52 142.606 103.816 142.558 103.912H134.014C134.046 104.792 134.366 105.52 134.974 106.096C135.598 106.672 136.342 106.96 137.206 106.96C138.71 106.96 139.686 106.28 140.134 104.92ZM146.863 103.12C146.863 104.24 147.151 105.144 147.727 105.832C148.303 106.504 149.063 106.84 150.007 106.84C150.919 106.84 151.663 106.496 152.239 105.808C152.815 105.12 153.103 104.216 153.103 103.096C153.103 101.992 152.823 101.112 152.263 100.456C151.703 99.8 150.959 99.472 150.031 99.472C149.103 99.472 148.343 99.808 147.751 100.48C147.159 101.136 146.863 102.016 146.863 103.12ZM155.791 91.624V106.864C155.791 107.648 155.831 108.36 155.911 109H153.247C153.167 108.552 153.127 108.048 153.127 107.488C152.839 108.016 152.391 108.448 151.783 108.784C151.175 109.12 150.479 109.288 149.695 109.288C148.031 109.288 146.679 108.704 145.639 107.536C144.599 106.368 144.079 104.896 144.079 103.12C144.079 101.408 144.599 99.96 145.639 98.776C146.695 97.592 148.031 97 149.647 97C150.575 97 151.319 97.168 151.879 97.504C152.455 97.84 152.855 98.232 153.079 98.68V91.624H155.791ZM159.418 108.592C159.05 108.208 158.866 107.744 158.866 107.2C158.866 106.656 159.05 106.192 159.418 105.808C159.802 105.424 160.266 105.232 160.81 105.232C161.354 105.232 161.818 105.424 162.202 105.808C162.586 106.192 162.778 106.656 162.778 107.2C162.778 107.744 162.586 108.208 162.202 108.592C161.818 108.96 161.354 109.144 160.81 109.144C160.266 109.144 159.802 108.96 159.418 108.592Z" fill="#00A698"/>
</svg>
