<svg width="21" height="21" viewBox="0 0 21 21" fill="none" xmlns="http://www.w3.org/2000/svg">
<path d="M18.2101 4.5246C17.9838 4.66198 17.8209 4.88375 17.7572 5.14136C17.6934 5.39897 17.7341 5.67142 17.8701 5.89904C18.5587 7.05387 18.9469 8.36386 18.9988 9.70854C19.0507 11.0532 18.7648 12.3894 18.1673 13.5942C17.5698 14.7991 16.68 15.8338 15.5796 16.6034C14.4792 17.3729 13.2036 17.8525 11.8701 17.9981C11.2824 18.0712 10.6879 18.0712 10.1001 17.9981C8.70925 17.8491 7.38341 17.3295 6.26014 16.4932C5.01378 15.5707 4.06116 14.305 3.51792 12.8498C2.97468 11.3946 2.86419 9.81252 3.19985 8.29556C3.53551 6.7786 4.3029 5.39202 5.40885 4.30412C6.5148 3.21623 7.91176 2.47381 9.43014 2.167C9.69536 2.11645 9.92969 1.96227 10.0816 1.73837C10.2335 1.51448 10.2905 1.23923 10.2401 0.973151C10.1897 0.707076 10.0361 0.471982 9.8129 0.319586C9.58973 0.16719 9.31536 0.109976 9.05014 0.16053C7.14933 0.53865 5.39898 1.46269 4.01192 2.82028C2.62487 4.17787 1.66086 5.91052 1.23712 7.80755C0.813388 9.70459 0.948182 11.6843 1.62511 13.5059C2.30205 15.3275 3.49195 16.9125 5.05014 18.0683C6.45702 19.1163 8.11779 19.7675 9.86014 19.9544C10.2375 20.0148 10.6182 20.0517 11.0001 20.0647C11.3712 20.0641 11.7419 20.0406 12.1101 19.9945C13.7736 19.8076 15.3638 19.2049 16.7348 18.2414C18.1058 17.2779 19.2138 15.9846 19.9572 14.48C20.7006 12.9754 21.0556 11.3076 20.9898 9.62962C20.9239 7.95161 20.4392 6.31703 19.5801 4.87574C19.4449 4.64694 19.2245 4.48142 18.9676 4.41558C18.7107 4.34973 18.4382 4.38895 18.2101 4.5246Z" fill="white"/>
<path d="M16.8797 4.21333C17.0827 4.21304 17.2808 4.15077 17.4477 4.03481C17.6146 3.91885 17.7423 3.75468 17.814 3.56412C17.8856 3.37357 17.8977 3.16565 17.8488 2.96802C17.7998 2.77038 17.692 2.59238 17.5397 2.45767C16.0182 1.11954 14.1217 0.285624 12.1097 0.0699716C11.8445 0.0420338 11.5791 0.120938 11.3719 0.289326C11.1647 0.457714 11.0326 0.701793 11.0047 0.967867C10.9769 1.23394 11.0555 1.50022 11.2234 1.70812C11.3912 1.91601 11.6345 2.0485 11.8997 2.07644C13.5043 2.25948 15.0132 2.93578 16.2197 4.01269C16.4091 4.15597 16.643 4.22708 16.8797 4.21333ZM15.7097 5.30686C15.5224 5.12001 15.2689 5.01513 15.0047 5.01513C14.7406 5.01513 14.4871 5.12001 14.2997 5.30686L6.29974 13.3327C6.19506 13.4227 6.11004 13.5334 6.05001 13.6578C5.98999 13.7823 5.95626 13.9179 5.95094 14.056C5.94562 14.1942 5.96883 14.332 6.0191 14.4607C6.06938 14.5894 6.14563 14.7064 6.24309 14.8041C6.34054 14.9019 6.45709 14.9784 6.58542 15.0288C6.71374 15.0793 6.85107 15.1026 6.98879 15.0972C7.12651 15.0919 7.26164 15.0581 7.38571 14.9978C7.50977 14.9376 7.62009 14.8523 7.70974 14.7473L15.7097 6.72142C15.896 6.53345 16.0005 6.27918 16.0005 6.01414C16.0005 5.7491 15.896 5.49483 15.7097 5.30686Z" fill="white"/>
<path d="M8 9.02857C9.10457 9.02857 10 8.13024 10 7.0221C10 5.91395 9.10457 5.01562 8 5.01562C6.89543 5.01562 6 5.91395 6 7.0221C6 8.13024 6.89543 9.02857 8 9.02857Z" fill="white"/>
<path d="M14 15.0481C15.1046 15.0481 16 14.1498 16 13.0416C16 11.9335 15.1046 11.0352 14 11.0352C12.8954 11.0352 12 11.9335 12 13.0416C12 14.1498 12.8954 15.0481 14 15.0481Z" fill="white"/>
</svg>
