<svg width="110" height="49" viewBox="0 0 110 49" fill="none" xmlns="http://www.w3.org/2000/svg">
<path d="M11.5176 7.7207C11.6421 7.7207 12.5452 7.66892 12.6145 7.91147C12.6603 8.07156 12.756 8.19635 12.8939 8.30664C13.2378 8.58179 13.7573 8.56259 14.1884 8.57917C14.642 8.59662 15.1945 8.86561 15.5647 9.09698C15.9108 9.31329 15.886 9.95775 16.0552 10.2961" stroke="#DC6664" stroke-width="0.2" stroke-linecap="round"/>
<path d="M40.2151 30.1638C41.0532 29.3256 41.5961 28.1624 42.4839 27.4112C42.9838 26.9882 43.4737 26.8893 43.9011 26.3551C44.1863 25.9986 44.8171 25.5084 44.8754 25.0129C44.9093 24.7246 45.2612 24.645 45.4886 24.645" stroke="#DC6664" stroke-width="0.2" stroke-linecap="round"/>
<path d="M39.1113 10.0511C36.8089 10.0051 34.6657 9.78012 32.4888 10.7597C31.6711 11.1277 31.1017 11.4104 30.1587 11.2503C29.8214 11.193 28.559 10.5523 28.3191 11.0322" stroke="#DC6664" stroke-width="0.2" stroke-linecap="round"/>
<path d="M33.4011 10.454C33.1515 10.265 32.9588 10.2088 32.6792 10.1012C32.483 10.0258 32.1817 9.90177 32.0714 9.72132C31.7114 9.13233 30.8254 9.18401 30.2261 9.18401" stroke="#DC6664" stroke-width="0.2" stroke-linecap="round"/>
<path d="M34.5733 10.1606C34.0374 10.1737 34.1856 10.4346 34.0251 10.7956C33.8969 11.0843 33.4807 11.3148 33.2056 11.4524C32.9125 11.5989 32.5251 11.7041 32.3752 12.0412C32.2402 12.3449 31.968 12.5788 31.7891 12.8472" stroke="#DC6664" stroke-width="0.2" stroke-linecap="round"/>
<path d="M13.4485 8.57275C12.9391 8.69405 12.7228 9.07525 12.6735 9.56827C12.6296 10.007 12.4876 10.4076 12.2355 10.766C11.9945 11.1085 11.5244 11.3723 11.3839 11.7737C11.2308 12.2113 11.2253 12.7062 11.0776 13.1491" stroke="#DC6664" stroke-width="0.2" stroke-linecap="round"/>
<path d="M36.4611 41.9409C36.0805 40.9418 35.8776 39.1128 36.5323 38.1671C37.0871 37.3657 38.0896 36.2446 39.1668 36.2446" stroke="#DC6664" stroke-width="0.2" stroke-linecap="round"/>
<path d="M37.737 36.7472C37.737 36.3252 37.7911 35.8302 37.6054 35.4381C37.4894 35.1932 37.1753 35.1717 37.0513 34.8927C36.948 34.6603 36.7085 34.4372 36.7085 34.1759C36.7085 33.871 36.7455 33.7178 37.0825 33.6616" stroke="#DC6664" stroke-width="0.2" stroke-linecap="round"/>
<path d="M44.8379 24.9686C44.678 24.9686 44.4773 24.9365 44.3175 24.972C44.2325 24.9909 44.1969 25.0911 44.1032 25.0911C43.8962 25.0911 43.8605 24.9664 43.6746 25.1523" stroke="#DC6664" stroke-width="0.2" stroke-linecap="round"/>
<path d="M44.2867 24.9688L44.103 24.7239" stroke="#DC6664" stroke-width="0.2" stroke-linecap="round"/>
<path d="M42.3887 27.4177C42.3887 27.7416 42.4499 28.0222 42.4499 28.3362" stroke="#DC6664" stroke-width="0.2" stroke-linecap="round"/>
<path d="M41.3532 28.5793C41.1728 28.5757 40.8938 28.4825 40.7786 28.684C40.7484 28.7369 40.708 28.7764 40.6816 28.8321C40.6587 28.8804 40.6392 28.9938 40.5947 29.016" stroke="#DC6664" stroke-width="0.2" stroke-linecap="round"/>
<path d="M79.2592 4.26538C79.2592 4.53858 79.2133 4.76174 79.1213 5.01627C79.0615 5.18157 79.0305 5.34782 78.9496 5.50665C78.8502 5.7019 78.675 5.86266 78.5267 6.02001C78.0212 6.55608 77.6465 7.17646 77.2517 7.79609C76.9485 8.27196 76.6548 8.76444 76.5698 9.32545C76.5513 9.44724 76.5167 9.66671 76.5744 9.78212C76.6581 9.94968 76.901 10.0398 77.0525 10.1269C77.3248 10.2835 77.6448 10.2786 77.9505 10.2786C78.4122 10.2786 78.8741 10.2759 79.3358 10.2786C80.004 10.2826 80.6393 10.598 80.9127 11.2303C81.0412 11.5274 80.9969 11.8652 80.9969 12.1819" stroke="#DC6664" stroke-width="0.2" stroke-linecap="round"/>
<path d="M80.0435 10.3963C80.0435 10.1901 80.0435 9.98396 80.0435 9.77778C80.0435 9.60084 80.0008 9.37242 80.1116 9.22054C80.3975 8.82838 80.9476 8.76121 81.3814 8.66058C81.9267 8.53408 82.4958 8.2801 82.4958 7.64966" stroke="#DC6664" stroke-width="0.2" stroke-linecap="round"/>
<path d="M81.4659 8.60598C81.0845 8.4516 80.5259 8.32331 80.1525 8.53241C80.0751 8.57576 79.735 8.73327 79.662 8.65367C79.5914 8.57664 79.4891 8.50789 79.3813 8.50789" stroke="#DC6664" stroke-width="0.2" stroke-linecap="round"/>
<path d="M77.417 10.2712C77.6504 10.2712 77.8382 10.4496 78.0193 10.5802C78.0731 10.619 78.1437 10.6727 78.1822 10.7276C78.2017 10.7552 78.2269 10.7963 78.2588 10.8069" stroke="#DC6664" stroke-width="0.2" stroke-linecap="round"/>
<path d="M106.093 19.197C105.631 19.197 105.17 19.197 104.708 19.197C103.886 19.197 103.188 18.781 102.576 18.2719C102.109 17.884 101.991 17.232 101.344 17.0608C100.953 16.9573 100.336 16.8541 99.9587 17.0425" stroke="#DC6664" stroke-width="0.2" stroke-linecap="round"/>
<path d="M106.422 20.8401C106.215 20.8401 106.008 20.8401 105.801 20.8401C105.542 20.8401 105.406 20.9568 105.237 21.1525C105.038 21.3839 104.95 21.6726 104.85 21.9538C104.72 22.3185 104.563 22.6994 104.532 23.0878C104.461 23.9577 104.553 24.8274 103.886 25.4938C103.681 25.6988 103.495 25.7332 103.209 25.7332C103.096 25.7332 102.796 25.7838 102.734 25.6601" stroke="#DC6664" stroke-width="0.2" stroke-linecap="round"/>
<path d="M104.633 22.447C104.426 22.1485 104.017 21.7463 103.667 21.6152C103.168 21.4279 102.547 21.5272 102.121 21.1689C101.782 20.8831 101.383 20.3627 101.383 19.8909" stroke="#DC6664" stroke-width="0.2" stroke-linecap="round"/>
<path d="M102.296 17.9923C102.296 17.885 102.243 17.7367 102.377 17.7367C102.543 17.7367 102.71 17.7367 102.876 17.7367C102.965 17.7367 103.025 17.6614 103.123 17.6636C103.212 17.6656 103.491 17.8518 103.553 17.7894C103.666 17.6771 103.739 17.516 103.923 17.7001C104.015 17.7926 104.121 17.9235 104.121 18.0653" stroke="#DC6664" stroke-width="0.2" stroke-linecap="round"/>
<path d="M104.117 34.4677C103.68 34.4677 102.287 34.228 102.001 34.717C101.732 35.1793 101.693 35.9447 101.577 36.469C101.385 37.3342 101.005 37.7875 100.236 38.1334C100.034 38.2244 99.7526 38.2933 99.6025 38.4434C99.44 38.6059 99.3416 38.8569 99.1443 38.9555" stroke="#DC6664" stroke-width="0.2" stroke-linecap="round"/>
<path d="M101.6 35.8869C101.478 35.8869 101.355 35.878 101.236 35.9099C101.094 35.9479 101.03 36.0823 100.953 36.1925C100.861 36.3256 100.769 36.4662 100.623 36.5469C100.474 36.6299 100.29 36.6418 100.129 36.6942C99.9822 36.7419 99.9022 36.8475 99.7827 36.9364C99.6324 37.0483 99.4887 37.0751 99.3022 37.0607C99.2301 37.0552 98.997 36.9773 98.9363 37.0441C98.8485 37.1407 98.8707 37.3262 98.8203 37.4439" stroke="#DC6664" stroke-width="0.2" stroke-linecap="round"/>
<path d="M101.231 35.9097C101.13 35.9097 101.029 35.9097 100.928 35.9097C100.793 35.9097 100.617 35.9125 100.495 35.9789C100.384 36.0399 100.279 36.1091 100.163 36.1635C100.062 36.2113 99.985 36.1732 99.8929 36.1263C99.7571 36.0572 99.617 36.0836 99.5469 35.9123C99.5337 35.8801 99.539 35.8477 99.5213 35.8175C99.4989 35.7794 99.4191 35.824 99.397 35.8405" stroke="#DC6664" stroke-width="0.2" stroke-linecap="round"/>
<path d="M82.8201 17.1864C82.9426 16.6718 83.4996 16.253 83.9604 16.0482C84.1984 15.9425 84.4507 15.8626 84.7116 15.8446C84.9718 15.8267 85.2532 15.8844 85.5081 15.8242C85.951 15.7197 86.2716 15.389 86.4245 14.9644C86.5533 14.6065 86.4357 14.1658 86.6485 13.8467" stroke="#DC6664" stroke-width="0.2" stroke-linecap="round"/>
<path d="M86.4448 14.7835C86.8314 14.7835 87.085 14.8047 87.4449 14.9872C87.7976 15.1659 88.3767 15.5857 88.807 15.3763C89.0784 15.2443 89.2068 14.832 89.3365 14.5799C89.4757 14.3092 89.8138 14.3762 90.0696 14.3762" stroke="#DC6664" stroke-width="0.2" stroke-linecap="round"/>
<path d="M28.458 19.3905C28.4521 19.0848 28.4311 18.9248 28.2187 18.7124C28.0074 18.5011 27.777 18.3354 27.5407 18.1541C27.0226 17.7566 26.5109 17.3017 26.1138 16.7848C25.6373 16.1645 25.2026 15.4912 25.1876 14.6843C25.182 14.3811 25.3953 14.1658 25.7061 14.1658" stroke="#DC6664" stroke-width="0.2" stroke-linecap="round"/>
<path d="M25.9854 16.5589C25.9105 16.456 25.7461 16.2791 25.7461 16.1379C25.7461 15.8961 25.8786 15.8552 26.105 15.7923C26.3878 15.7138 26.6747 15.6596 26.9603 15.5796C27.144 15.5281 27.3377 15.4804 27.5209 15.5619C27.6402 15.6149 27.6789 15.7461 27.8289 15.7923C27.957 15.8317 28.1091 15.7437 28.179 15.9009C28.2389 16.0358 28.281 16.1695 28.2986 16.3196C28.3109 16.4239 28.4581 16.47 28.4581 16.5988" stroke="#DC6664" stroke-width="0.2" stroke-linecap="round"/>
<path d="M27.011 15.5293C27.1431 15.5261 27.2945 15.4194 27.3127 15.274C27.3253 15.1732 27.4447 15.1055 27.5268 15.0599C27.6732 14.9786 27.7894 14.9969 27.8414 14.8149C27.8656 14.7301 27.8698 14.6426 27.8698 14.5544" stroke="#DC6664" stroke-width="0.2" stroke-linecap="round"/>
<circle cx="24.4444" cy="24.4444" r="22.4444" stroke="black" stroke-width="4"/>
<circle cx="20.7778" cy="31.3703" r="13.7593" fill="url(#paint0_linear)" stroke="black"/>
<circle cx="81.8889" cy="31.3703" r="13.7593" fill="url(#paint1_linear)" stroke="black"/>
<circle cx="85.5555" cy="24.4444" r="22.4444" stroke="black" stroke-width="4"/>
<circle cx="20.3703" cy="31.778" r="6.51852" fill="black"/>
<circle cx="81.4817" cy="31.778" r="6.51852" fill="black"/>
<ellipse cx="19.5556" cy="38.296" rx="4.88889" ry="2.44444" fill="#F4F4F4" fill-opacity="0.3"/>
<ellipse cx="81.4814" cy="38.296" rx="4.88889" ry="2.44444" fill="#F4F4F4" fill-opacity="0.3"/>
<defs>
<linearGradient id="paint0_linear" x1="20.7778" y1="17.1111" x2="20.7778" y2="45.6296" gradientUnits="userSpaceOnUse">
<stop stop-color="#411D1F"/>
<stop offset="1" stop-color="#680E14"/>
</linearGradient>
<linearGradient id="paint1_linear" x1="81.8889" y1="17.1111" x2="81.8889" y2="45.6296" gradientUnits="userSpaceOnUse">
<stop stop-color="#411D1F"/>
<stop offset="1" stop-color="#680E14"/>
</linearGradient>
</defs>
</svg>
