<svg width="261" height="82" viewBox="0 0 261 82" fill="none" xmlns="http://www.w3.org/2000/svg">
<path d="M23.904 12.744L20.112 0.983999H16.68L12.912 12.696L9.792 0.983999H6.288L11.016 18H14.472L18.36 5.88L22.248 18H25.656L30.36 0.983999H26.976L23.904 12.744ZM43.2523 11.064C43.3243 9.768 44.1163 8.76 45.4603 8.76C46.9963 8.76 47.6443 9.792 47.6443 11.112V18H50.8363V10.56C50.8363 7.968 49.4443 5.88 46.4443 5.88C45.3163 5.88 44.0203 6.264 43.2523 7.176V0.623999H40.0603V18H43.2523V11.064ZM61.0559 14.784C61.0559 16.632 62.5919 18.336 65.1119 18.336C66.8639 18.336 67.9919 17.52 68.5919 16.584C68.5919 17.04 68.6399 17.688 68.7119 18H71.6399C71.5679 17.592 71.4959 16.752 71.4959 16.128V10.32C71.4959 7.944 70.1039 5.832 66.3599 5.832C63.1919 5.832 61.4879 7.872 61.2959 9.72L64.1279 10.32C64.2239 9.288 64.9919 8.4 66.3839 8.4C67.7279 8.4 68.3759 9.096 68.3759 9.936C68.3759 10.344 68.1599 10.68 67.4879 10.776L64.5839 11.208C62.6159 11.496 61.0559 12.672 61.0559 14.784ZM65.7839 15.96C64.7519 15.96 64.2479 15.288 64.2479 14.592C64.2479 13.68 64.8959 13.224 65.7119 13.104L68.3759 12.696V13.224C68.3759 15.312 67.1279 15.96 65.7839 15.96ZM86.2791 2.664H83.3991V4.32C83.3991 5.376 82.8231 6.192 81.5751 6.192H80.9751V9.024H83.1111V14.52C83.1111 16.8 84.5511 18.168 86.8551 18.168C87.7911 18.168 88.3671 18 88.6551 17.88V15.24C88.4871 15.288 88.0551 15.336 87.6711 15.336C86.7591 15.336 86.2791 15 86.2791 13.968V9.024H88.6551V6.192H86.2791V2.664ZM111.906 14.784C111.906 16.632 113.442 18.336 115.962 18.336C117.714 18.336 118.842 17.52 119.442 16.584C119.442 17.04 119.49 17.688 119.562 18H122.49C122.418 17.592 122.346 16.752 122.346 16.128V10.32C122.346 7.944 120.954 5.832 117.21 5.832C114.042 5.832 112.338 7.872 112.146 9.72L114.978 10.32C115.074 9.288 115.842 8.4 117.234 8.4C118.578 8.4 119.226 9.096 119.226 9.936C119.226 10.344 119.01 10.68 118.338 10.776L115.434 11.208C113.466 11.496 111.906 12.672 111.906 14.784ZM116.634 15.96C115.602 15.96 115.098 15.288 115.098 14.592C115.098 13.68 115.746 13.224 116.562 13.104L119.226 12.696V13.224C119.226 15.312 117.978 15.96 116.634 15.96ZM140.463 6.144C140.223 6.12 139.983 6.096 139.719 6.096C138.711 6.096 137.079 6.384 136.359 7.944V6.192H133.263V18H136.455V12.6C136.455 10.056 137.871 9.264 139.503 9.264C139.791 9.264 140.103 9.288 140.463 9.36V6.144ZM152.619 10.752C152.691 9.672 153.603 8.424 155.259 8.424C157.083 8.424 157.851 9.576 157.899 10.752H152.619ZM158.211 13.824C157.827 14.88 157.011 15.624 155.523 15.624C153.939 15.624 152.619 14.496 152.547 12.936H160.995C160.995 12.888 161.043 12.408 161.043 11.952C161.043 8.16 158.859 5.832 155.211 5.832C152.187 5.832 149.403 8.28 149.403 12.048C149.403 16.032 152.259 18.36 155.499 18.36C158.403 18.36 160.275 16.656 160.875 14.616L158.211 13.824ZM188.967 22.656L196.383 6.192H192.975L190.071 13.104L186.927 6.192H183.351L188.367 16.512L185.583 22.656H188.967ZM210.758 15.456C209.198 15.456 207.758 14.304 207.758 12.096C207.758 9.864 209.198 8.736 210.758 8.736C212.318 8.736 213.758 9.864 213.758 12.096C213.758 14.328 212.318 15.456 210.758 15.456ZM210.758 5.832C207.23 5.832 204.566 8.448 204.566 12.096C204.566 15.72 207.23 18.36 210.758 18.36C214.286 18.36 216.95 15.72 216.95 12.096C216.95 8.448 214.286 5.832 210.758 5.832ZM234.851 18H237.899C237.851 17.592 237.779 16.776 237.779 15.864V6.192H234.587V13.056C234.587 14.424 233.771 15.384 232.355 15.384C230.867 15.384 230.195 14.328 230.195 13.008V6.192H227.003V13.656C227.003 16.224 228.635 18.312 231.491 18.312C232.739 18.312 234.107 17.832 234.755 16.728C234.755 17.208 234.803 17.76 234.851 18Z" fill="#393939"/>
<path d="M19.26 74V69.248H7.884V48.476H2.916V74H19.26ZM134.112 56.288H127.848L121.728 62.876V47.936H116.94V74H121.728V69.32L123.708 67.232L128.388 74H134.256L127.02 63.74L134.112 56.288ZM141.538 74V56.288H136.75V74H141.538ZM136.174 50.492C136.174 52.076 137.506 53.408 139.126 53.408C140.782 53.408 142.078 52.076 142.078 50.492C142.078 48.836 140.782 47.504 139.126 47.504C137.506 47.504 136.174 48.836 136.174 50.492ZM151.152 63.812C151.152 61.76 152.376 60.14 154.464 60.14C156.768 60.14 157.74 61.688 157.74 63.668V74H162.528V62.84C162.528 58.952 160.512 55.82 156.12 55.82C154.212 55.82 152.088 56.648 151.008 58.484V56.288H146.364V74H151.152V63.812ZM165.827 74.972C166.331 78.356 169.571 81.38 174.431 81.38C181.091 81.38 183.719 76.952 183.719 72.092V56.288H179.111V58.376C178.499 57.188 176.879 55.964 174.071 55.964C169.211 55.964 165.827 59.924 165.827 64.604C165.827 69.572 169.355 73.208 174.071 73.208C176.627 73.208 178.283 72.092 179.003 70.94V72.236C179.003 75.656 177.311 77.168 174.287 77.168C172.019 77.168 170.471 75.764 170.147 73.82L165.827 74.972ZM174.899 69.104C172.415 69.104 170.651 67.376 170.651 64.604C170.651 61.868 172.523 60.14 174.899 60.14C177.203 60.14 179.075 61.868 179.075 64.604C179.075 67.34 177.347 69.104 174.899 69.104ZM205.07 51.896C205.862 51.896 206.33 52.004 206.582 52.076V48.044C206.186 47.864 205.214 47.684 204.206 47.684C200.282 47.684 197.762 50.276 197.762 54.272V56.288H194.81V60.392H197.762V74H202.586V60.392H206.582V56.288H202.586V54.344C202.586 52.364 203.99 51.896 205.07 51.896ZM216.964 70.184C214.624 70.184 212.464 68.456 212.464 65.144C212.464 61.796 214.624 60.104 216.964 60.104C219.304 60.104 221.464 61.796 221.464 65.144C221.464 68.492 219.304 70.184 216.964 70.184ZM216.964 55.748C211.672 55.748 207.676 59.672 207.676 65.144C207.676 70.58 211.672 74.54 216.964 74.54C222.256 74.54 226.252 70.58 226.252 65.144C226.252 59.672 222.256 55.748 216.964 55.748ZM240.531 56.216C240.171 56.18 239.811 56.144 239.415 56.144C237.903 56.144 235.455 56.576 234.375 58.916V56.288H229.731V74H234.519V65.9C234.519 62.084 236.643 60.896 239.091 60.896C239.523 60.896 239.991 60.932 240.531 61.04V56.216ZM252.549 66.224V66.008C252.549 64.532 253.233 63.416 254.493 62.516L255.969 61.472C258.093 59.96 259.533 57.944 259.533 55.1C259.533 51.464 256.617 47.936 251.037 47.936C245.709 47.936 242.793 51.68 242.793 55.568C242.793 56.108 242.829 56.684 242.973 57.188L247.509 57.368C247.401 57.044 247.365 56.648 247.365 56.216C247.365 54.2 248.481 52.148 251.037 52.148C253.449 52.148 254.637 53.732 254.637 55.388C254.637 56.468 254.169 57.44 253.089 58.232L251.361 59.528C249.309 61.076 248.517 62.84 248.517 64.748C248.517 65.288 248.589 65.756 248.661 66.224H252.549ZM247.833 71.444C247.833 73.028 249.093 74.288 250.677 74.288C252.261 74.288 253.557 73.028 253.557 71.444C253.557 69.86 252.261 68.564 250.677 68.564C249.093 68.564 247.833 69.86 247.833 71.444Z" fill="#393939"/>
<path d="M31.4236 47.317C31.5255 47.317 32.2644 47.2747 32.3211 47.4731C32.3585 47.6041 32.4368 47.7062 32.5496 47.7964C32.831 48.0216 33.256 48.0058 33.6088 48.0194C33.9799 48.0337 34.4319 48.2538 34.7348 48.4431C35.018 48.6201 34.9978 49.1473 35.1362 49.4242" stroke="#DC6664" stroke-width="0.2" stroke-linecap="round"/>
<path d="M54.9033 65.6794C55.5891 64.9937 56.0332 64.042 56.7596 63.4273C57.1687 63.0812 57.5695 63.0003 57.9191 62.5633C58.1525 62.2715 58.6686 61.8705 58.7163 61.4651C58.744 61.2292 59.0319 61.1641 59.218 61.1641" stroke="#DC6664" stroke-width="0.2" stroke-linecap="round"/>
<path d="M54.0002 49.2235C52.1164 49.1859 50.3628 49.0018 48.5818 49.8033C47.9127 50.1044 47.4468 50.3357 46.6753 50.2047C46.3994 50.1578 45.3665 49.6336 45.1702 50.0263" stroke="#DC6664" stroke-width="0.2" stroke-linecap="round"/>
<path d="M49.328 49.5532C49.1238 49.3985 48.9661 49.3526 48.7374 49.2646C48.5768 49.2028 48.3302 49.1014 48.24 48.9537C47.9455 48.4718 47.2206 48.5141 46.7302 48.5141" stroke="#DC6664" stroke-width="0.2" stroke-linecap="round"/>
<path d="M50.2873 49.3132C49.8488 49.3239 49.9701 49.5374 49.8388 49.8328C49.7338 50.0689 49.3933 50.2576 49.1683 50.3701C48.9285 50.49 48.6115 50.576 48.4889 50.8519C48.3784 51.1004 48.1557 51.2918 48.0093 51.5113" stroke="#DC6664" stroke-width="0.2" stroke-linecap="round"/>
<path d="M33.0035 48.0142C32.5867 48.1134 32.4098 48.4253 32.3694 48.8287C32.3335 49.1877 32.2174 49.5154 32.0111 49.8086C31.8138 50.0888 31.4293 50.3047 31.3143 50.6331C31.189 50.9912 31.1845 51.396 31.0637 51.7584" stroke="#DC6664" stroke-width="0.2" stroke-linecap="round"/>
<path d="M51.8318 75.3153C51.5204 74.498 51.3544 73.0014 51.89 72.2277C52.344 71.572 53.1642 70.6548 54.0455 70.6548" stroke="#DC6664" stroke-width="0.2" stroke-linecap="round"/>
<path d="M52.8759 71.0658C52.8759 70.7206 52.9202 70.3155 52.7683 69.9948C52.6733 69.7944 52.4164 69.7768 52.3149 69.5485C52.2304 69.3583 52.0344 69.1758 52.0344 68.962C52.0344 68.7126 52.0647 68.5872 52.3404 68.5413" stroke="#DC6664" stroke-width="0.2" stroke-linecap="round"/>
<path d="M58.6855 61.4289C58.5546 61.4289 58.3904 61.4026 58.2597 61.4316C58.1901 61.4471 58.161 61.5291 58.0843 61.5291C57.915 61.5291 57.8857 61.4271 57.7336 61.5792" stroke="#DC6664" stroke-width="0.2" stroke-linecap="round"/>
<path d="M58.2345 61.4289L58.0842 61.2285" stroke="#DC6664" stroke-width="0.2" stroke-linecap="round"/>
<path d="M56.6816 63.4326C56.6816 63.6976 56.7317 63.9272 56.7317 64.1841" stroke="#DC6664" stroke-width="0.2" stroke-linecap="round"/>
<path d="M55.8347 64.3832C55.6871 64.3803 55.4588 64.304 55.3645 64.4689C55.3398 64.5121 55.3068 64.5444 55.2851 64.5901C55.2665 64.6295 55.2505 64.7223 55.2141 64.7405" stroke="#DC6664" stroke-width="0.2" stroke-linecap="round"/>
<path d="M86.8485 44.49C86.8485 44.7135 86.811 44.8961 86.7356 45.1044C86.6867 45.2396 86.6614 45.3756 86.5952 45.5056C86.5139 45.6653 86.3705 45.7969 86.2492 45.9256C85.8356 46.3642 85.529 46.8718 85.206 47.3788C84.958 47.7681 84.7176 48.171 84.6481 48.6301C84.633 48.7297 84.6046 48.9093 84.6518 49.0037C84.7204 49.1408 84.9191 49.2145 85.043 49.2858C85.2658 49.4139 85.5276 49.4099 85.7777 49.4099C86.1555 49.4099 86.5334 49.4077 86.9112 49.4099C87.4579 49.4132 87.9776 49.6712 88.2013 50.1885C88.3065 50.4317 88.2703 50.708 88.2703 50.9671" stroke="#DC6664" stroke-width="0.2" stroke-linecap="round"/>
<path d="M87.4902 49.5061C87.4902 49.3374 87.4902 49.1687 87.4902 49C87.4902 48.8552 87.4554 48.6683 87.546 48.5441C87.7799 48.2232 88.23 48.1682 88.5849 48.0859C89.0311 47.9824 89.4967 47.7746 89.4967 47.2588" stroke="#DC6664" stroke-width="0.2" stroke-linecap="round"/>
<path d="M88.654 48.0412C88.3419 47.9149 87.8849 47.81 87.5794 47.981C87.5161 48.0165 87.2378 48.1454 87.1781 48.0803C87.1203 48.0172 87.0367 47.961 86.9485 47.961" stroke="#DC6664" stroke-width="0.2" stroke-linecap="round"/>
<path d="M85.3411 49.4038C85.532 49.4038 85.6857 49.5497 85.8338 49.6566C85.8779 49.6884 85.9356 49.7323 85.9672 49.7772C85.9831 49.7998 86.0037 49.8334 86.0298 49.8421" stroke="#DC6664" stroke-width="0.2" stroke-linecap="round"/>
<path d="M108.804 56.7066C108.426 56.7066 108.048 56.7066 107.67 56.7066C106.998 56.7066 106.426 56.3663 105.926 55.9497C105.544 55.6323 105.447 55.0989 104.918 54.9588C104.598 54.8742 104.093 54.7897 103.784 54.9439" stroke="#DC6664" stroke-width="0.2" stroke-linecap="round"/>
<path d="M109.072 58.051C108.903 58.051 108.734 58.051 108.565 58.051C108.352 58.051 108.241 58.1465 108.103 58.3066C107.94 58.4959 107.868 58.7322 107.786 58.9623C107.68 59.2606 107.551 59.5723 107.526 59.8901C107.468 60.6018 107.543 61.3134 106.998 61.8586C106.83 62.0263 106.677 62.0544 106.443 62.0544C106.351 62.0544 106.106 62.0959 106.055 61.9947" stroke="#DC6664" stroke-width="0.2" stroke-linecap="round"/>
<path d="M107.609 59.3658C107.439 59.1215 107.105 58.7925 106.819 58.6852C106.41 58.532 105.902 58.6132 105.554 58.3201C105.276 58.0863 104.95 57.6605 104.95 57.2744" stroke="#DC6664" stroke-width="0.2" stroke-linecap="round"/>
<path d="M105.696 55.7208C105.696 55.6331 105.653 55.5117 105.763 55.5117C105.899 55.5117 106.035 55.5117 106.171 55.5117C106.244 55.5117 106.293 55.4501 106.374 55.4519C106.446 55.4535 106.674 55.6059 106.725 55.5548C106.817 55.4629 106.877 55.3311 107.028 55.4818C107.103 55.5575 107.19 55.6645 107.19 55.7806" stroke="#DC6664" stroke-width="0.2" stroke-linecap="round"/>
<path d="M107.187 69.2009C106.829 69.2009 105.689 69.0048 105.456 69.4049C105.235 69.7831 105.204 70.4094 105.108 70.8383C104.951 71.5462 104.64 71.9171 104.011 72.2001C103.846 72.2746 103.616 72.331 103.493 72.4538C103.36 72.5867 103.28 72.792 103.118 72.8728" stroke="#DC6664" stroke-width="0.2" stroke-linecap="round"/>
<path d="M105.127 70.362C105.027 70.362 104.927 70.3548 104.829 70.3809C104.713 70.4119 104.661 70.5219 104.598 70.6121C104.523 70.7209 104.447 70.836 104.328 70.902C104.206 70.9699 104.055 70.9797 103.924 71.0226C103.804 71.0616 103.738 71.148 103.64 71.2207C103.517 71.3123 103.4 71.3342 103.247 71.3224C103.188 71.3179 102.998 71.2542 102.948 71.3088C102.876 71.3878 102.894 71.5397 102.853 71.636" stroke="#DC6664" stroke-width="0.2" stroke-linecap="round"/>
<path d="M104.825 70.3807C104.743 70.3807 104.66 70.3807 104.578 70.3807C104.467 70.3807 104.323 70.383 104.224 70.4373C104.132 70.4872 104.046 70.5438 103.952 70.5883C103.869 70.6274 103.806 70.5963 103.731 70.5579C103.62 70.5013 103.505 70.523 103.448 70.3828C103.437 70.3565 103.441 70.3299 103.427 70.3052C103.408 70.2741 103.343 70.3105 103.325 70.3241" stroke="#DC6664" stroke-width="0.2" stroke-linecap="round"/>
<path d="M89.762 55.0616C89.8622 54.6406 90.318 54.2979 90.695 54.1304C90.8897 54.0438 91.0961 53.9785 91.3096 53.9638C91.5225 53.9491 91.7527 53.9964 91.9613 53.9471C92.3236 53.8615 92.586 53.591 92.711 53.2436C92.8165 52.9508 92.7202 52.5902 92.8943 52.3291" stroke="#DC6664" stroke-width="0.2" stroke-linecap="round"/>
<path d="M92.7275 53.0956C93.0438 53.0956 93.2513 53.1129 93.5458 53.2622C93.8344 53.4085 94.3082 53.7519 94.6603 53.5806C94.8823 53.4726 94.9874 53.1352 95.0935 52.929C95.2073 52.7075 95.484 52.7624 95.6933 52.7624" stroke="#DC6664" stroke-width="0.2" stroke-linecap="round"/>
<path d="M45.2838 56.8651C45.279 56.615 45.2618 56.4841 45.088 56.3103C44.9151 56.1374 44.7266 56.0018 44.5333 55.8535C44.1094 55.5283 43.6907 55.1561 43.3658 54.7331C42.9759 54.2257 42.6202 53.6748 42.608 53.0145C42.6034 52.7665 42.7779 52.5903 43.0322 52.5903" stroke="#DC6664" stroke-width="0.2" stroke-linecap="round"/>
<path d="M43.2607 54.5482C43.1995 54.4639 43.0649 54.3192 43.0649 54.2037C43.0649 54.0059 43.1733 53.9724 43.3586 53.9209C43.59 53.8566 43.8247 53.8123 44.0584 53.7469C44.2087 53.7048 44.3671 53.6657 44.517 53.7324C44.6147 53.7757 44.6463 53.8831 44.769 53.9209C44.8739 53.9532 44.9983 53.8811 45.0555 54.0097C45.1045 54.1201 45.1389 54.2296 45.1534 54.3524C45.1634 54.4376 45.2839 54.4754 45.2839 54.5808" stroke="#DC6664" stroke-width="0.2" stroke-linecap="round"/>
<path d="M44.0999 53.7058C44.2079 53.7032 44.3319 53.6159 44.3467 53.4969C44.357 53.4145 44.4547 53.3591 44.5219 53.3218C44.6417 53.2552 44.7367 53.2702 44.7793 53.1213C44.7991 53.0519 44.8025 52.9804 44.8025 52.9082" stroke="#DC6664" stroke-width="0.2" stroke-linecap="round"/>
<circle cx="42" cy="61" r="18" stroke="black" stroke-width="4"/>
<circle cx="38.9999" cy="66.6667" r="11.1667" fill="url(#paint0_linear)" stroke="black"/>
<circle cx="88.9999" cy="66.6667" r="11.1667" fill="url(#paint1_linear)" stroke="black"/>
<circle cx="92" cy="61" r="18" stroke="black" stroke-width="4"/>
<circle cx="38.6666" cy="67.0001" r="5.33333" fill="black"/>
<circle cx="88.6666" cy="67.0001" r="5.33333" fill="black"/>
<ellipse cx="38" cy="72.3333" rx="4" ry="2" fill="#F4F4F4" fill-opacity="0.3"/>
<ellipse cx="88.6667" cy="72.3333" rx="4" ry="2" fill="#F4F4F4" fill-opacity="0.3"/>
<defs>
<linearGradient id="paint0_linear" x1="38.9999" y1="55" x2="38.9999" y2="78.3333" gradientUnits="userSpaceOnUse">
<stop stop-color="#411D1F"/>
<stop offset="1" stop-color="#680E14"/>
</linearGradient>
<linearGradient id="paint1_linear" x1="88.9999" y1="55" x2="88.9999" y2="78.3333" gradientUnits="userSpaceOnUse">
<stop stop-color="#411D1F"/>
<stop offset="1" stop-color="#680E14"/>
</linearGradient>
</defs>
</svg>
