<svg width="188" height="144" viewBox="0 0 188 144" fill="none" xmlns="http://www.w3.org/2000/svg">
<path d="M155.84 41.5403L93.8281 26.6113V143.437L155.84 127.212V41.5403Z" fill="#00A698" fill-opacity="0.75"/>
<path opacity="0.1" d="M155.84 41.5403L93.8281 26.6113V143.437L155.84 127.212V41.5403Z" fill="white" fill-opacity="0.4"/>
<path d="M31.8164 41.5403L93.8284 26.6113V143.437L31.8164 127.536V41.5403Z" fill="#00A698" fill-opacity="0.75"/>
<path opacity="0.17" d="M31.8164 41.0218L93.8284 26.0957V143.436L31.8164 127.536V41.0218Z" fill="white" fill-opacity="0.4"/>
<path d="M93.3086 27.1285L125.97 0L187.979 15.9032L155.321 42.0546L93.3086 27.1285Z" fill="#00A698" fill-opacity="0.75"/>
<path d="M0.515625 16.7426L32.3338 42.0543L94.3429 27.1282L62.8525 0.517578L0.515625 16.7426Z" fill="#00A698" fill-opacity="0.75"/>
<path opacity="0.05" d="M0 16.2279L32.5909 42.0546L94.6029 27.1285L62.334 0L0 16.2279Z" fill="white" fill-opacity="0.4"/>
<path d="M31.8164 41.54V127.536L93.8284 143.436L94.6655 58.0898L31.8164 41.54Z" fill="#00A698" fill-opacity="0.75"/>
<path d="M155.84 127.211L93.8281 143.436V58.0898L155.84 41.54V127.211Z" fill="#00A698" fill-opacity="0.75"/>
<path opacity="0.07" d="M155.84 127.211L93.8281 143.436V58.0898L155.84 41.54V127.211Z" fill="white" fill-opacity="0.4"/>
<path opacity="0.07" d="M131.162 98.6514V126.886L155.839 120.069V91.8379L131.162 98.6514Z" fill="white" fill-opacity="0.4"/>
<path opacity="0.1" d="M31.0039 86.16L65.7432 94.9219L93.6657 72.2052V58.2504L31.6537 42.6748L31.0039 86.16Z" fill="white" fill-opacity="0.4"/>
<path opacity="0.1" d="M156.325 86.16L121.586 94.9219L93.666 72.2052V58.2504L155.675 42.6748L156.325 86.16Z" fill="white" fill-opacity="0.4"/>
<path d="M31.8153 41.54L0 67.8259L62.0091 83.4015L93.8273 58.0898L31.8153 41.54Z" fill="#00A698" fill-opacity="0.75"/>
<path d="M155.84 41.54L187.98 67.8259L126.293 83.4015L93.8281 58.0898L155.84 41.54Z" fill="#00A698" fill-opacity="0.75"/>
<path opacity="0.07" d="M155.84 41.54L187.98 67.8259L126.293 83.4015L93.8281 58.0898L155.84 41.54Z" fill="white" fill-opacity="0.4"/>
</svg>
