<svg width="200" height="200" viewBox="0 0 200 200" fill="none" xmlns="http://www.w3.org/2000/svg">
<g clip-path="url(#clip0)">
<path d="M100 0C44.772 0 0 44.774 0 100C0 155.23 44.772 200 100 200C155.226 200 200 155.23 200 100C200 44.774 155.226 0 100 0Z" fill="#EDEDED"/>
<path d="M38.0078 59.9702H162.05V159.922H38.1318L38.0078 59.9702Z" fill="#D07C40"/>
<path d="M168.006 84.0302C168.006 84.0802 32.1181 83.9902 31.9901 84.0302V159.868C31.9921 159.876 31.9761 165.866 31.9541 173.254C49.8041 189.84 73.7101 200 100 200C126.244 200 150.114 189.878 167.954 173.344C167.892 165.926 167.84 159.898 167.844 159.896C167.844 128.44 168.006 84.0302 168.006 84.0302ZM150.042 68.0182V81.0602L162.05 78.7202V59.9702L150.042 68.0182ZM50.0201 80.0462V68.0182L38.0081 59.9702V79.9382L50.0201 80.0462Z" fill="#EFC75E"/>
<path d="M50.0202 84.0301V68.0181L31.9902 84.0301H50.0202ZM150.042 68.0181V84.0301H168.004L150.042 68.0181Z" fill="#DBA250"/>
<path d="M142.128 115.116C142.128 113.44 140.68 111.944 139.004 111.944C137.328 111.944 135.706 113.44 135.706 115.116C135.698 135.432 120.424 151.902 100.106 151.902C79.7859 151.902 64.1139 135.436 64.1039 115.116C64.1039 113.44 62.6839 111.944 61.0059 111.944C59.3279 111.944 57.6919 113.44 57.6919 115.116C57.6919 138.988 76.2419 158.332 100.11 158.332C123.976 158.332 142.128 138.984 142.128 115.116Z" fill="#CBA950"/>
<path d="M60.9439 105.976C58.2039 105.976 55.9839 108.196 55.9839 110.936C55.9839 113.674 58.2039 115.894 60.9439 115.894C63.6839 115.894 65.9679 113.674 65.9679 110.936C65.9659 108.2 63.6819 105.976 60.9439 105.976ZM138.946 105.976C136.204 105.976 133.986 108.196 133.986 110.936C133.986 113.674 136.204 115.894 138.946 115.894C141.684 115.894 143.97 113.674 143.97 110.936C143.964 108.2 141.682 105.976 138.946 105.976Z" fill="#D07C40"/>
<path d="M142.128 113.116C142.128 111.44 140.68 109.944 139.004 109.944C137.328 109.944 135.706 111.44 135.706 113.116C135.698 133.432 120.424 149.902 100.106 149.902C79.7859 149.902 64.1139 133.436 64.1039 113.116C64.1039 111.44 62.6839 109.944 61.0059 109.944C59.3279 109.944 57.6919 111.44 57.6919 113.116C57.6919 136.988 76.2419 156.332 100.11 156.332C123.976 156.332 142.128 136.984 142.128 113.116Z" fill="white"/>
</g>
<defs>
<clipPath id="clip0">
<rect width="200" height="200" fill="white"/>
</clipPath>
</defs>
</svg>
