<svg width="90" height="72" viewBox="0 0 90 72" fill="none" xmlns="http://www.w3.org/2000/svg">
<path d="M59 63V63C59 74.0709 29 74.0709 29 63V63C29 54.7157 35.7157 48 44 48C52.2843 48 59 54.7157 59 63Z" fill="#F4F4F4"/>
<path d="M9.42358 6.31678C9.52551 6.31678 10.2644 6.27442 10.3211 6.47287C10.3585 6.60385 10.4368 6.70595 10.5496 6.79619C10.831 7.02131 11.256 7.0056 11.6088 7.01917C11.9799 7.03344 12.4319 7.25353 12.7348 7.44283C13.018 7.61981 12.9978 8.1471 13.1362 8.42394" stroke="#DC6664" stroke-width="0.2" stroke-linecap="round"/>
<path d="M32.9033 24.6794C33.5891 23.9937 34.0332 23.042 34.7596 22.4273C35.1687 22.0812 35.5695 22.0003 35.9191 21.5633C36.1525 21.2715 36.6686 20.8705 36.7163 20.4651C36.744 20.2292 37.0319 20.1641 37.218 20.1641" stroke="#DC6664" stroke-width="0.2" stroke-linecap="round"/>
<path d="M32.0002 8.22354C30.1164 8.18587 28.3628 8.00181 26.5818 8.80329C25.9127 9.10436 25.4468 9.33567 24.6753 9.20465C24.3994 9.1578 23.3665 8.63362 23.1702 9.02627" stroke="#DC6664" stroke-width="0.2" stroke-linecap="round"/>
<path d="M27.328 8.55322C27.1238 8.39855 26.9661 8.35257 26.7374 8.26458C26.5768 8.20283 26.3302 8.10138 26.24 7.95374C25.9455 7.47184 25.2206 7.51413 24.7302 7.51413" stroke="#DC6664" stroke-width="0.2" stroke-linecap="round"/>
<path d="M28.2873 8.31348C27.8488 8.32417 27.9701 8.53761 27.8388 8.83302C27.7338 9.06919 27.3933 9.2578 27.1683 9.37033C26.9285 9.49022 26.6115 9.57629 26.4889 9.85214C26.3784 10.1006 26.1557 10.292 26.0093 10.5116" stroke="#DC6664" stroke-width="0.2" stroke-linecap="round"/>
<path d="M11.0035 7.01416C10.5867 7.1134 10.4098 7.42529 10.3694 7.82867C10.3335 8.18766 10.2174 8.51543 10.0111 8.80859C9.81385 9.08885 9.42928 9.30472 9.31434 9.63313C9.18903 9.99115 9.18451 10.396 9.06372 10.7584" stroke="#DC6664" stroke-width="0.2" stroke-linecap="round"/>
<path d="M29.8318 34.3153C29.5204 33.498 29.3544 32.0014 29.89 31.2277C30.344 30.572 31.1642 29.6548 32.0455 29.6548" stroke="#DC6664" stroke-width="0.2" stroke-linecap="round"/>
<path d="M30.8759 30.066C30.8759 29.7208 30.9202 29.3158 30.7683 28.995C30.6733 28.7946 30.4164 28.777 30.3149 28.5488C30.2304 28.3586 30.0344 28.1761 30.0344 27.9623C30.0344 27.7128 30.0647 27.5875 30.3404 27.5415" stroke="#DC6664" stroke-width="0.2" stroke-linecap="round"/>
<path d="M36.6855 20.4289C36.5546 20.4289 36.3904 20.4026 36.2597 20.4316C36.1901 20.4471 36.161 20.5291 36.0843 20.5291C35.915 20.5291 35.8857 20.4271 35.7336 20.5792" stroke="#DC6664" stroke-width="0.2" stroke-linecap="round"/>
<path d="M36.2345 20.4289L36.0842 20.2285" stroke="#DC6664" stroke-width="0.2" stroke-linecap="round"/>
<path d="M34.6816 22.4326C34.6816 22.6976 34.7317 22.9272 34.7317 23.1841" stroke="#DC6664" stroke-width="0.2" stroke-linecap="round"/>
<path d="M33.8347 23.3834C33.6871 23.3805 33.4588 23.3042 33.3645 23.4691C33.3398 23.5124 33.3068 23.5447 33.2851 23.5903C33.2665 23.6298 33.2505 23.7225 33.2141 23.7407" stroke="#DC6664" stroke-width="0.2" stroke-linecap="round"/>
<path d="M64.8485 3.49023C64.8485 3.71376 64.811 3.89634 64.7356 4.1046C64.6867 4.23984 64.6614 4.37586 64.5952 4.50582C64.5139 4.66557 64.3705 4.7971 64.2492 4.92584C63.8356 5.36445 63.529 5.87202 63.206 6.379C62.958 6.76834 62.7176 7.17128 62.6481 7.63029C62.633 7.72994 62.6046 7.9095 62.6518 8.00393C62.7204 8.14102 62.9191 8.21478 63.043 8.28603C63.2658 8.41414 63.5276 8.41016 63.7777 8.41016C64.1555 8.41016 64.5334 8.40792 64.9112 8.41016C65.4579 8.4134 65.9776 8.67149 66.2013 9.18877C66.3065 9.4319 66.2703 9.70824 66.2703 9.96738" stroke="#DC6664" stroke-width="0.2" stroke-linecap="round"/>
<path d="M65.4902 8.50606C65.4902 8.33737 65.4902 8.16867 65.4902 7.99998C65.4902 7.85521 65.4554 7.66832 65.546 7.54406C65.7799 7.2232 66.23 7.16824 66.5849 7.08591C67.0311 6.98241 67.4967 6.7746 67.4967 6.25879" stroke="#DC6664" stroke-width="0.2" stroke-linecap="round"/>
<path d="M66.654 7.04124C66.3419 6.91493 65.8849 6.80996 65.5794 6.98104C65.5161 7.01651 65.2378 7.14538 65.1781 7.08025C65.1203 7.01722 65.0367 6.96098 64.9485 6.96098" stroke="#DC6664" stroke-width="0.2" stroke-linecap="round"/>
<path d="M63.3411 8.40381C63.532 8.40381 63.6857 8.54973 63.8338 8.65658C63.8779 8.68836 63.9356 8.7323 63.9672 8.77716C63.9831 8.79976 64.0037 8.8334 64.0298 8.84209" stroke="#DC6664" stroke-width="0.2" stroke-linecap="round"/>
<path d="M86.8036 15.7068C86.4258 15.7068 86.0479 15.7068 85.67 15.7068C84.9976 15.7068 84.4264 15.3665 83.9256 14.95C83.5439 14.6326 83.4472 14.0991 82.9181 13.9591C82.5981 13.8744 82.0928 13.79 81.7844 13.9441" stroke="#DC6664" stroke-width="0.2" stroke-linecap="round"/>
<path d="M87.0724 17.0513C86.9031 17.0513 86.7338 17.0513 86.5645 17.0513C86.3522 17.0513 86.2412 17.1467 86.1031 17.3069C85.9399 17.4962 85.8679 17.7324 85.7861 17.9625C85.68 18.2609 85.5511 18.5726 85.5255 18.8903C85.4681 19.6021 85.5429 20.3136 84.9977 20.8588C84.83 21.0266 84.6771 21.0547 84.4433 21.0547C84.3506 21.0547 84.1055 21.0962 84.0549 20.9949" stroke="#DC6664" stroke-width="0.2" stroke-linecap="round"/>
<path d="M85.6087 18.3658C85.4392 18.1215 85.1047 17.7925 84.8186 17.6852C84.41 17.532 83.9023 17.6132 83.5539 17.3201C83.2759 17.0863 82.9497 16.6605 82.9497 16.2744" stroke="#DC6664" stroke-width="0.2" stroke-linecap="round"/>
<path d="M83.6964 14.7206C83.6964 14.6328 83.6531 14.5114 83.7628 14.5114C83.8989 14.5114 84.035 14.5114 84.1711 14.5114C84.2442 14.5114 84.2928 14.4499 84.3736 14.4517C84.4461 14.4533 84.6744 14.6056 84.7255 14.5546C84.8174 14.4627 84.8769 14.3309 85.0276 14.4816C85.1032 14.5572 85.1902 14.6643 85.1902 14.7803" stroke="#DC6664" stroke-width="0.2" stroke-linecap="round"/>
<path d="M85.187 28.2009C84.8291 28.2009 83.6892 28.0048 83.4558 28.4049C83.2352 28.7831 83.2038 29.4094 83.1085 29.8383C82.9512 30.5462 82.6403 30.9171 82.0113 31.2001C81.8459 31.2746 81.6159 31.331 81.4931 31.4538C81.3601 31.5867 81.2796 31.792 81.1182 31.8728" stroke="#DC6664" stroke-width="0.2" stroke-linecap="round"/>
<path d="M83.1272 29.3618C83.0271 29.3618 82.9271 29.3545 82.8295 29.3806C82.7134 29.4117 82.6608 29.5217 82.5983 29.6118C82.5227 29.7207 82.4471 29.8357 82.3283 29.9017C82.206 29.9697 82.0553 29.9794 81.9236 30.0223C81.8037 30.0614 81.7382 30.1477 81.6405 30.2205C81.5174 30.312 81.3999 30.3339 81.2473 30.3222C81.1883 30.3177 80.9976 30.254 80.9479 30.3086C80.8761 30.3876 80.8943 30.5394 80.853 30.6357" stroke="#DC6664" stroke-width="0.2" stroke-linecap="round"/>
<path d="M82.8254 29.3807C82.7429 29.3807 82.6604 29.3807 82.5779 29.3807C82.4672 29.3807 82.3229 29.383 82.2235 29.4373C82.1323 29.4872 82.0463 29.5438 81.952 29.5883C81.8691 29.6274 81.8061 29.5963 81.7307 29.5579C81.6196 29.5013 81.505 29.523 81.4476 29.3828C81.4369 29.3565 81.4412 29.3299 81.4267 29.3052C81.4083 29.2741 81.343 29.3105 81.325 29.3241" stroke="#DC6664" stroke-width="0.2" stroke-linecap="round"/>
<path d="M67.762 14.0616C67.8622 13.6406 68.318 13.2979 68.695 13.1304C68.8897 13.0438 69.0961 12.9785 69.3096 12.9638C69.5225 12.9491 69.7527 12.9964 69.9613 12.9471C70.3236 12.8615 70.586 12.591 70.711 12.2436C70.8165 11.9508 70.7202 11.5902 70.8943 11.3291" stroke="#DC6664" stroke-width="0.2" stroke-linecap="round"/>
<path d="M70.7275 12.0956C71.0438 12.0956 71.2513 12.1129 71.5458 12.2622C71.8344 12.4085 72.3082 12.7519 72.6603 12.5806C72.8823 12.4726 72.9874 12.1352 73.0935 11.929C73.2073 11.7075 73.484 11.7624 73.6933 11.7624" stroke="#DC6664" stroke-width="0.2" stroke-linecap="round"/>
<path d="M23.2838 15.8651C23.279 15.615 23.2618 15.4841 23.088 15.3103C22.9151 15.1374 22.7266 15.0018 22.5333 14.8535C22.1094 14.5283 21.6907 14.1561 21.3658 13.7331C20.9759 13.2257 20.6202 12.6748 20.608 12.0145C20.6034 11.7665 20.7779 11.5903 21.0322 11.5903" stroke="#DC6664" stroke-width="0.2" stroke-linecap="round"/>
<path d="M21.2607 13.5479C21.1995 13.4637 21.0649 13.3189 21.0649 13.2035C21.0649 13.0056 21.1733 12.9721 21.3586 12.9207C21.59 12.8564 21.8247 12.8121 22.0584 12.7466C22.2087 12.7045 22.3671 12.6655 22.517 12.7321C22.6147 12.7755 22.6463 12.8829 22.769 12.9207C22.8739 12.9529 22.9983 12.8809 23.0555 13.0095C23.1045 13.1199 23.1389 13.2293 23.1534 13.3521C23.1634 13.4374 23.2839 13.4752 23.2839 13.5805" stroke="#DC6664" stroke-width="0.2" stroke-linecap="round"/>
<path d="M22.0999 12.7058C22.2079 12.7032 22.3319 12.6159 22.3467 12.4969C22.357 12.4145 22.4547 12.3591 22.5219 12.3218C22.6417 12.2552 22.7367 12.2702 22.7793 12.1213C22.7991 12.0519 22.8025 11.9804 22.8025 11.9082" stroke="#DC6664" stroke-width="0.2" stroke-linecap="round"/>
<circle cx="20" cy="20" r="18" stroke="black" stroke-width="4"/>
<circle cx="16.9999" cy="25.6667" r="11.1667" fill="url(#paint0_linear)" stroke="black"/>
<circle cx="66.9999" cy="25.6667" r="11.1667" fill="url(#paint1_linear)" stroke="black"/>
<circle cx="70" cy="20" r="18" stroke="black" stroke-width="4"/>
<circle cx="16.6666" cy="25.9998" r="5.33333" fill="black"/>
<circle cx="66.6666" cy="25.9998" r="5.33333" fill="black"/>
<ellipse cx="16" cy="31.3335" rx="4" ry="2" fill="#F4F4F4" fill-opacity="0.3"/>
<ellipse cx="66.6667" cy="31.3335" rx="4" ry="2" fill="#F4F4F4" fill-opacity="0.3"/>
<defs>
<linearGradient id="paint0_linear" x1="16.9999" y1="14" x2="16.9999" y2="37.3333" gradientUnits="userSpaceOnUse">
<stop stop-color="#411D1F"/>
<stop offset="1" stop-color="#680E14"/>
</linearGradient>
<linearGradient id="paint1_linear" x1="66.9999" y1="14" x2="66.9999" y2="37.3333" gradientUnits="userSpaceOnUse">
<stop stop-color="#411D1F"/>
<stop offset="1" stop-color="#680E14"/>
</linearGradient>
</defs>
</svg>
