<svg width="200" height="200" viewBox="0 0 200 200" fill="none" xmlns="http://www.w3.org/2000/svg">
<path d="M150.898 185.898H49.1016C45.0391 185.898 41.7578 182.617 41.7578 178.555V39.8438C41.7578 35.7813 45.0391 32.5 49.1016 32.5H150.898C154.961 32.5 158.242 35.7813 158.242 39.8438V178.516C158.242 182.578 154.961 185.898 150.898 185.898Z" fill="#E7D0A9"/>
<path d="M52.2266 185.898H48.75C44.6875 185.898 41.4062 182.617 41.4062 178.555V39.8438C41.4062 35.7813 44.6875 32.5 48.75 32.5H52.2266V185.898Z" fill="white"/>
<path d="M141.328 185.898H55.5859C51.5234 185.898 48.2422 182.617 48.2422 178.555V39.8438C48.2422 35.7813 51.5234 32.5 55.5859 32.5H141.328C145.391 32.5 148.672 35.7813 148.672 39.8438V178.516C148.672 182.578 145.391 185.898 141.328 185.898Z" fill="#FFE4B8"/>
<path d="M147.031 41.9922H52.2266V175.195H147.031V41.9922Z" fill="white"/>
<path d="M168.477 133.633C166.25 133.633 164.453 131.836 164.453 129.609C164.453 127.383 166.25 125.586 168.477 125.586C170.703 125.586 172.5 127.383 172.5 129.609C172.5 131.836 170.703 133.633 168.477 133.633ZM168.477 128.32C167.773 128.32 167.187 128.906 167.187 129.609C167.187 130.312 167.773 130.898 168.477 130.898C169.18 130.898 169.766 130.312 169.766 129.609C169.766 128.906 169.18 128.32 168.477 128.32Z" fill="#F16723"/>
<path d="M158.242 16.1328C158.695 16.1328 159.062 15.7655 159.062 15.3125C159.062 14.8595 158.695 14.4922 158.242 14.4922C157.789 14.4922 157.422 14.8595 157.422 15.3125C157.422 15.7655 157.789 16.1328 158.242 16.1328Z" fill="black"/>
<path d="M177.383 173.32C177.836 173.32 178.203 172.953 178.203 172.5C178.203 172.047 177.836 171.68 177.383 171.68C176.93 171.68 176.562 172.047 176.562 172.5C176.562 172.953 176.93 173.32 177.383 173.32Z" fill="black"/>
<path d="M166.641 93.7891C167.094 93.7891 167.461 93.4218 167.461 92.9688C167.461 92.5157 167.094 92.1484 166.641 92.1484C166.188 92.1484 165.82 92.5157 165.82 92.9688C165.82 93.4218 166.188 93.7891 166.641 93.7891Z" fill="black"/>
<path d="M18.0078 112.969C18.4609 112.969 18.8281 112.601 18.8281 112.148C18.8281 111.695 18.4609 111.328 18.0078 111.328C17.5548 111.328 17.1875 111.695 17.1875 112.148C17.1875 112.601 17.5548 112.969 18.0078 112.969Z" fill="black"/>
<path d="M48.2422 22.5781C48.6952 22.5781 49.0625 22.2109 49.0625 21.7578C49.0625 21.3048 48.6952 20.9375 48.2422 20.9375C47.7891 20.9375 47.4219 21.3048 47.4219 21.7578C47.4219 22.2109 47.7891 22.5781 48.2422 22.5781Z" fill="black"/>
<path d="M31.0938 158.32H29.7266V156.953C29.7266 156.211 29.1016 155.586 28.3594 155.586C27.6172 155.586 26.9922 156.211 26.9922 156.953V158.32H25.625C24.8828 158.32 24.2578 158.945 24.2578 159.688C24.2578 160.43 24.8828 161.055 25.625 161.055H26.9922V162.422C26.9922 163.164 27.6172 163.789 28.3594 163.789C29.1016 163.789 29.7266 163.164 29.7266 162.422V161.055H31.0938C31.8359 161.055 32.4609 160.43 32.4609 159.688C32.4609 158.945 31.8359 158.32 31.0938 158.32Z" fill="#F16723"/>
<path d="M148.672 23.7891C149.341 23.7891 149.883 23.2469 149.883 22.5781C149.883 21.9093 149.341 21.3672 148.672 21.3672C148.003 21.3672 147.461 21.9093 147.461 22.5781C147.461 23.2469 148.003 23.7891 148.672 23.7891Z" fill="black"/>
<path d="M28.6328 105.82C29.3016 105.82 29.8438 105.278 29.8438 104.609C29.8438 103.941 29.3016 103.398 28.6328 103.398C27.964 103.398 27.4219 103.941 27.4219 104.609C27.4219 105.278 27.964 105.82 28.6328 105.82Z" fill="black"/>
<path d="M173.008 88.0078C173.677 88.0078 174.219 87.4657 174.219 86.7969C174.219 86.1281 173.677 85.5859 173.008 85.5859C172.339 85.5859 171.797 86.1281 171.797 86.7969C171.797 87.4657 172.339 88.0078 173.008 88.0078Z" fill="black"/>
<path d="M165.82 149.961C166.489 149.961 167.031 149.419 167.031 148.75C167.031 148.081 166.489 147.539 165.82 147.539C165.152 147.539 164.609 148.081 164.609 148.75C164.609 149.419 165.152 149.961 165.82 149.961Z" fill="black"/>
<path d="M26.5625 41.8359C23.9844 41.8359 21.9141 39.7656 21.9141 37.1875C21.9141 34.6094 23.9844 32.5391 26.5625 32.5391C29.1406 32.5391 31.2109 34.6094 31.2109 37.1875C31.2109 39.7656 29.1406 41.8359 26.5625 41.8359ZM26.5625 35.2734C25.5078 35.2734 24.6484 36.1328 24.6484 37.1875C24.6484 38.2422 25.5078 39.1016 26.5625 39.1016C27.6172 39.1016 28.4766 38.2422 28.4766 37.1875C28.4766 36.1328 27.6172 35.2734 26.5625 35.2734Z" fill="#FBD20A"/>
<path d="M41.4062 136.016C40.1172 136.016 39.0625 134.961 39.0625 133.672V103.516C39.0625 102.227 40.1172 101.172 41.4062 101.172C42.6953 101.172 43.75 102.227 43.75 103.516V133.672C43.75 134.961 42.6953 136.016 41.4062 136.016Z" fill="black"/>
<path d="M150.547 188.242H48.75C43.3984 188.242 39.0625 183.906 39.0625 178.555V139.57C39.0625 138.281 40.1172 137.227 41.4062 137.227C42.6953 137.227 43.75 138.281 43.75 139.57V178.555C43.75 181.328 45.9766 183.555 48.75 183.555H150.547C153.32 183.555 155.547 181.328 155.547 178.555V91.5234C155.547 90.2344 156.602 89.1797 157.891 89.1797C159.18 89.1797 160.234 90.2344 160.234 91.5234V178.555C160.234 183.906 155.898 188.242 150.547 188.242Z" fill="black"/>
<path d="M157.891 87.9688C156.602 87.9688 155.547 86.9141 155.547 85.625V79.0625C155.547 77.7734 156.602 76.7188 157.891 76.7188C159.18 76.7188 160.234 77.7734 160.234 79.0625V85.625C160.234 86.9141 159.18 87.9688 157.891 87.9688Z" fill="black"/>
<path d="M41.4062 100.273C40.1172 100.273 39.0625 99.2188 39.0625 97.9297V39.8438C39.0625 34.4922 43.3984 30.1562 48.75 30.1562H150.547C155.898 30.1562 160.234 34.4922 160.234 39.8438V73.0859C160.234 74.375 159.18 75.4297 157.891 75.4297C156.602 75.4297 155.547 74.375 155.547 73.0859V39.8438C155.547 37.0703 153.32 34.8438 150.547 34.8438H48.75C45.9766 34.8438 43.75 37.0703 43.75 39.8438V97.9297C43.75 99.2188 42.6953 100.273 41.4062 100.273Z" fill="black"/>
<path d="M147.031 177.539H52.2266C50.9375 177.539 49.8828 176.484 49.8828 175.195V41.9922C49.8828 40.7031 50.9375 39.6484 52.2266 39.6484H147.031C148.32 39.6484 149.375 40.7031 149.375 41.9922V175.195C149.375 176.484 148.32 177.539 147.031 177.539ZM54.5703 172.852H144.687V44.3359H54.5703V172.852Z" fill="black"/>
<path d="M133.773 73.6875H88.3437C87.0547 73.6875 86 72.6328 86 71.3438C86 70.0547 87.0547 69 88.3437 69H133.773C135.062 69 136.117 70.0547 136.117 71.3438C136.117 72.6328 135.062 73.6875 133.773 73.6875Z" fill="black"/>
<path d="M133.773 92.6875H88.3437C87.0547 92.6875 86 91.6328 86 90.3438C86 89.0547 87.0547 88 88.3437 88H133.773C135.062 88 136.117 89.0547 136.117 90.3438C136.117 91.6328 135.062 92.6875 133.773 92.6875Z" fill="black"/>
<path d="M133.773 111.688H88.3437C87.0547 111.688 86 110.633 86 109.344C86 108.055 87.0547 107 88.3437 107H133.773C135.062 107 136.117 108.055 136.117 109.344C136.117 110.633 135.062 111.688 133.773 111.688Z" fill="black"/>
<path d="M133.773 130.688H88.3437C87.0547 130.688 86 129.633 86 128.344C86 127.055 87.0547 126 88.3437 126H133.773C135.062 126 136.117 127.055 136.117 128.344C136.117 129.633 135.062 130.688 133.773 130.688Z" fill="black"/>
<path d="M133.773 149.688H88.3437C87.0547 149.688 86 148.633 86 147.344C86 146.055 87.0547 145 88.3437 145H133.773C135.062 145 136.117 146.055 136.117 147.344C136.117 148.633 135.062 149.688 133.773 149.688Z" fill="black"/>
<path d="M119.727 24.2578H108.633V20.8203C108.633 15.8594 104.609 11.8359 99.6484 11.8359C94.6875 11.8359 90.6641 15.8594 90.6641 20.8203V24.2578H79.5703C72.5391 24.2578 66.8359 29.9609 66.8359 36.9922V40.1172C66.8359 42.8906 69.0625 45.1172 71.8359 45.1172H127.461C130.234 45.1172 132.461 42.8906 132.461 40.1172V36.9922C132.461 29.9609 126.758 24.2578 119.727 24.2578Z" fill="#4EA33E"/>
<path d="M111.602 24.2578H102.227V20.8203C102.227 15.8594 98.8281 11.8359 94.6094 11.8359C90.3906 11.8359 86.9922 15.8594 86.9922 20.8203V24.2578H77.6172C71.6406 24.2578 66.8359 29.9609 66.8359 36.9922V40.1172C66.8359 42.8906 68.7109 45.1172 71.0547 45.1172H118.164C120.508 45.1172 122.383 42.8906 122.383 40.1172V36.9922C122.383 29.9609 117.539 24.2578 111.602 24.2578Z" fill="white"/>
<path d="M113.672 24.1406H109.375V20.7031C109.375 15.7422 103.398 11.7188 99.6484 11.7188C95.8984 11.7188 90.6641 15.7422 90.6641 20.7031V24.1406H83.3203C78.0078 24.1406 73.6719 29.8438 73.6719 36.875V40C73.6719 42.7734 75.3516 45 77.4609 45H119.492C121.562 45 123.281 42.7734 123.281 40V36.875C123.281 29.8438 118.984 24.1406 113.672 24.1406Z" fill="#7FC344"/>
<path d="M127.461 47.4609H71.8359C67.7734 47.4609 64.4922 44.1797 64.4922 40.1172V36.9922C64.4922 28.6719 71.25 21.9141 79.5703 21.9141H88.3203V20.8203C88.3203 14.5703 93.3984 9.49219 99.6484 9.49219C105.898 9.49219 110.977 14.5703 110.977 20.8203V21.9141H119.727C128.047 21.9141 134.805 28.6719 134.805 36.9922V40.1172C134.805 44.1797 131.523 47.4609 127.461 47.4609ZM79.5703 26.6016C73.8281 26.6016 69.1797 31.25 69.1797 36.9922V40.1172C69.1797 41.6016 70.3516 42.7734 71.8359 42.7734H127.461C128.945 42.7734 130.117 41.6016 130.117 40.1172V36.9922C130.117 31.25 125.469 26.6016 119.727 26.6016H108.633C107.344 26.6016 106.289 25.5469 106.289 24.2578V20.8203C106.289 17.1484 103.32 14.1797 99.6484 14.1797C95.9766 14.1797 93.0078 17.1484 93.0078 20.8203V24.2578C93.0078 25.5469 91.9531 26.6016 90.6641 26.6016H79.5703Z" fill="black"/>
<path d="M75.6641 40.6641C74.9219 40.6641 74.2969 40.0391 74.2969 39.2969C74.2969 33.2422 79.2188 28.3203 85.2734 28.3203C86.0156 28.3203 86.6406 28.9453 86.6406 29.6875C86.6406 30.4297 86.0156 31.0547 85.2734 31.0547C80.7422 31.0547 77.0312 34.7656 77.0312 39.2969C77.0312 40.0391 76.4062 40.6641 75.6641 40.6641Z" fill="white"/>
<path d="M83.2031 13.9453H81.8359V12.5781C81.8359 11.8359 81.2109 11.2109 80.4688 11.2109C79.7266 11.2109 79.1016 11.8359 79.1016 12.5781V13.9453H77.7344C76.9922 13.9453 76.3672 14.5703 76.3672 15.3125C76.3672 16.0547 76.9922 16.6797 77.7344 16.6797H79.1016V18.0469C79.1016 18.7891 79.7266 19.4141 80.4688 19.4141C81.2109 19.4141 81.8359 18.7891 81.8359 18.0469V16.6797H83.2031C83.9453 16.6797 84.5703 16.0547 84.5703 15.3125C84.5703 14.5703 83.9453 13.9453 83.2031 13.9453Z" fill="#FBD20A"/>
<g clip-path="url(#clip0_3773:649)">
<path d="M75 70.5409V71.0009C74.9994 72.0791 74.6503 73.1282 74.0047 73.9918C73.3591 74.8554 72.4516 75.4871 71.4177 75.7929C70.3837 76.0986 69.2786 76.0619 68.2672 75.6882C67.2558 75.3145 66.3923 74.624 65.8055 73.7194C65.2186 72.8149 64.9399 71.7449 65.0108 70.6691C65.0818 69.5932 65.4986 68.5691 66.1991 67.7494C66.8997 66.9298 67.8464 66.3586 68.8981 66.121C69.9498 65.8834 71.0501 65.9921 72.035 66.4309" stroke="#00B934" stroke-width="2" stroke-linecap="round" stroke-linejoin="round"/>
<path d="M75 67L70 72.005L68.5 70.505" stroke="#00B934" stroke-width="2" stroke-linecap="round" stroke-linejoin="round"/>
</g>
<g clip-path="url(#clip1_3773:649)">
<path d="M75 89.5409V90.0009C74.9994 91.0791 74.6503 92.1282 74.0047 92.9918C73.3591 93.8554 72.4516 94.4871 71.4177 94.7929C70.3837 95.0986 69.2786 95.0619 68.2672 94.6882C67.2558 94.3145 66.3923 93.624 65.8055 92.7194C65.2186 91.8149 64.9399 90.7449 65.0108 89.6691C65.0818 88.5932 65.4986 87.5691 66.1991 86.7494C66.8997 85.9298 67.8464 85.3586 68.8981 85.121C69.9498 84.8834 71.0501 84.9921 72.035 85.4309" stroke="#00B934" stroke-width="2" stroke-linecap="round" stroke-linejoin="round"/>
<path d="M75 86L70 91.005L68.5 89.505" stroke="#00B934" stroke-width="2" stroke-linecap="round" stroke-linejoin="round"/>
</g>
<defs>
<clipPath id="clip0_3773:649">
<rect width="12" height="12" fill="white" transform="translate(64 65)"/>
</clipPath>
<clipPath id="clip1_3773:649">
<rect width="12" height="12" fill="white" transform="translate(64 84)"/>
</clipPath>
</defs>
</svg>
