<svg width="248" height="23" viewBox="0 0 248 23" fill="none" xmlns="http://www.w3.org/2000/svg">
<path d="M27.0503 18.36C31.8263 18.36 34.2743 15.192 34.9223 12.576L31.8263 11.64C31.3703 13.224 29.9543 15.12 27.0503 15.12C24.3143 15.12 21.7703 13.128 21.7703 9.504C21.7703 5.64 24.4583 3.816 27.0023 3.816C29.9543 3.816 31.2743 5.616 31.6823 7.248L34.8023 6.264C34.1303 3.504 31.7063 0.623999 27.0023 0.623999C22.4423 0.623999 18.3383 4.08 18.3383 9.504C18.3383 14.928 22.2983 18.36 27.0503 18.36ZM44.0863 14.784C44.0863 16.632 45.6223 18.336 48.1423 18.336C49.8943 18.336 51.0223 17.52 51.6223 16.584C51.6223 17.04 51.6703 17.688 51.7423 18H54.6703C54.5983 17.592 54.5263 16.752 54.5263 16.128V10.32C54.5263 7.944 53.1343 5.832 49.3903 5.832C46.2223 5.832 44.5183 7.872 44.3263 9.72L47.1583 10.32C47.2543 9.288 48.0223 8.4 49.4143 8.4C50.7583 8.4 51.4063 9.096 51.4063 9.936C51.4063 10.344 51.1903 10.68 50.5183 10.776L47.6143 11.208C45.6463 11.496 44.0863 12.672 44.0863 14.784ZM48.8143 15.96C47.7823 15.96 47.2783 15.288 47.2783 14.592C47.2783 13.68 47.9263 13.224 48.7423 13.104L51.4063 12.696V13.224C51.4063 15.312 50.1583 15.96 48.8143 15.96ZM72.6438 6.144C72.4038 6.12 72.1638 6.096 71.8998 6.096C70.8918 6.096 69.2598 6.384 68.5398 7.944V6.192H65.4438V18H68.6358V12.6C68.6358 10.056 70.0518 9.264 71.6838 9.264C71.9718 9.264 72.2838 9.288 72.6438 9.36V6.144ZM86.9939 2.664H84.1139V4.32C84.1139 5.376 83.5379 6.192 82.2899 6.192H81.6899V9.024H83.8259V14.52C83.8259 16.8 85.2659 18.168 87.5699 18.168C88.5059 18.168 89.0819 18 89.3699 17.88V15.24C89.2019 15.288 88.7699 15.336 88.3859 15.336C87.4739 15.336 86.9939 15 86.9939 13.968V9.024H89.3699V6.192H86.9939V2.664ZM124.237 18V14.88H116.893V10.944H123.541V7.992H116.893V4.104H124.237V0.983999H113.581V18H124.237ZM138.061 18V11.088C138.061 9.792 138.877 8.76 140.269 8.76C141.709 8.76 142.357 9.72 142.357 10.992V18H145.525V11.088C145.525 9.816 146.341 8.76 147.709 8.76C149.173 8.76 149.797 9.72 149.797 10.992V18H152.893V10.344C152.893 7.176 150.805 5.856 148.621 5.856C147.061 5.856 145.813 6.384 144.877 7.824C144.277 6.552 142.981 5.856 141.373 5.856C140.077 5.856 138.565 6.48 137.917 7.632V6.192H134.869V18H138.061ZM167.019 22.56V16.848C167.595 17.64 168.795 18.288 170.427 18.288C173.763 18.288 175.995 15.648 175.995 12.072C175.995 8.568 174.003 5.928 170.547 5.928C168.771 5.928 167.451 6.72 166.923 7.632V6.192H163.827V22.56H167.019ZM172.851 12.096C172.851 14.208 171.555 15.432 169.923 15.432C168.291 15.432 166.971 14.184 166.971 12.096C166.971 10.008 168.291 8.784 169.923 8.784C171.555 8.784 172.851 10.008 172.851 12.096ZM190.111 2.664H187.231V4.32C187.231 5.376 186.655 6.192 185.407 6.192H184.807V9.024H186.943V14.52C186.943 16.8 188.383 18.168 190.687 18.168C191.623 18.168 192.199 18 192.487 17.88V15.24C192.319 15.288 191.887 15.336 191.503 15.336C190.591 15.336 190.111 15 190.111 13.968V9.024H192.487V6.192H190.111V2.664ZM207.236 22.656L214.652 6.192H211.244L208.34 13.104L205.196 6.192H201.62L206.636 16.512L203.852 22.656H207.236ZM228.51 0.983999H224.646L225.414 12.816H227.742L228.51 0.983999ZM224.694 16.296C224.694 17.352 225.534 18.192 226.566 18.192C227.622 18.192 228.486 17.352 228.486 16.296C228.486 15.24 227.622 14.376 226.566 14.376C225.534 14.376 224.694 15.24 224.694 16.296Z" fill="#393939"/>
</svg>
