<svg width="20" height="20" viewBox="0 0 20 20" fill="white" xmlns="http://www.w3.org/2000/svg">
    <path fill-rule="evenodd" clip-rule="evenodd"
          d="M6.46654 5.17811C6.46654 4.27232 5.72048 3.53491 4.80187 3.53491C3.88423 3.53491 3.13718 4.27232 3.13718 5.17811C3.13718 6.08391 3.88423 6.82132 4.80187 6.82132C5.72048 6.82132 6.46654 6.08391 6.46654 5.17811ZM7.9371 5.17811C7.9371 6.88422 6.53124 8.27292 4.80187 8.27292C3.07347 8.27292 1.66663 6.88422 1.66663 5.17811C1.66663 3.472 3.07347 2.08331 4.80187 2.08331C6.53124 2.08331 7.9371 3.472 7.9371 5.17811ZM18.3333 5.17831C18.3333 4.77767 18.0039 4.45251 17.598 4.45251H11.5687C11.1628 4.45251 10.8335 4.77767 10.8335 5.17831C10.8335 5.57895 11.1628 5.9041 11.5687 5.9041H17.598C18.0039 5.9041 18.3333 5.57895 18.3333 5.17831ZM13.533 14.8218C13.533 15.7276 14.2791 16.4651 15.1978 16.4651C16.1164 16.4651 16.8625 15.7276 16.8625 14.8218C16.8625 13.9151 16.1164 13.1786 15.1978 13.1786C14.2791 13.1786 13.533 13.9151 13.533 14.8218ZM12.0625 14.8218C12.0625 13.1147 13.4684 11.7271 15.1978 11.7271C16.9271 11.7271 18.333 13.1147 18.333 14.8218C18.333 16.528 16.9271 17.9166 15.1978 17.9166C13.4684 17.9166 12.0625 16.528 12.0625 14.8218ZM2.40259 14.0957H8.43096C8.83679 14.0957 9.16621 14.4209 9.16621 14.8216C9.16621 15.2222 8.83679 15.5473 8.43096 15.5473H2.40259C1.99672 15.5473 1.66731 15.2222 1.66731 14.8216C1.66731 14.4209 1.99672 14.0957 2.40259 14.0957Z"/>
</svg>
