<svg width="24" height="24" viewBox="0 0 24 24" fill="none" xmlns="http://www.w3.org/2000/svg">
<path d="M11.9998 20.3078C13.957 20.3078 15.5436 16.589 15.5436 12.0016C15.5436 7.41415 13.957 3.69531 11.9998 3.69531C10.0426 3.69531 8.45605 7.41415 8.45605 12.0016C8.45605 16.589 10.0426 20.3078 11.9998 20.3078Z" stroke="#00A698" stroke-width="1.5" stroke-miterlimit="10" stroke-linecap="round" stroke-linejoin="round"/>
<path d="M4.25586 9.22656H19.7434" stroke="#00A698" stroke-width="1.5" stroke-miterlimit="10" stroke-linecap="round" stroke-linejoin="round"/>
<path d="M17.3434 14.7773H4.25586" stroke="#00A698" stroke-width="1.5" stroke-miterlimit="10" stroke-linecap="round" stroke-linejoin="round"/>
<path d="M11.9996 20.3078C16.587 20.3078 20.3059 16.589 20.3059 12.0016C20.3059 7.41415 16.587 3.69531 11.9996 3.69531C7.41219 3.69531 3.69336 7.41415 3.69336 12.0016C3.69336 16.589 7.41219 20.3078 11.9996 20.3078Z" stroke="#00A698" stroke-width="1.5" stroke-miterlimit="10" stroke-linecap="round" stroke-linejoin="round"/>
</svg>
