<?xml version="1.0" encoding="utf-8"?>
<!-- Generator: Adobe Illustrator 24.1.0, SVG Export Plug-In . SVG Version: 6.00 Build 0)  -->
<svg version="1.1" id="Layer_1" xmlns="http://www.w3.org/2000/svg" xmlns:xlink="http://www.w3.org/1999/xlink" x="0px" y="0px"
	 viewBox="0 0 24 24" style="enable-background:new 0 0 24 24;" xml:space="preserve">
<style type="text/css">
	.st0{filter:url(#Adobe_OpacityMaskFilter);}
	.st1{fill-rule:evenodd;clip-rule:evenodd;fill:#FFFFFF;}
	.st2{mask:url(#mask-2_1_);fill-rule:evenodd;clip-rule:evenodd;fill:#3E82F1;}
	.st3{filter:url(#Adobe_OpacityMaskFilter_1_);}
	.st4{mask:url(#mask-4_1_);fill-rule:evenodd;clip-rule:evenodd;fill:#32A753;}
	.st5{filter:url(#Adobe_OpacityMaskFilter_2_);}
	.st6{mask:url(#mask-6_1_);fill-rule:evenodd;clip-rule:evenodd;fill:#F9BB00;}
	.st7{filter:url(#Adobe_OpacityMaskFilter_3_);}
	.st8{mask:url(#mask-8_1_);fill-rule:evenodd;clip-rule:evenodd;fill:#E74133;}
</style>
<g id="Google">
	<g id="Group-13" transform="translate(2.000000, 2.000000)">
		<g id="Group-3" transform="translate(9.944134, 8.145978)">
			<g id="Clip-2">
			</g>
			<defs>
				<filter id="Adobe_OpacityMaskFilter" filterUnits="userSpaceOnUse" x="-5.5" y="-5.5" width="20.6" height="20.4">
					<feColorMatrix  type="matrix" values="1 0 0 0 0  0 1 0 0 0  0 0 1 0 0  0 0 0 1 0"/>
				</filter>
			</defs>
			<mask maskUnits="userSpaceOnUse" x="-5.5" y="-5.5" width="20.6" height="20.4" id="mask-2_1_">
				<g class="st0">
					<path id="path-1_1_" class="st1" d="M0.1,0v3.8h5.4c-0.2,1.2-0.9,2.3-2,3l0,0v2.5h3.2c1.9-1.7,3-4.3,3-7.3l0,0
						c0-0.7-0.1-1.4-0.2-2l0,0H0.1z"/>
				</g>
			</mask>
			<polygon id="Fill-1" class="st2" points="-5.5,14.9 15.1,14.9 15.1,-5.5 -5.5,-5.5 			"/>
		</g>
		<g id="Group-6" transform="translate(1.061453, 11.833128)">
			<g id="Clip-5">
			</g>
			<defs>
				<filter id="Adobe_OpacityMaskFilter_1_" filterUnits="userSpaceOnUse" x="-5.5" y="-5.5" width="26.5" height="19.1">
					<feColorMatrix  type="matrix" values="1 0 0 0 0  0 1 0 0 0  0 0 1 0 0  0 0 0 1 0"/>
				</filter>
			</defs>
			<mask maskUnits="userSpaceOnUse" x="-5.5" y="-5.5" width="26.5" height="19.1" id="mask-4_1_">
				<g class="st3">
					<path id="path-3_1_" class="st1" d="M0,0.1v2.6c1.6,3.3,5,5.5,8.9,5.5l0,0c2.7,0,4.9-0.9,6.6-2.4l0,0l-3.2-2.5
						c-0.9,0.6-2,0.9-3.4,0.9l0,0c-2.6,0-4.8-1.7-5.6-4.1l0,0H0z"/>
				</g>
			</mask>
			<polygon id="Fill-4" class="st4" points="-5.5,13.6 21,13.6 21,-5.5 -5.5,-5.5 			"/>
		</g>
		<g id="Group-9" transform="translate(0.000000, 5.520279)">
			<g id="Clip-8">
			</g>
			<defs>
				<filter id="Adobe_OpacityMaskFilter_2_" filterUnits="userSpaceOnUse" x="-5.5" y="-5.5" width="15.4" height="20">
					<feColorMatrix  type="matrix" values="1 0 0 0 0  0 1 0 0 0  0 0 1 0 0  0 0 0 1 0"/>
				</filter>
			</defs>
			<mask maskUnits="userSpaceOnUse" x="-5.5" y="-5.5" width="15.4" height="20" id="mask-6_1_">
				<g class="st5">
					<path id="path-5_1_" class="st1" d="M1.1,0C0.4,1.4,0.1,2.9,0.1,4.5l0,0c0,1.6,0.4,3.1,1.1,4.5l0,0l3.3-2.6
						C4.2,5.8,4.1,5.1,4.1,4.5l0,0c0-0.7,0.1-1.3,0.3-1.9l0,0V0H1.1z"/>
				</g>
			</mask>
			<polygon id="Fill-7" class="st6" points="-5.5,14.5 10,14.5 10,-5.5 -5.5,-5.5 			"/>
		</g>
		<g id="Group-12" transform="translate(1.061453, 0.045419)">
			<g id="Clip-11">
			</g>
			<defs>
				<filter id="Adobe_OpacityMaskFilter_3_" filterUnits="userSpaceOnUse" x="-5.5" y="-5.5" width="26.6" height="19.1">
					<feColorMatrix  type="matrix" values="1 0 0 0 0  0 1 0 0 0  0 0 1 0 0  0 0 0 1 0"/>
				</filter>
			</defs>
			<mask maskUnits="userSpaceOnUse" x="-5.5" y="-5.5" width="26.6" height="19.1" id="mask-8_1_">
				<g class="st7">
					<path id="path-7_1_" class="st1" d="M0,5.5l3.3,2.6C4.2,5.7,6.3,4,8.9,4l0,0c1.5,0,2.8,0.5,3.8,1.5l0,0l2.9-2.9
						C13.9,1,11.6,0,8.9,0l0,0C5,0,1.7,2.2,0,5.5L0,5.5z"/>
				</g>
			</mask>
			<polygon id="Fill-10" class="st8" points="-5.5,13.6 21.1,13.6 21.1,-5.5 -5.5,-5.5 			"/>
		</g>
	</g>
</g>
</svg>
