<svg width="20" height="20" viewBox="0 0 20 20" fill="none" xmlns="http://www.w3.org/2000/svg">
<path d="M15.8333 9.16602H4.16667C3.24619 9.16602 2.5 9.91221 2.5 10.8327V16.666C2.5 17.5865 3.24619 18.3327 4.16667 18.3327H15.8333C16.7538 18.3327 17.5 17.5865 17.5 16.666V10.8327C17.5 9.91221 16.7538 9.16602 15.8333 9.16602Z" stroke="#00A698" stroke-width="2" stroke-linecap="round" stroke-linejoin="round"/>
<path d="M5.8335 9.16601V5.83268C5.8335 4.72761 6.27248 3.66781 7.05388 2.8864C7.83529 2.105 8.89509 1.66602 10.0002 1.66602C11.1052 1.66602 12.165 2.105 12.9464 2.8864C13.7278 3.66781 14.1668 4.72761 14.1668 5.83268V9.16601" stroke="#00A698" stroke-width="2" stroke-linecap="round" stroke-linejoin="round"/>
</svg>
