<svg width="13" height="13" viewBox="0 0 13 13" fill="none" xmlns="http://www.w3.org/2000/svg">
<g opacity="0.3">
<path d="M10.2917 5.95801H2.70833C2.11002 5.95801 1.625 6.44303 1.625 7.04134V10.833C1.625 11.4313 2.11002 11.9163 2.70833 11.9163H10.2917C10.89 11.9163 11.375 11.4313 11.375 10.833V7.04134C11.375 6.44303 10.89 5.95801 10.2917 5.95801Z" fill="#393939" stroke="#393939" stroke-linecap="round" stroke-linejoin="round"/>
<path d="M3.79102 5.95801V3.79134C3.79102 3.07305 4.07636 2.38417 4.58427 1.87626C5.09218 1.36835 5.78105 1.08301 6.49935 1.08301C7.21764 1.08301 7.90652 1.36835 8.41443 1.87626C8.92234 2.38417 9.20768 3.07305 9.20768 3.79134V5.95801" stroke="#393939" stroke-linecap="round" stroke-linejoin="round"/>
</g>
</svg>
