<svg width="80" height="80" viewBox="0 0 80 80" fill="none" xmlns="http://www.w3.org/2000/svg">
<path d="M79.9999 17.7V62.3C79.9999 64.6286 79.5404 66.9343 78.6478 69.085C77.7551 71.2357 76.4469 73.1892 74.798 74.8334C73.1491 76.4777 71.192 77.7804 69.0387 78.667C66.8855 79.5535 64.5785 80.0065 62.2499 79.9999H17.85C13.1136 79.9933 8.57342 78.1071 5.22661 74.7556C1.87981 71.4042 -4.6324e-06 66.8614 0 62.125V17.7C-4.67816e-06 13.01 1.86138 8.51177 5.17536 5.1931C8.48934 1.87443 12.985 0.00669491 17.675 7.06278e-05H62.2499C64.5785 -0.00650736 66.8855 0.446461 69.0387 1.33302C71.192 2.21958 73.1491 3.52231 74.798 5.16656C76.4469 6.81081 77.7551 8.76426 78.6478 10.915C79.5404 13.0657 79.9999 15.3714 79.9999 17.7Z" fill="#00A698"/>
<path d="M56.3753 28.7492C53.3916 25.7637 49.3462 24.0826 45.1253 24.0742H18.9004V55.8992H45.1253C46.7283 55.9021 48.322 55.6575 49.8503 55.1742C48.1692 53.9826 46.6411 52.5888 45.3003 51.0242H23.7754V28.9492H45.1253C47.1381 28.9474 49.1129 29.4966 50.8357 30.5373C52.5585 31.5779 53.9636 33.0703 54.8985 34.8527C55.8335 36.6351 56.2627 38.6394 56.1396 40.6484C56.0166 42.6573 55.3459 44.5943 54.2003 46.2492C55.4137 47.375 56.8544 48.2275 58.4253 48.7492C60.4398 45.6896 61.3361 42.0282 60.9626 38.3841C60.5891 34.7399 58.9687 31.3365 56.3753 28.7492Z" fill="white"/>
<path d="M61.0247 52.025V55.925C58.2095 55.8147 55.457 55.0611 52.9782 53.722C50.4995 52.383 48.3603 50.494 46.7247 48.2C45.6592 46.8853 44.6979 45.4894 43.8497 44.025C42.9526 43.9923 42.0918 43.6625 41.4025 43.0873C40.7132 42.5122 40.2346 41.7243 40.0418 40.8475C39.849 39.9708 39.9529 39.0548 40.3373 38.2435C40.7217 37.4323 41.3648 36.7717 42.1654 36.3657C42.9661 35.9596 43.8789 35.8311 44.7606 36.0003C45.6422 36.1695 46.4426 36.6268 47.0361 37.3004C47.6295 37.974 47.9824 38.8257 48.0391 39.7216C48.0959 40.6175 47.8534 41.5069 47.3497 42.25C49.5497 46.025 54.1497 52.025 61.0247 52.025Z" fill="white"/>
</svg>
