<svg width="20" height="20" viewBox="0 0 20 20" fill="white" xmlns="http://www.w3.org/2000/svg">
<path fill-rule="evenodd" clip-rule="evenodd" d="M3.06494 9.8059C3.06494 6.08324 6.08275 3.06543 9.80541 3.06543C13.5281 3.06543 16.5459 6.08324 16.5459 9.8059C16.5459 13.5286 13.5281 16.5464 9.80541 16.5464C6.08275 16.5464 3.06494 13.5286 3.06494 9.8059ZM9.80541 1.56543C5.25432 1.56543 1.56494 5.25481 1.56494 9.8059C1.56494 14.357 5.25432 18.0464 9.80541 18.0464C11.7117 18.0464 13.4669 17.399 14.863 16.3122L17.4222 18.8647C17.7154 19.1573 18.1903 19.1566 18.4828 18.8634C18.7753 18.5701 18.7747 18.0952 18.4814 17.8027L15.959 15.2868C17.2571 13.8304 18.0459 11.9103 18.0459 9.8059C18.0459 5.25481 14.3565 1.56543 9.80541 1.56543Z" />
</svg>
