<svg width="255" height="23" viewBox="0 0 255 23" fill="none" xmlns="http://www.w3.org/2000/svg">
<path d="M15.464 18V0.983999H12.152V12.24L5.072 0.983999H0.944V18H4.256V5.928L11.984 18H15.464ZM32.0361 15.456C30.4761 15.456 29.0361 14.304 29.0361 12.096C29.0361 9.864 30.4761 8.736 32.0361 8.736C33.5961 8.736 35.0361 9.864 35.0361 12.096C35.0361 14.328 33.5961 15.456 32.0361 15.456ZM32.0361 5.832C28.5081 5.832 25.8441 8.448 25.8441 12.096C25.8441 15.72 28.5081 18.36 32.0361 18.36C35.5641 18.36 38.2281 15.72 38.2281 12.096C38.2281 8.448 35.5641 5.832 32.0361 5.832ZM52.3369 2.664H49.4569V4.32C49.4569 5.376 48.8809 6.192 47.6329 6.192H47.0329V9.024H49.1689V14.52C49.1689 16.8 50.6089 18.168 52.9129 18.168C53.8489 18.168 54.4249 18 54.7129 17.88V15.24C54.5449 15.288 54.1129 15.336 53.7289 15.336C52.8169 15.336 52.3369 15 52.3369 13.968V9.024H54.7129V6.192H52.3369V2.664ZM67.7304 11.064C67.8024 9.768 68.5944 8.76 69.9384 8.76C71.4744 8.76 72.1224 9.792 72.1224 11.112V18H75.3144V10.56C75.3144 7.968 73.9224 5.88 70.9224 5.88C69.7944 5.88 68.4984 6.264 67.7304 7.176V0.623999H64.5384V18H67.7304V11.064ZM89.446 18V6.192H86.254V18H89.446ZM85.87 2.328C85.87 3.384 86.758 4.272 87.838 4.272C88.942 4.272 89.806 3.384 89.806 2.328C89.806 1.224 88.942 0.335999 87.838 0.335999C86.758 0.335999 85.87 1.224 85.87 2.328ZM103.755 11.208C103.755 9.84 104.571 8.76 105.963 8.76C107.499 8.76 108.147 9.792 108.147 11.112V18H111.339V10.56C111.339 7.968 109.995 5.88 107.067 5.88C105.795 5.88 104.379 6.432 103.659 7.656V6.192H100.563V18H103.755V11.208ZM121.439 18.648C121.775 20.904 123.935 22.92 127.175 22.92C131.615 22.92 133.367 19.968 133.367 16.728V6.192H130.295V7.584C129.887 6.792 128.807 5.976 126.935 5.976C123.695 5.976 121.439 8.616 121.439 11.736C121.439 15.048 123.791 17.472 126.935 17.472C128.639 17.472 129.743 16.728 130.223 15.96V16.824C130.223 19.104 129.095 20.112 127.079 20.112C125.567 20.112 124.535 19.176 124.319 17.88L121.439 18.648ZM127.487 14.736C125.831 14.736 124.655 13.584 124.655 11.736C124.655 9.912 125.903 8.76 127.487 8.76C129.023 8.76 130.271 9.912 130.271 11.736C130.271 13.56 129.119 14.736 127.487 14.736ZM161.505 18V11.376H168.105V8.328H161.481V4.128H168.921V0.983999H158.169V18H161.505ZM183.636 15.456C182.076 15.456 180.636 14.304 180.636 12.096C180.636 9.864 182.076 8.736 183.636 8.736C185.196 8.736 186.636 9.864 186.636 12.096C186.636 14.328 185.196 15.456 183.636 15.456ZM183.636 5.832C180.108 5.832 177.444 8.448 177.444 12.096C177.444 15.72 180.108 18.36 183.636 18.36C187.164 18.36 189.828 15.72 189.828 12.096C189.828 8.448 187.164 5.832 183.636 5.832ZM207.729 18H210.777C210.729 17.592 210.657 16.776 210.657 15.864V6.192H207.465V13.056C207.465 14.424 206.649 15.384 205.233 15.384C203.745 15.384 203.073 14.328 203.073 13.008V6.192H199.881V13.656C199.881 16.224 201.513 18.312 204.369 18.312C205.617 18.312 206.985 17.832 207.633 16.728C207.633 17.208 207.681 17.76 207.729 18ZM224.955 11.208C224.955 9.84 225.771 8.76 227.163 8.76C228.699 8.76 229.347 9.792 229.347 11.112V18H232.539V10.56C232.539 7.968 231.195 5.88 228.267 5.88C226.995 5.88 225.579 6.432 224.859 7.656V6.192H221.763V18H224.955V11.208ZM254.735 0.623999H251.591V7.368C251.255 6.744 250.295 5.904 248.255 5.904C244.919 5.904 242.591 8.616 242.591 12.072C242.591 15.648 244.991 18.288 248.351 18.288C249.935 18.288 251.135 17.568 251.663 16.632C251.663 17.184 251.735 17.76 251.783 18H254.831C254.783 17.52 254.735 16.656 254.735 15.864V0.623999ZM245.807 12.072C245.807 9.96 247.103 8.76 248.735 8.76C250.367 8.76 251.639 9.936 251.639 12.048C251.639 14.184 250.367 15.432 248.735 15.432C247.055 15.432 245.807 14.184 245.807 12.072Z" fill="#393939"/>
</svg>
