<svg width="100" height="100" viewBox="0 0 100 100" fill="none" xmlns="http://www.w3.org/2000/svg">
<path d="M64.2159 60.0124L60.0037 64.2246L72.8475 77.0684L77.0597 72.8562L64.2159 60.0124Z" fill="#7180BC"/>
<path d="M76.2698 38.5742C76.2698 17.7557 59.393 0.878906 38.5745 0.878906C17.7559 0.878906 0.87915 17.7557 0.87915 38.5742C0.87915 59.3928 17.7559 76.2695 38.5745 76.2695C59.393 76.2695 76.2698 59.3928 76.2698 38.5742Z" fill="#589FFF"/>
<path d="M65.2344 60.293C50.5078 75.0195 26.6406 75.0195 11.9141 60.293C5.1758 53.5742 1.52346 44.9219 0.957051 36.1133C0.273457 46.5625 3.9258 57.2461 11.9141 65.2344C26.6406 79.9609 50.5078 79.9609 65.2344 65.2344C73.2227 57.2461 76.875 46.5625 76.1914 36.1133C75.625 44.9219 71.9727 53.5742 65.2344 60.293Z" fill="#9BC5FF"/>
<path d="M69.0039 38.5742C69.0039 21.7684 55.3801 8.14454 38.5742 8.14454C21.7684 8.14454 8.14453 21.7684 8.14453 38.5742C8.14453 55.3801 21.7684 69.0039 38.5742 69.0039C55.3801 69.0039 69.0039 55.3801 69.0039 38.5742Z" fill="#DEF6FC"/>
<path d="M60.0974 55.1563C48.2029 67.0508 28.9451 67.0508 17.0505 55.1563C11.738 49.8438 8.78881 43.0469 8.24194 36.0938C7.53881 44.6875 10.488 53.5156 17.0505 60.0781C28.9451 71.9727 48.2029 71.9727 60.0974 60.0781C66.6599 53.5156 69.6091 44.6875 68.906 36.0938C68.3396 43.0469 65.4099 49.8438 60.0974 55.1563Z" fill="white"/>
<path d="M98.1839 94.4531L94.4534 98.1836C93.2229 99.4141 91.2112 99.4141 89.9807 98.1836L70.3323 78.5156C69.1018 77.2852 69.1018 75.2734 70.3323 74.043L74.0627 70.3125C75.2932 69.082 77.3049 69.082 78.5354 70.3125L98.1839 90C99.4143 91.2305 99.4143 93.2227 98.1839 94.4531Z" fill="#00A698"/>
<path d="M95.7424 96.9141L71.6018 72.7734L70.3323 74.043C69.1018 75.2734 69.1018 77.2852 70.3323 78.5156L90.0002 98.1836C91.2307 99.4141 93.2424 99.4141 94.4729 98.1836L95.7424 96.9141Z" fill="#00A698"/>
<path d="M71.9056 80.0909L75.7864 83.9717L83.976 75.782L80.0953 71.9013L71.9056 80.0909Z" fill="#DEF6FC"/>
<path d="M71.8968 80.1007L75.7776 83.9814L79.2855 80.4736L75.4047 76.5928L71.8968 80.1007Z" fill="white"/>
<path d="M15.313 38.574C15.313 40.8592 15.645 43.1248 16.2896 45.2928C16.4263 45.7615 16.9341 46.035 17.4028 45.8787C17.7935 45.7615 18.0278 45.41 18.0278 45.0193C18.0278 44.9412 18.0083 44.8436 17.9888 44.7654C17.3833 42.7537 17.0708 40.6639 17.0708 38.5545C17.0708 38.0662 16.6802 37.656 16.1724 37.656C15.7231 37.6756 15.313 38.0857 15.313 38.574Z" fill="#133260"/>
<path d="M20.0979 52.6953C24.5315 58.4961 31.2698 61.8164 38.5745 61.8164C39.0627 61.8164 39.4729 61.4258 39.4729 60.918C39.4729 60.4102 39.0823 60.0195 38.5745 60.0195C31.8362 60.0195 25.6252 56.9531 21.5237 51.6016C21.2307 51.2109 20.6643 51.1328 20.2737 51.4453C19.8831 51.7578 19.8049 52.3047 20.0979 52.6953Z" fill="#133260"/>
<path d="M11.2893 11.2891C-3.74976 26.3281 -3.74976 50.8203 11.2893 65.8594C25.4104 79.9805 47.8518 80.8594 62.9885 68.457L68.9651 74.4336C68.6721 75 68.5159 75.625 68.5159 76.2891C68.5159 77.3633 68.9456 78.3789 69.7073 79.1602L71.2698 80.7227L75.1565 84.6094L89.3557 98.8086C90.1174 99.5703 91.1331 100 92.2268 100C93.301 100 94.3167 99.5703 95.0979 98.8086L98.8284 95.0781C99.5901 94.3164 100.02 93.3008 100.02 92.207C100.02 91.1133 99.5901 90.1172 98.8284 89.3359L84.6096 75.1172L80.7229 71.2305L79.1604 69.668C78.3987 68.9062 77.3831 68.4766 76.2893 68.4766C75.6252 68.4766 75.0002 68.6328 74.4338 68.9258L68.4573 62.9492C74.2385 55.8789 77.1487 47.207 77.1487 38.5352C77.1487 28.6523 73.3792 18.7695 65.8596 11.25C50.8206 -3.76953 26.3284 -3.76953 11.2893 11.2891ZM97.5588 90.625C98.4377 91.5039 98.4377 92.9492 97.5588 93.8281L93.8284 97.5586C92.9495 98.4375 91.5042 98.4375 90.6252 97.5586L77.0315 83.9844L83.9651 77.0508L97.5588 90.625ZM82.7151 75.7812L75.7815 82.7148L73.1448 80.0781L80.0784 73.1445L82.7151 75.7812ZM77.8909 70.957L78.8284 71.8945L71.8948 78.8281L70.9573 77.8906C70.5276 77.4609 70.2932 76.8945 70.2932 76.2891C70.2932 75.6836 70.5276 75.1172 70.9573 74.6875L74.6877 70.957C74.7463 70.8984 74.8049 70.8398 74.8831 70.7812C75.2932 70.4687 75.7815 70.293 76.2893 70.293C76.8948 70.293 77.4612 70.5273 77.8909 70.957ZM73.0471 70.0781L70.0784 73.0469L64.3362 67.3047C64.844 66.8359 65.3518 66.3672 65.8596 65.8594C66.3674 65.3516 66.8362 64.8633 67.3049 64.3359L73.0471 70.0781ZM64.6096 12.5391C78.9651 26.8945 78.9651 50.2539 64.6096 64.5898C50.2542 78.9453 26.8948 78.9453 12.5588 64.5898C5.39087 57.4219 1.79712 47.9883 1.79712 38.5547C1.79712 29.1211 5.37134 19.7266 12.5393 12.5391C26.8948 -1.81641 50.2542 -1.81641 64.6096 12.5391Z" fill="#133260"/>
<path d="M16.4263 16.4258C4.21924 28.6328 4.21924 48.5156 16.4263 60.7227C28.6333 72.9297 48.5161 72.9297 60.7231 60.7227C66.8364 54.6094 69.8833 46.6016 69.8833 38.5742C69.8833 30.5469 66.8364 22.5391 60.7231 16.4258C48.5161 4.21875 28.6333 4.21875 16.4263 16.4258ZM59.4731 17.6758C70.9966 29.1992 70.9966 47.9297 59.4731 59.4531C47.9497 70.9766 29.2192 70.9766 17.6958 59.4531C11.9341 53.6914 9.06299 46.1328 9.06299 38.5547C9.06299 30.9766 11.9146 23.4375 17.6763 17.6758C29.1997 6.17188 47.9497 6.17188 59.4731 17.6758Z" fill="#133260"/>
</svg>
