<svg width="213" height="148" viewBox="0 0 213 148" fill="none" xmlns="http://www.w3.org/2000/svg">
<g clip-path="url(#clip0)">
<path d="M177.216 108.012L173.004 112.225L185.847 125.068L190.06 120.856L177.216 108.012Z" fill="#7180BC"/>
<path d="M189.27 86.5742C189.27 65.7557 172.393 48.8789 151.574 48.8789C130.756 48.8789 113.879 65.7557 113.879 86.5742C113.879 107.393 130.756 124.27 151.574 124.27C172.393 124.27 189.27 107.393 189.27 86.5742Z" fill="#589FFF"/>
<path d="M178.234 108.293C163.508 123.02 139.641 123.02 124.914 108.293C118.176 101.574 114.523 92.9219 113.957 84.1133C113.273 94.5625 116.926 105.246 124.914 113.234C139.641 127.961 163.508 127.961 178.234 113.234C186.223 105.246 189.875 94.5625 189.191 84.1133C188.625 92.9219 184.973 101.574 178.234 108.293Z" fill="#9BC5FF"/>
<path d="M182.004 86.5742C182.004 69.7684 168.38 56.1445 151.574 56.1445C134.768 56.1445 121.145 69.7684 121.145 86.5742C121.145 103.38 134.768 117.004 151.574 117.004C168.38 117.004 182.004 103.38 182.004 86.5742Z" fill="#DEF6FC"/>
<path d="M173.097 103.156C161.203 115.051 141.945 115.051 130.051 103.156C124.738 97.8438 121.789 91.0469 121.242 84.0938C120.539 92.6875 123.488 101.516 130.051 108.078C141.945 119.973 161.203 119.973 173.097 108.078C179.66 101.516 182.609 92.6875 181.906 84.0938C181.34 91.0469 178.41 97.8438 173.097 103.156Z" fill="white"/>
<path d="M211.184 142.453L207.453 146.184C206.223 147.414 204.211 147.414 202.981 146.184L183.332 126.516C182.102 125.285 182.102 123.273 183.332 122.043L187.063 118.312C188.293 117.082 190.305 117.082 191.535 118.312L211.184 138C212.414 139.23 212.414 141.223 211.184 142.453Z" fill="#00A698"/>
<path d="M208.742 144.914L184.602 120.773L183.332 122.043C182.102 123.273 182.102 125.285 183.332 126.516L203 146.184C204.231 147.414 206.242 147.414 207.473 146.184L208.742 144.914Z" fill="#00A698"/>
<path d="M184.906 128.091L188.786 131.972L196.976 123.782L193.095 119.901L184.906 128.091Z" fill="#DEF6FC"/>
<path d="M184.897 128.101L188.778 131.981L192.285 128.474L188.405 124.593L184.897 128.101Z" fill="white"/>
<path d="M128.313 86.574C128.313 88.8592 128.645 91.1248 129.29 93.2928C129.426 93.7615 129.934 94.035 130.403 93.8787C130.793 93.7615 131.028 93.41 131.028 93.0193C131.028 92.9412 131.008 92.8436 130.989 92.7654C130.383 90.7537 130.071 88.6639 130.071 86.5545C130.071 86.0662 129.68 85.656 129.172 85.656C128.723 85.6756 128.313 86.0857 128.313 86.574Z" fill="#133260"/>
<path d="M133.098 100.695C137.531 106.496 144.27 109.816 151.574 109.816C152.063 109.816 152.473 109.426 152.473 108.918C152.473 108.41 152.082 108.02 151.574 108.02C144.836 108.02 138.625 104.953 134.524 99.6016C134.231 99.2109 133.664 99.1328 133.274 99.4453C132.883 99.7578 132.805 100.305 133.098 100.695Z" fill="#133260"/>
<path d="M124.289 59.2891C109.25 74.3281 109.25 98.8203 124.289 113.859C138.41 127.98 160.852 128.859 175.989 116.457L181.965 122.434C181.672 123 181.516 123.625 181.516 124.289C181.516 125.363 181.946 126.379 182.707 127.16L184.27 128.723L188.156 132.609L202.356 146.809C203.117 147.57 204.133 148 205.227 148C206.301 148 207.317 147.57 208.098 146.809L211.828 143.078C212.59 142.316 213.02 141.301 213.02 140.207C213.02 139.113 212.59 138.117 211.828 137.336L197.61 123.117L193.723 119.23L192.16 117.668C191.399 116.906 190.383 116.477 189.289 116.477C188.625 116.477 188 116.633 187.434 116.926L181.457 110.949C187.239 103.879 190.149 95.207 190.149 86.5352C190.149 76.6523 186.379 66.7695 178.86 59.25C163.821 44.2305 139.328 44.2305 124.289 59.2891ZM210.559 138.625C211.438 139.504 211.438 140.949 210.559 141.828L206.828 145.559C205.949 146.438 204.504 146.438 203.625 145.559L190.031 131.984L196.965 125.051L210.559 138.625ZM195.715 123.781L188.781 130.715L186.145 128.078L193.078 121.145L195.715 123.781ZM190.891 118.957L191.828 119.895L184.895 126.828L183.957 125.891C183.528 125.461 183.293 124.895 183.293 124.289C183.293 123.684 183.528 123.117 183.957 122.687L187.688 118.957C187.746 118.898 187.805 118.84 187.883 118.781C188.293 118.469 188.781 118.293 189.289 118.293C189.895 118.293 190.461 118.527 190.891 118.957ZM186.047 118.078L183.078 121.047L177.336 115.305C177.844 114.836 178.352 114.367 178.86 113.859C179.367 113.352 179.836 112.863 180.305 112.336L186.047 118.078ZM177.61 60.5391C191.965 74.8945 191.965 98.2539 177.61 112.59C163.254 126.945 139.895 126.945 125.559 112.59C118.391 105.422 114.797 95.9883 114.797 86.5547C114.797 77.1211 118.371 67.7266 125.539 60.5391C139.895 46.1836 163.254 46.1836 177.61 60.5391Z" fill="#133260"/>
<path d="M129.426 64.4258C117.219 76.6328 117.219 96.5156 129.426 108.723C141.633 120.93 161.516 120.93 173.723 108.723C179.836 102.609 182.883 94.6016 182.883 86.5742C182.883 78.5469 179.836 70.5391 173.723 64.4258C161.516 52.2188 141.633 52.2188 129.426 64.4258ZM172.473 65.6758C183.997 77.1992 183.997 95.9297 172.473 107.453C160.95 118.977 142.219 118.977 130.696 107.453C124.934 101.691 122.063 94.1328 122.063 86.5547C122.063 78.9766 124.915 71.4375 130.676 65.6758C142.2 54.1719 160.95 54.1719 172.473 65.6758Z" fill="#133260"/>
</g>
<path d="M24.696 29V3.476H19.728V20.36L9.108 3.476H2.916V29H7.884V10.892L19.476 29H24.696ZM45.7042 25.184C43.3642 25.184 41.2042 23.456 41.2042 20.144C41.2042 16.796 43.3642 15.104 45.7042 15.104C48.0442 15.104 50.2042 16.796 50.2042 20.144C50.2042 23.492 48.0442 25.184 45.7042 25.184ZM45.7042 10.748C40.4122 10.748 36.4162 14.672 36.4162 20.144C36.4162 25.58 40.4122 29.54 45.7042 29.54C50.9962 29.54 54.9922 25.58 54.9922 20.144C54.9922 14.672 50.9962 10.748 45.7042 10.748ZM72.3053 5.996H67.9853V8.48C67.9853 10.064 67.1213 11.288 65.2493 11.288H64.3493V15.536H67.5533V23.78C67.5533 27.2 69.7133 29.252 73.1693 29.252C74.5733 29.252 75.4373 29 75.8693 28.82V24.86C75.6173 24.932 74.9693 25.004 74.3933 25.004C73.0253 25.004 72.3053 24.5 72.3053 22.952V15.536H75.8693V11.288H72.3053V5.996ZM91.5456 18.596C91.6536 16.652 92.8416 15.14 94.8576 15.14C97.1616 15.14 98.1336 16.688 98.1336 18.668V29H102.922V17.84C102.922 13.952 100.834 10.82 96.3336 10.82C94.6416 10.82 92.6976 11.396 91.5456 12.764V2.936H86.7576V29H91.5456V18.596ZM120.269 29V11.288H115.481V29H120.269ZM114.905 5.492C114.905 7.076 116.237 8.408 117.857 8.408C119.513 8.408 120.809 7.076 120.809 5.492C120.809 3.836 119.513 2.504 117.857 2.504C116.237 2.504 114.905 3.836 114.905 5.492ZM137.883 18.812C137.883 16.76 139.107 15.14 141.195 15.14C143.499 15.14 144.471 16.688 144.471 18.668V29H149.259V17.84C149.259 13.952 147.243 10.82 142.851 10.82C140.943 10.82 138.819 11.648 137.739 13.484V11.288H133.095V29H137.883V18.812ZM160.558 29.972C161.062 33.356 164.302 36.38 169.162 36.38C175.822 36.38 178.45 31.952 178.45 27.092V11.288H173.842V13.376C173.23 12.188 171.61 10.964 168.802 10.964C163.942 10.964 160.558 14.924 160.558 19.604C160.558 24.572 164.086 28.208 168.802 28.208C171.358 28.208 173.014 27.092 173.734 25.94V27.236C173.734 30.656 172.042 32.168 169.018 32.168C166.75 32.168 165.202 30.764 164.878 28.82L160.558 29.972ZM169.63 24.104C167.146 24.104 165.382 22.376 165.382 19.604C165.382 16.868 167.254 15.14 169.63 15.14C171.934 15.14 173.806 16.868 173.806 19.604C173.806 22.34 172.078 24.104 169.63 24.104ZM14.148 60H18.72C18.648 59.388 18.54 58.164 18.54 56.796V42.288H13.752V52.584C13.752 54.636 12.528 56.076 10.404 56.076C8.172 56.076 7.164 54.492 7.164 52.512V42.288H2.376V53.484C2.376 57.336 4.824 60.468 9.108 60.468C10.98 60.468 13.032 59.748 14.004 58.092C14.004 58.812 14.076 59.64 14.148 60ZM29.8378 55.068C30.0538 57.084 31.8898 60.54 37.2178 60.54C41.8618 60.54 44.0938 57.588 44.0938 54.708C44.0938 52.116 42.3298 49.992 38.8378 49.272L36.3178 48.732C35.3458 48.552 34.6978 48.012 34.6978 47.148C34.6978 46.14 35.7058 45.384 36.9658 45.384C38.9818 45.384 39.7378 46.716 39.8818 47.76L43.8778 46.86C43.6618 44.952 41.9698 41.748 36.9298 41.748C33.1138 41.748 30.3058 44.376 30.3058 47.544C30.3058 50.028 31.8538 52.08 35.2738 52.836L37.6138 53.376C38.9818 53.664 39.5218 54.312 39.5218 55.104C39.5218 56.04 38.7658 56.868 37.1818 56.868C35.0938 56.868 34.0498 55.572 33.9418 54.168L29.8378 55.068ZM59.0652 49.128C59.1732 47.508 60.5412 45.636 63.0252 45.636C65.7612 45.636 66.9132 47.364 66.9852 49.128H59.0652ZM67.4532 53.736C66.8772 55.32 65.6532 56.436 63.4212 56.436C61.0452 56.436 59.0652 54.744 58.9572 52.404H71.6292C71.6292 52.332 71.7012 51.612 71.7012 50.928C71.7012 45.24 68.4252 41.748 62.9532 41.748C58.4172 41.748 54.2412 45.42 54.2412 51.072C54.2412 57.048 58.5252 60.54 63.3852 60.54C67.7412 60.54 70.5492 57.984 71.4492 54.924L67.4532 53.736ZM100.056 33.936H95.3396V44.052C94.8356 43.116 93.3956 41.856 90.3356 41.856C85.3316 41.856 81.8396 45.924 81.8396 51.108C81.8396 56.472 85.4396 60.432 90.4796 60.432C92.8556 60.432 94.6556 59.352 95.4476 57.948C95.4476 58.776 95.5556 59.64 95.6276 60H100.2C100.128 59.28 100.056 57.984 100.056 56.796V33.936ZM86.6636 51.108C86.6636 47.94 88.6076 46.14 91.0556 46.14C93.5036 46.14 95.4116 47.904 95.4116 51.072C95.4116 54.276 93.5036 56.148 91.0556 56.148C88.5356 56.148 86.6636 54.276 86.6636 51.108ZM10.764 69.896C11.556 69.896 12.024 70.004 12.276 70.076V66.044C11.88 65.864 10.908 65.684 9.9 65.684C5.976 65.684 3.456 68.276 3.456 72.272V74.288H0.504V78.392H3.456V92H8.28V78.392H12.276V74.288H8.28V72.344C8.28 70.364 9.684 69.896 10.764 69.896ZM30.6573 88.184C28.3173 88.184 26.1573 86.456 26.1573 83.144C26.1573 79.796 28.3173 78.104 30.6573 78.104C32.9973 78.104 35.1573 79.796 35.1573 83.144C35.1573 86.492 32.9973 88.184 30.6573 88.184ZM30.6573 73.748C25.3653 73.748 21.3693 77.672 21.3693 83.144C21.3693 88.58 25.3653 92.54 30.6573 92.54C35.9493 92.54 39.9453 88.58 39.9453 83.144C39.9453 77.672 35.9493 73.748 30.6573 73.748ZM62.2248 74.216C61.8648 74.18 61.5048 74.144 61.1088 74.144C59.5968 74.144 57.1488 74.576 56.0688 76.916V74.288H51.4248V92H56.2128V83.9C56.2128 80.084 58.3368 78.896 60.7848 78.896C61.2168 78.896 61.6848 78.932 62.2248 79.04V74.216ZM1.044 118.068C1.26 120.084 3.096 123.54 8.424 123.54C13.068 123.54 15.3 120.588 15.3 117.708C15.3 115.116 13.536 112.992 10.044 112.272L7.524 111.732C6.552 111.552 5.904 111.012 5.904 110.148C5.904 109.14 6.912 108.384 8.172 108.384C10.188 108.384 10.944 109.716 11.088 110.76L15.084 109.86C14.868 107.952 13.176 104.748 8.136 104.748C4.32 104.748 1.512 107.376 1.512 110.544C1.512 113.028 3.06 115.08 6.48 115.836L8.82 116.376C10.188 116.664 10.728 117.312 10.728 118.104C10.728 119.04 9.972 119.868 8.388 119.868C6.3 119.868 5.256 118.572 5.148 117.168L1.044 118.068ZM25.6291 118.176C25.6291 120.948 27.9331 123.504 31.7131 123.504C34.3411 123.504 36.0331 122.28 36.9331 120.876C36.9331 121.56 37.0051 122.532 37.1131 123H41.5051C41.3971 122.388 41.2891 121.128 41.2891 120.192V111.48C41.2891 107.916 39.2011 104.748 33.5851 104.748C28.8331 104.748 26.2771 107.808 25.9891 110.58L30.2371 111.48C30.3811 109.932 31.5331 108.6 33.6211 108.6C35.6371 108.6 36.6091 109.644 36.6091 110.904C36.6091 111.516 36.2851 112.02 35.2771 112.164L30.9211 112.812C27.9691 113.244 25.6291 115.008 25.6291 118.176ZM32.7211 119.94C31.1731 119.94 30.4171 118.932 30.4171 117.888C30.4171 116.52 31.3891 115.836 32.6131 115.656L36.6091 115.044V115.836C36.6091 118.968 34.7371 119.94 32.7211 119.94ZM58.6034 123V96.936H53.8154V123H58.6034ZM74.9214 112.128C75.0294 110.508 76.3974 108.636 78.8814 108.636C81.6174 108.636 82.7694 110.364 82.8414 112.128H74.9214ZM83.3094 116.736C82.7334 118.32 81.5094 119.436 79.2774 119.436C76.9014 119.436 74.9214 117.744 74.8134 115.404H87.4854C87.4854 115.332 87.5574 114.612 87.5574 113.928C87.5574 108.24 84.2814 104.748 78.8094 104.748C74.2734 104.748 70.0974 108.42 70.0974 114.072C70.0974 120.048 74.3814 123.54 79.2414 123.54C83.5974 123.54 86.4054 120.984 87.3054 117.924L83.3094 116.736ZM98.354 119.976C98.354 121.776 99.83 123.252 101.63 123.252C103.466 123.252 104.942 121.776 104.942 119.976C104.942 118.176 103.466 116.7 101.63 116.7C99.83 116.7 98.354 118.176 98.354 119.976Z" fill="#393939"/>
<defs>
<clipPath id="clip0">
<rect width="100" height="100" fill="white" transform="translate(113 148) rotate(-90)"/>
</clipPath>
</defs>
</svg>
