<svg width="23" height="23" viewBox="0 0 23 23" fill="none" stroke="#00A698" xmlns="http://www.w3.org/2000/svg">
<path d="M12.3667 21.8354C12.2518 21.8877 12.1274 21.9158 12.0012 21.9179C11.8751 21.9199 11.7498 21.8959 11.6333 21.8473L1.56375 17.6526C1.39678 17.583 1.25415 17.4654 1.15383 17.3149C1.05351 17.1643 0.999985 16.9874 1 16.8065V6.10169C0.999914 5.92326 1.05191 5.74867 1.14961 5.59936C1.24731 5.45004 1.38646 5.33249 1.55 5.26111L11.175 1.07653C11.2907 1.02605 11.4155 1 11.5417 1C11.6679 1 11.7927 1.02605 11.9083 1.07653L21.5333 5.26111C21.6969 5.33249 21.836 5.45004 21.9337 5.59936C22.0314 5.74867 22.0834 5.92326 22.0833 6.10169V16.8267C22.0835 17.0028 22.0329 17.1752 21.9376 17.3233C21.8423 17.4714 21.7065 17.5889 21.5462 17.6618L12.3667 21.8354Z" stroke-width="1.2" stroke-linecap="round" stroke-linejoin="round"/>
<path d="M12 10.083V21.9273" stroke-width="1.2" stroke-linecap="round" stroke-linejoin="round"/>
<path d="M12 10.0834L21.9174 5.57617" stroke-width="1.2" stroke-linecap="round" stroke-linejoin="round"/>
<path d="M16.5586 3.09863L6.5 7.72963V11.0837" stroke-width="1.2" stroke-linecap="round" stroke-linejoin="round"/>
<path d="M15.666 14.667V17.8753" stroke-width="1.2" stroke-linecap="round" stroke-linejoin="round"/>
<path d="M14.291 16.042L15.666 14.667L16.8118 15.8128" stroke-width="1.2" stroke-linecap="round" stroke-linejoin="round"/>
<path d="M19.334 12.833V16.0413" stroke-width="1.2" stroke-linecap="round" stroke-linejoin="round"/>
<path d="M17.959 14.208L19.334 12.833L20.4798 13.9788" stroke-width="1.2" stroke-linecap="round" stroke-linejoin="round"/>
<path d="M12.0003 10.0831L1.16992 5.57031" stroke-width="1.2" stroke-linecap="round" stroke-linejoin="round"/>
</svg>
