<svg width="94" height="168" viewBox="0 0 94 168" fill="none" xmlns="http://www.w3.org/2000/svg">
<path d="M6.88477 38.0368H7.76423V13.9442C7.76423 12.113 8.1249 10.2997 8.82566 8.60797C9.52642 6.91618 10.5535 5.37899 11.8484 4.08416C13.1432 2.78932 14.6804 1.7622 16.3722 1.06144C18.0639 0.360681 19.8772 1.40297e-06 21.7084 0H72.7518C74.583 -3.74114e-06 76.3962 0.36067 78.088 1.06143C79.7798 1.76218 81.317 2.7893 82.6118 4.08413C83.9067 5.37896 84.9338 6.91614 85.6346 8.60792C86.3353 10.2997 86.696 12.1129 86.696 13.9441V146.118C86.696 147.949 86.3353 149.762 85.6346 151.454C84.9338 153.146 83.9067 154.683 82.6119 155.978C81.317 157.273 79.7798 158.3 78.0881 159.001C76.3963 159.702 74.583 160.062 72.7519 160.062H21.7084C18.0102 160.062 14.4635 158.593 11.8484 155.978C9.23338 153.363 7.76425 149.816 7.76424 146.118V55.1863H6.88477V38.0368Z" fill="#3F3D56"/>
<path d="M21.1458 3.62794H27.8086C27.5022 4.37915 27.3853 5.19419 27.468 6.00125C27.5508 6.80831 27.8308 7.58263 28.2834 8.25599C28.7359 8.92936 29.3471 9.4811 30.0631 9.86261C30.7791 10.2441 31.5779 10.4437 32.3892 10.4438H61.6313C62.4426 10.4437 63.2415 10.2441 63.9575 9.86262C64.6735 9.48111 65.2846 8.92936 65.7372 8.256C66.1897 7.58263 66.4697 6.80831 66.5525 6.00125C66.6353 5.19418 66.5183 4.37914 66.2119 3.62793H72.435C75.1968 3.62793 77.8455 4.72504 79.7984 6.67792C81.7512 8.63079 82.8484 11.2795 82.8484 14.0412V146.021C82.8484 147.389 82.579 148.743 82.0557 150.006C81.5324 151.27 80.7654 152.418 79.7984 153.385C78.8314 154.352 77.6834 155.119 76.42 155.642C75.1566 156.165 73.8025 156.435 72.435 156.435H21.1458C19.7783 156.435 18.4242 156.165 17.1608 155.642C15.8973 155.119 14.7494 154.352 13.7824 153.385C12.8155 152.418 12.0484 151.27 11.5251 150.006C11.0018 148.743 10.7324 147.389 10.7324 146.021V14.0413C10.7324 12.6738 11.0018 11.3197 11.5251 10.0563C12.0484 8.79285 12.8155 7.64489 13.7824 6.67793C14.7494 5.71096 15.8973 4.94392 17.1608 4.4206C18.4242 3.89728 19.7783 3.62794 21.1458 3.62794Z" fill="white"/>
<path d="M57.779 40.6021H35.8018V45.9054H57.779V40.6021Z" fill="#FF203B"/>
<path d="M58.8257 63.3901H34.7559V68.6935H58.8257V63.3901Z" fill="#E5E5E5"/>
<path d="M73.6513 74.7822H19.9297V80.0855H73.6513V74.7822Z" fill="#E5E5E5"/>
<path d="M73.6513 86.1743H19.9297V91.4776H73.6513V86.1743Z" fill="#E5E5E5"/>
<rect x="31.5" y="109.5" width="30" height="30" rx="15" fill="#FF203B" stroke="#FF203B"/>
<rect x="45.5879" y="113.255" width="1.82353" height="17.3235" rx="0.911765" fill="white"/>
<circle cx="46.4997" cy="133.922" r="0.911765" fill="white"/>
</svg>
