<svg width="150" height="150" viewBox="0 0 150 150" fill="none" xmlns="http://www.w3.org/2000/svg">
<path d="M139.84 38.8153H119.326C108.712 27.3635 93.5423 20.1934 76.696 20.1934C44.5978 20.1934 18.5774 46.2137 18.5774 78.3116C18.5774 85.1817 19.773 91.7721 21.9615 97.8898H18.423C17.0666 97.8898 15.9565 98.9999 15.9565 100.356C15.9565 101.713 17.0666 102.823 18.423 102.823H23.9883C24.5247 103.975 25.0957 105.106 25.7036 106.215H9.79014C6.82266 106.215 4.39453 108.642 4.39453 111.61C4.39453 114.578 6.82266 117.006 9.79014 117.006H33.3355C43.9787 128.924 59.4595 136.43 76.696 136.43C108.794 136.43 134.814 110.41 134.814 78.3116C134.814 71.1025 133.498 64.202 131.099 57.8319C134.002 57.7572 136.356 55.3643 136.356 52.4434C136.356 49.4759 133.928 47.0478 130.96 47.0478H125.696C124.975 45.9204 124.216 44.8209 123.421 43.7483H139.84C141.196 43.7483 142.306 42.6383 142.306 41.2818C142.307 39.9254 141.197 38.8153 139.84 38.8153Z" fill="#598889"/>
<path d="M139.84 38.8152H106.51C98.2184 32.5463 87.8918 28.8262 76.696 28.8262C49.3655 28.8262 27.2104 50.9816 27.2104 78.3118C27.2104 85.2669 28.6477 91.8851 31.2375 97.89H18.423C17.0666 97.89 15.9565 99.0001 15.9565 100.357C15.9565 101.713 17.0666 102.823 18.423 102.823H33.6993C34.3629 103.984 35.0725 105.115 35.8248 106.215H9.79014C6.82266 106.215 4.39453 108.643 4.39453 111.61C4.39453 114.578 6.82266 117.006 9.79014 117.006H45.8502C54.3097 123.759 65.0303 127.797 76.696 127.797C104.026 127.797 126.181 105.642 126.181 78.3118C126.181 71.0099 124.599 64.0785 121.76 57.8392H130.96C133.928 57.8392 136.356 55.411 136.356 52.4436C136.356 49.4761 133.928 47.0479 130.96 47.0479H115.053C114.12 45.9042 113.135 44.8038 112.105 43.7485H139.84C141.196 43.7485 142.306 42.6385 142.306 41.282C142.307 39.9253 141.197 38.8152 139.84 38.8152Z" fill="#466C6F"/>
<path d="M46.9272 75.5545C63.391 75.5545 76.7376 62.2079 76.7376 45.7441C76.7376 29.2802 63.391 15.9336 46.9272 15.9336C30.4633 15.9336 17.1167 29.2802 17.1167 45.7441C17.1167 62.2079 30.4633 75.5545 46.9272 75.5545Z" fill="#F4F4F4"/>
<path d="M54.6422 74.539C69.9296 70.4427 79.2398 55.179 76.1528 39.877L18.6826 55.276C23.6604 70.0715 39.3554 78.635 54.6422 74.539Z" fill="#E0E0E0"/>
<path d="M40.1597 24.2006C43.0545 24.2006 45.4012 21.8539 45.4012 18.9591C45.4012 17.8728 45.0707 16.8641 44.505 16.0273C42.7463 16.1727 40.9762 16.4759 39.2113 16.949C37.731 17.3457 36.3068 17.8473 34.9445 18.4435C34.9278 18.6134 34.9185 18.7854 34.9185 18.9594C34.9182 21.8539 37.2648 24.2006 40.1597 24.2006Z" fill="#E2D9D9"/>
<path d="M50.1805 23.5846C51.2874 23.5846 52.1847 22.6873 52.1847 21.5804C52.1847 20.4735 51.2874 19.5762 50.1805 19.5762C49.0736 19.5762 48.1763 20.4735 48.1763 21.5804C48.1763 22.6873 49.0736 23.5846 50.1805 23.5846Z" fill="#E2D9D9"/>
<path d="M40.16 65.824C43.3954 65.824 46.0182 63.8915 46.0182 61.5077C46.0182 59.1239 43.3954 57.1914 40.16 57.1914C36.9246 57.1914 34.3018 59.1239 34.3018 61.5077C34.3018 63.8915 36.9246 65.824 40.16 65.824Z" fill="#D3CDCD"/>
<path d="M28.2083 45.958C31.0044 45.2088 32.8236 42.9313 32.2716 40.871C31.7195 38.8107 29.0053 37.7478 26.2093 38.497C23.4132 39.2462 21.594 41.5237 22.146 43.584C22.6981 45.6443 25.4122 46.7072 28.2083 45.958Z" fill="#E2D9D9"/>
<path d="M37.2318 73.9368C37.5225 73.5149 37.6933 73.004 37.6933 72.4529C37.6933 71.0057 36.5199 69.832 35.0724 69.832C33.8352 69.832 32.801 70.6907 32.5259 71.8436C34.0291 72.6732 35.6032 73.3752 37.2318 73.9368Z" fill="#D3CDCD"/>
<path d="M60.6631 63.0498C62.1104 63.0498 63.2837 61.8765 63.2837 60.4292C63.2837 58.9819 62.1104 57.8086 60.6631 57.8086C59.2158 57.8086 58.0425 58.9819 58.0425 60.4292C58.0425 61.8765 59.2158 63.0498 60.6631 63.0498Z" fill="#D3CDCD"/>
<path d="M24.2811 54.7242C25.7285 54.7242 26.902 53.5508 26.902 52.1033C26.902 50.6558 25.7285 49.4824 24.2811 49.4824C22.8336 49.4824 21.6602 50.6558 21.6602 52.1033C21.6602 53.5508 22.8336 54.7242 24.2811 54.7242Z" fill="#E2D9D9"/>
<path d="M67.2588 44.3718C71.2885 43.2921 73.9478 40.1501 73.1987 37.354C72.4495 34.5579 68.5755 33.1665 64.5458 34.2462C60.5162 35.3259 57.8568 38.4679 58.606 41.2639C59.3552 44.06 63.2292 45.4514 67.2588 44.3718Z" fill="#E2D9D9"/>
<path d="M53.2634 53.7984C56.7541 53.7984 59.5839 51.7278 59.5839 49.1736C59.5839 46.6194 56.7541 44.5488 53.2634 44.5488C49.7727 44.5488 46.9429 46.6194 46.9429 49.1736C46.9429 51.7278 49.7727 53.7984 53.2634 53.7984Z" fill="#D3CDCD"/>
<path d="M73.1503 49.1758C70.0853 49.1758 67.6006 51.6604 67.6006 54.7255C67.6006 57.7261 69.9836 60.1642 72.9596 60.2655C74.6831 57.1765 75.8608 53.7812 76.4028 50.2354C75.4882 49.5716 74.3664 49.1758 73.1503 49.1758Z" fill="#D3CDCD"/>
<path d="M57.7345 68.5996C56.202 68.5996 54.9595 69.8421 54.9595 71.3746C54.9595 72.5198 55.6535 73.5024 56.6438 73.9264C57.9158 73.4893 59.1419 72.9739 60.3167 72.3848C60.4395 72.0716 60.5092 71.7314 60.5092 71.3743C60.5092 69.8421 59.2667 68.5996 57.7345 68.5996Z" fill="#D3CDCD"/>
<path d="M24.2505 96.6978C24.2505 95.6158 25.1355 94.7305 26.2175 94.7305H54.2256C55.3075 94.7305 56.1926 95.6155 56.1926 96.6978C56.1926 97.7797 55.3075 98.665 54.2256 98.665H26.2175C25.1355 98.6648 24.2505 97.7797 24.2505 96.6978Z" fill="#5AA096"/>
<path d="M97.3223 63.7644C97.3223 62.1287 98.6605 60.791 100.296 60.791H142.632C144.268 60.791 145.605 62.1287 145.605 63.7644C145.605 65.3997 144.268 66.7377 142.632 66.7377H100.296C98.6608 66.7377 97.3223 65.3994 97.3223 63.7644Z" fill="#5AA096"/>
<path d="M102.027 108.292C110.796 108.292 117.905 101.183 117.905 92.4135C117.905 83.6441 110.796 76.5352 102.027 76.5352C93.2574 76.5352 86.1484 83.6441 86.1484 92.4135C86.1484 101.183 93.2574 108.292 102.027 108.292Z" fill="#B8E3EB"/>
<path d="M117.898 92.7931C117.921 91.8667 117.866 90.9521 117.732 90.0582C117.716 90.0576 117.7 90.0559 117.684 90.0553C107.929 89.7351 98.2626 87.0854 89.6938 82.4141C88.6863 83.6542 87.8587 85.0561 87.2563 86.5865C91.0837 89.0844 96.0586 89.8751 100.707 90.4977C106.352 91.2538 111.997 92.01 117.643 92.7658C117.725 92.777 117.811 92.7857 117.898 92.7931Z" fill="#71B7D3"/>
<path d="M103.348 97.0349C97.6876 95.2513 92.0025 93.1791 86.1484 92.4766C86.1543 94.5335 86.5586 96.5239 87.3021 98.3588C90.6531 97.8212 94.1966 98.2097 97.5338 98.9895C102.303 100.104 106.884 101.96 111.691 102.898C112.341 103.025 113.011 103.128 113.685 103.194C114.428 102.392 115.088 101.509 115.657 100.559C111.532 99.458 107.419 98.3172 103.348 97.0349Z" fill="#71B7D3"/>
<path d="M104.521 76.7323C100.292 76.0597 96.1914 77.1264 92.938 79.3987C95.3383 80.8198 98.2762 81.569 101.042 82.1983C103.606 82.7816 106.17 83.3646 108.734 83.9482C111.187 84.5063 113.665 85.0615 116.171 85.203C113.941 80.8383 109.731 77.5612 104.521 76.7323Z" fill="#71B7D3"/>
<path d="M99.5322 108.094C102.114 108.505 104.65 108.264 106.974 107.5C104.354 107.102 101.743 105.864 99.2929 104.728C96.3477 103.364 92.9501 102.134 89.8687 102.62C92.2414 105.447 95.6006 107.468 99.5322 108.094Z" fill="#71B7D3"/>
<path d="M116.426 99.1034C116.885 98.1123 117.248 97.0617 117.5 95.9602C114.802 96.2982 111.992 95.4838 109.54 94.2832C101.123 90.1632 94.0598 91.7379 86.4889 89.1387C86.435 89.3962 86.3863 89.6558 86.3447 89.918C86.2852 90.293 86.2439 90.6668 86.2114 91.0395C88.7418 91.0386 91.2839 91.6359 93.7639 92.233C101.447 94.0837 109.193 95.9596 116.426 99.1034Z" fill="#71B7D3"/>
<path d="M27.2102 80.6244C28.5724 80.6244 29.6767 79.5201 29.6767 78.1579C29.6767 76.7957 28.5724 75.6914 27.2102 75.6914C25.8479 75.6914 24.7437 76.7957 24.7437 78.1579C24.7437 79.5201 25.8479 80.6244 27.2102 80.6244Z" fill="#66B2B2"/>
<path d="M43.6785 89.8736C46.5733 89.8736 48.92 87.5269 48.92 84.6321C48.92 81.7373 46.5733 79.3906 43.6785 79.3906C40.7837 79.3906 38.437 81.7373 38.437 84.6321C38.437 87.5269 40.7837 89.8736 43.6785 89.8736Z" fill="#66B2B2"/>
<path d="M122.872 28.5904C126.129 28.5904 128.77 25.9499 128.77 22.6927C128.77 19.4354 126.129 16.7949 122.872 16.7949C119.615 16.7949 116.974 19.4354 116.974 22.6927C116.974 25.9499 119.615 28.5904 122.872 28.5904Z" fill="#66B2B2"/>
<path d="M113.626 130.602C116.883 130.602 119.524 127.962 119.524 124.704C119.524 121.447 116.883 118.807 113.626 118.807C110.369 118.807 107.728 121.447 107.728 124.704C107.728 127.962 110.369 130.602 113.626 130.602Z" fill="#66B2B2"/>
<path d="M124.023 78.1582C125.385 78.1582 126.49 77.0538 126.49 75.6914C126.49 74.329 125.385 73.2246 124.023 73.2246C122.661 73.2246 121.556 74.329 121.556 75.6914C121.556 77.0538 122.661 78.1582 124.023 78.1582Z" fill="#66B2B2"/>
<path d="M89.7993 119.473C91.1617 119.473 92.2661 118.368 92.2661 117.006C92.2661 115.643 91.1617 114.539 89.7993 114.539C88.4369 114.539 87.3325 115.643 87.3325 117.006C87.3325 118.368 88.4369 119.473 89.7993 119.473Z" fill="#66B2B2"/>
<path d="M86.1001 23.8926C87.4625 23.8926 88.5669 22.7882 88.5669 21.4258C88.5669 20.0634 87.4625 18.959 86.1001 18.959C84.7377 18.959 83.6333 20.0634 83.6333 21.4258C83.6333 22.7882 84.7377 23.8926 86.1001 23.8926Z" fill="#66B2B2"/>
<path d="M89.7993 72.916C91.1617 72.916 92.2661 71.8116 92.2661 70.4492C92.2661 69.0868 91.1617 67.9824 89.7993 67.9824C88.4369 67.9824 87.3325 69.0868 87.3325 70.4492C87.3325 71.8116 88.4369 72.916 89.7993 72.916Z" fill="#66B2B2"/>
<path d="M81.5477 41.2018L15.0087 59.031C13.5298 59.4274 11.9955 58.5415 11.5994 57.0626L11.5106 56.7315C11.1142 55.2526 12.0002 53.7183 13.4791 53.322L80.0181 35.4931C81.4968 35.0967 83.0313 35.9826 83.4274 37.4615L83.5162 37.7926C83.9126 39.2715 83.0266 40.8057 81.5477 41.2018Z" fill="#52C9D5"/>
<path d="M15.009 59.0317L81.5478 41.2028C82.9921 40.8158 83.8669 39.3442 83.5385 37.8984L11.6328 57.1652C12.0717 58.5817 13.5652 59.4185 15.009 59.0317Z" fill="#49BAC0"/>
<path d="M67.4461 119.78C72.1288 119.78 75.9249 115.984 75.9249 111.301C75.9249 106.618 72.1288 102.822 67.4461 102.822C62.7634 102.822 58.9673 106.618 58.9673 111.301C58.9673 115.984 62.7634 119.78 67.4461 119.78Z" fill="#FF7143"/>
<path d="M64.6498 103.297C64.6132 103.31 64.578 103.325 64.542 103.338L70.1336 119.341C70.1702 119.329 70.2068 119.319 70.2435 119.306C74.6638 117.762 76.9958 112.926 75.4507 108.505C73.9061 104.084 69.0704 101.753 64.6498 103.297Z" fill="#E5603C"/>
<path d="M103.769 13.5703L105.29 16.6526L108.691 17.1469L106.23 19.5463L106.811 22.9342L103.769 21.3346L100.726 22.9342L101.307 19.5463L98.8462 17.1469L102.247 16.6526L103.769 13.5703Z" fill="#FFD326"/>
<path d="M128.671 120.797L130.193 123.879L133.594 124.373L131.133 126.773L131.713 130.16L128.671 128.561L125.629 130.16L126.209 126.773L123.749 124.373L127.15 123.879L128.671 120.797Z" fill="#FFD326"/>
<path d="M140.39 69.8203L141.911 72.9026L145.313 73.3969L142.852 75.7963L143.432 79.1839L140.39 77.5846L137.348 79.1839L137.928 75.7963L135.467 73.3969L138.868 72.9026L140.39 69.8203Z" fill="#FFD326"/>
<path d="M10.3114 85.3477L11.8328 88.4303L15.2342 88.9242L12.7729 91.3236L13.3539 94.7112L10.3114 93.1119L7.26895 94.7112L7.8499 91.3236L5.38867 88.9242L8.79033 88.4303L10.3114 85.3477Z" fill="#FFD326"/>
</svg>
