<svg width="24" height="24" viewBox="0 0 24 24" fill="none" xmlns="http://www.w3.org/2000/svg">
<circle cx="12" cy="12" r="12" fill="#00A698"/>
<path fill-rule="evenodd" clip-rule="evenodd" d="M8.30087 8.25831C7.95834 8.60271 7.95834 9.16111 8.30087 9.50552L10.7598 11.9779L8.2569 14.4945C7.91437 14.8389 7.91437 15.3973 8.2569 15.7417C8.59942 16.0861 9.15477 16.0861 9.4973 15.7417L12.0002 13.2251L14.5029 15.7416C14.8454 16.086 15.4007 16.086 15.7433 15.7416C16.0858 15.3972 16.0858 14.8388 15.7433 14.4944L13.2406 11.9779L15.6993 9.50566C16.0418 9.16125 16.0418 8.60286 15.6993 8.25845C15.3568 7.91404 14.8014 7.91404 14.4589 8.25845L12.0002 10.7307L9.54127 8.25831C9.19874 7.9139 8.64339 7.9139 8.30087 8.25831Z" fill="white"/>
</svg>
