<?xml version="1.0" encoding="UTF-8"?>
<svg fill="none" viewBox="0 0 150 113" xmlns="http://www.w3.org/2000/svg">
<g clip-path="url(#a)">
<path d="m143.52 104.34h-112.9c-1.7173-2e-3 -3.3638-0.685-4.5782-1.899-1.2143-1.214-1.8974-2.8608-1.8993-4.5782v-60.261c0.0019-1.7174 0.685-3.3639 1.8993-4.5782 1.2144-1.2144 2.8609-1.8975 4.5782-1.8994h112.9c1.718 0.0019 3.364 0.685 4.579 1.8994 1.214 1.2143 1.897 2.8608 1.899 4.5782v60.261c-2e-3 1.7174-0.685 3.3642-1.899 4.5782-1.215 1.214-2.861 1.897-4.579 1.899z" fill="#fff"/>
<path d="m143.52 104.34h-112.9c-1.7173-2e-3 -3.3638-0.685-4.5782-1.899-1.2143-1.214-1.8974-2.8608-1.8993-4.5782v-60.261c0.0019-1.7174 0.685-3.3639 1.8993-4.5782 1.2144-1.2144 2.8609-1.8975 4.5782-1.8994h112.9c1.718 0.0019 3.364 0.685 4.579 1.8994 1.214 1.2143 1.897 2.8608 1.899 4.5782v60.261c-2e-3 1.7174-0.685 3.3642-1.899 4.5782-1.215 1.214-2.861 1.897-4.579 1.899zm-112.9-72.823c-1.6132 0.0018-3.1599 0.6435-4.3007 1.7843-1.1408 1.1407-1.7824 2.6874-1.7843 4.3007v60.261c0.0019 1.6133 0.6435 3.1602 1.7843 4.3012 1.1408 1.14 2.6875 1.782 4.3007 1.784h112.9c1.614-2e-3 3.16-0.644 4.301-1.784 1.141-1.141 1.783-2.6879 1.784-4.3012v-60.261c-1e-3 -1.6133-0.643-3.16-1.784-4.3007-1.141-1.1408-2.687-1.7825-4.301-1.7843h-112.9z" fill="#F2F2F2"/>
<path d="m143.52 99.63h-112.9c-0.4684-5e-4 -0.9175-0.1868-1.2486-0.518-0.3312-0.3312-0.5175-0.7802-0.5181-1.2486v-60.261c6e-4 -0.4684 0.1869-0.9174 0.5181-1.2486 0.3311-0.3312 0.7802-0.5175 1.2486-0.5181h112.9c0.469 6e-4 0.918 0.1869 1.249 0.5181s0.518 0.7802 0.518 1.2486v60.261c0 0.4684-0.187 0.9174-0.518 1.2486s-0.78 0.5175-1.249 0.518zm-112.9-63.402c-0.3643 4e-4 -0.7136 0.1453-0.9712 0.4029s-0.4025 0.6069-0.4029 0.9712v60.261c4e-4 0.3643 0.1453 0.7135 0.4029 0.9711s0.6069 0.4025 0.9712 0.4029h112.9c0.365-4e-4 0.714-0.1453 0.972-0.4029 0.257-0.2576 0.402-0.6068 0.402-0.9711v-60.261c0-0.3643-0.145-0.7136-0.402-0.9712-0.258-0.2576-0.607-0.4025-0.972-0.4029h-112.9z" fill="#F2F2F2"/>
<path d="m114.79 99.918-109.13-28.929c-1.6595-0.4419-3.076-1.5241-3.9387-3.0091-0.86266-1.4849-1.1011-3.2515-0.66289-4.912l15.441-58.249c0.442-1.6595 1.5241-3.076 3.0091-3.9387 1.485-0.86266 3.2515-1.1011 4.912-0.66289l109.13 28.929c1.66 0.4419 3.076 1.5241 3.939 3.0091s1.101 3.2515 0.663 4.912l-15.441 58.25c-0.442 1.6595-1.524 3.076-3.009 3.9386-1.485 0.8624-3.252 1.1014-4.912 0.6629z" fill="#F2F2F2"/>
<path d="m114.79 99.918-109.13-28.929c-1.6595-0.4419-3.076-1.5241-3.9387-3.0091-0.86266-1.4849-1.1011-3.2515-0.66289-4.912l15.441-58.249c0.442-1.6595 1.5241-3.076 3.0091-3.9387 1.485-0.86266 3.2515-1.1011 4.912-0.66289l109.13 28.929c1.66 0.4419 3.076 1.5241 3.939 3.0091s1.101 3.2515 0.663 4.912l-15.441 58.25c-0.442 1.6595-1.524 3.076-3.009 3.9386-1.485 0.8624-3.252 1.1014-4.912 0.6629zm-90.472-99.321c-1.5599-0.41161-3.2193-0.18766-4.6143 0.62272-1.395 0.81038-2.4116 2.141-2.8267 3.7l-15.441 58.249c-0.41161 1.5599-0.18766 3.2194 0.62272 4.6143 0.81038 1.395 2.141 2.4116 3.7 2.8267l109.13 28.929c1.56 0.4116 3.22 0.1876 4.615-0.6228 1.395-0.8103 2.411-2.141 2.826-3.6999l15.441-58.25c0.412-1.5599 0.188-3.2193-0.622-4.6143-0.811-1.395-2.141-2.4116-3.7-2.8267l-109.13-28.929z" fill="#E6E6E6"/>
<path d="m116 95.365-109.13-28.929c-0.4526-0.1205-0.83891-0.4156-1.0742-0.8206s-0.30029-0.8868-0.18079-1.3397l15.441-58.249c0.1206-0.4526 0.4157-0.83891 0.8207-1.0742s0.8868-0.30029 1.3396-0.1808l109.13 28.929c0.453 0.1205 0.839 0.4156 1.074 0.8206s0.3 0.8868 0.181 1.3397l-15.441 58.249c-0.12 0.4526-0.416 0.8389-0.82 1.0742-0.405 0.2352-0.887 0.3003-1.34 0.1808zm-92.886-90.214c-0.3522-0.09295-0.7269-0.04238-1.0419 0.14061s-0.5446 0.48346-0.6383 0.83548l-15.441 58.249c-0.09295 0.3523-0.04238 0.727 0.14061 1.042s0.48346 0.5445 0.83548 0.6383l109.13 28.929c0.353 0.093 0.727 0.0424 1.042-0.1406s0.545-0.4835 0.639-0.8355l15.441-58.249c0.092-0.3523 0.042-0.727-0.141-1.042s-0.484-0.5445-0.836-0.6383l-109.13-28.929z" fill="#fff"/>
<path d="m119.38 112.39h-112.9c-1.7174-2e-3 -3.3638-0.685-4.5782-1.899-1.2144-1.214-1.8975-2.861-1.8994-4.578v-60.262c0.0019399-1.7174 0.68502-3.3639 1.8994-4.5782 1.2144-1.2144 2.8608-1.8975 4.5782-1.8994h112.9c1.717 0.0019 3.363 0.685 4.578 1.8994 1.214 1.2143 1.897 2.8608 1.899 4.5782v60.262c-2e-3 1.717-0.685 3.364-1.899 4.578-1.215 1.214-2.861 1.897-4.578 1.899z" fill="#fff"/>
<path d="m88.705 107.29h-72.908c-0.0913 1e-3 -0.1825-2e-3 -0.2724-7e-3l34.482-19.42c0.6566-0.3773 2.1297-0.5101 3.2902-0.2967 0.3182 0.049 0.6264 0.1492 0.9125 0.2967l23.142 13.032 1.1087 0.623 10.245 5.771z" fill="#E6E6E6"/>
<path d="m111.71 107.28h-63.059l12.22-5.771 0.8794-0.415 15.923-7.521c1.0439-0.493 3.5553-0.5236 4.7827-0.093 0.0824 0.0294 0.1588 0.0604 0.2293 0.093l29.025 13.707z" fill="#E6E6E6"/>
<path d="m6.4776 39.566c-1.6133 0.0018-3.16 0.6435-4.3007 1.7843-1.1408 1.1408-1.7824 2.6874-1.7843 4.3007v60.262c0.00183 1.613 0.64352 3.16 1.7843 4.3 1.1408 1.141 2.6874 1.783 4.3007 1.785h112.9c1.613-2e-3 3.16-0.644 4.3-1.785 1.141-1.14 1.783-2.687 1.785-4.3v-60.262c-2e-3 -1.6133-0.644-3.1599-1.785-4.3007-1.14-1.1408-2.687-1.7825-4.3-1.7843h-112.9z" fill="#3F3D56"/>
<path d="m119.38 107.68h-112.9c-0.46837 0-0.91741-0.187-1.2486-0.518-0.33118-0.331-0.51748-0.78-0.51802-1.248v-60.262c5.4e-4 -0.4684 0.18684-0.9174 0.51802-1.2486 0.33119-0.3312 0.78023-0.5175 1.2486-0.518h112.9c0.468 5e-4 0.917 0.1868 1.248 0.518s0.518 0.7802 0.518 1.2486v60.262c0 0.468-0.187 0.917-0.518 1.248s-0.78 0.518-1.248 0.518zm-112.9-63.402c-0.36429 5e-4 -0.71355 0.1454-0.97114 0.4029-0.25759 0.2576-0.40249 0.6069-0.4029 0.9712v60.262c4.1e-4 0.364 0.14531 0.713 0.4029 0.971 0.25759 0.257 0.60685 0.402 0.97114 0.403h112.9c0.364-1e-3 0.713-0.146 0.971-0.403 0.257-0.258 0.402-0.607 0.403-0.971v-60.262c-1e-3 -0.3643-0.146-0.7136-0.403-0.9712-0.258-0.2575-0.607-0.4024-0.971-0.4029h-112.9z" fill="#ccc"/>
<path d="m94.223 54.915c6.7112 0 12.151-5.4402 12.151-12.151s-5.44-12.151-12.151-12.151c-6.7108 0-12.151 5.4402-12.151 12.151s5.4402 12.151 12.151 12.151z" fill="#FF6584"/>
<path d="m99.303 87.003c8.4993 0 15.389-8.6245 15.389-19.263s-6.89-19.263-15.389-19.263c-8.4996 0-15.39 8.6245-15.39 19.263s6.8902 19.263 15.39 19.263z" fill="#F2F2F2"/>
<path d="m99.345 63.865h0.0422l0.7607 43.633h-1.6063l0.8034-43.633z" fill="#ccc"/>
<path d="m101.97 92.752c0.047 0.0893 0.057 0.1936 0.027 0.29s-0.097 0.1769-0.187 0.224l-2.2068 1.162-0.3546-0.6734 2.2074-1.1621c0.089-0.047 0.194-0.0566 0.29-0.0267s0.177 0.0969 0.224 0.1862z" fill="#ccc"/>
<path d="m55.058 87.003c8.4996 0 15.39-8.6245 15.39-19.263s-6.8902-19.263-15.39-19.263-15.39 8.6245-15.39 19.263 6.8902 19.263 15.39 19.263z" fill="#F2F2F2"/>
<path d="m57.725 93.473c-0.0471-0.0893-0.1276-0.1563-0.224-0.1862s-0.2008-0.0203-0.2901 0.0267l-1.5409 0.8113-0.5278-30.259h-0.0423l-0.8032 43.633h1.6066l-0.2184-12.521 1.8806-0.9901c0.0893-0.0471 0.1562-0.1276 0.1861-0.224s0.0203-0.2007-0.0266-0.29z" fill="#ccc"/>
<path d="m77.126 23.346c10.77 0 19.524 20.293 19.524 33.774s-8.7307 24.409-19.501 24.409c-10.77 0-19.5-10.928-19.5-24.409s8.7077-33.774 19.478-33.774z" fill="#6C63FF"/>
<path d="m80.529 89.532c-0.0295-0.056-0.0697-0.1057-0.1184-0.1462-0.0487-0.0404-0.1049-0.0709-0.1654-0.0897-0.0604-0.0187-0.124-0.0254-0.1871-0.0196-0.063 0.0058-0.1243 0.024-0.1803 0.0535l-1.9526 1.0279-0.6687-38.342h-0.0535l-1.0179 55.287h2.0357l-0.2767-15.866 2.3829-1.2545c0.0561-0.0295 0.1057-0.0698 0.1462-0.1185s0.071-0.1049 0.0897-0.1653c0.0188-0.0605 0.0254-0.1241 0.0196-0.1871-0.0058-0.0631-0.024-0.1244-0.0535-0.1804z" fill="#3F3D56"/>
<path d="m119.77 112h-112.9c-1.7174-2e-3 -3.3638-0.685-4.5782-1.9-1.2144-1.214-1.8974-2.861-1.8994-4.578v-60.261c0.00194-1.7174 0.68502-3.3639 1.8994-4.5782 1.2144-1.2144 2.8608-1.8975 4.5782-1.8994h112.9c1.718 0.0019 3.364 0.685 4.578 1.8994 1.215 1.2143 1.898 2.8608 1.9 4.5782v60.261c-2e-3 1.717-0.685 3.364-1.9 4.578-1.214 1.215-2.86 1.898-4.578 1.9z" fill="#fff"/>
<path d="m89.097 106.89h-72.908c-0.0913 0-0.1825-2e-3 -0.2725-7e-3l34.482-19.42c0.6566-0.3773 2.1297-0.5101 3.2902-0.2966 0.3182 0.0489 0.6264 0.1491 0.9125 0.2966l23.142 13.032 1.1086 0.624 10.245 5.771z" fill="#E6E6E6"/>
<path d="m112.1 106.89h-63.06l12.22-5.771 0.8794-0.416 15.923-7.5206c1.0439-0.4929 3.5553-0.5236 4.7827-0.093 0.0824 0.0294 0.1588 0.0604 0.2293 0.093l29.025 13.708z" fill="#E6E6E6"/>
<path d="m119.77 112h-112.9c-1.7174-2e-3 -3.3638-0.685-4.5782-1.9-1.2144-1.214-1.8974-2.861-1.8994-4.578v-60.261c0.00194-1.7174 0.68502-3.3639 1.8994-4.5782 1.2144-1.2144 2.8608-1.8975 4.5782-1.8994h112.9c1.718 0.0019 3.364 0.685 4.578 1.8994 1.215 1.2143 1.898 2.8608 1.9 4.5782v60.261c-2e-3 1.717-0.685 3.364-1.9 4.578-1.214 1.215-2.86 1.898-4.578 1.9zm-112.9-72.824c-1.6133 0.0018-3.16 0.6435-4.3007 1.7843-1.1408 1.1407-1.7824 2.6874-1.7843 4.3007v60.261c0.001829 1.613 0.64352 3.16 1.7843 4.301 1.1408 1.141 2.6874 1.782 4.3007 1.784h112.9c1.614-2e-3 3.16-0.643 4.301-1.784s1.782-2.688 1.784-4.301v-60.261c-2e-3 -1.6133-0.643-3.16-1.784-4.3007-1.141-1.1408-2.687-1.7825-4.301-1.7843h-112.9z" fill="#00A698"/>
<path d="m119.77 107.29h-112.9c-0.46837-1e-3 -0.91741-0.187-1.2486-0.518-0.33119-0.332-0.51748-0.781-0.51802-1.249v-60.261c5.4e-4 -0.4684 0.18683-0.9174 0.51802-1.2486s0.78023-0.5175 1.2486-0.518h112.9c0.469 5e-4 0.918 0.1868 1.249 0.518s0.517 0.7802 0.518 1.2486v60.261c-1e-3 0.468-0.187 0.917-0.518 1.249-0.331 0.331-0.78 0.517-1.249 0.518zm-112.9-63.402c-0.36429 4e-4 -0.71355 0.1453-0.97114 0.4029s-0.40249 0.6068-0.4029 0.9711v60.261c4.1e-4 0.364 0.14531 0.714 0.4029 0.971 0.25759 0.258 0.60685 0.403 0.97114 0.403h112.9c0.365 0 0.714-0.145 0.971-0.403 0.258-0.257 0.403-0.607 0.403-0.971v-60.261c0-0.3643-0.145-0.7135-0.403-0.9711-0.257-0.2576-0.606-0.4025-0.971-0.4029h-112.9z" fill="#ccc"/>
<path d="m94.615 54.523c6.7106 0 12.151-5.4402 12.151-12.151s-5.44-12.151-12.151-12.151c-6.7108 0-12.151 5.4402-12.151 12.151s5.4402 12.151 12.151 12.151z" fill="#FF6584"/>
<path d="m99.695 86.611c8.4997 0 15.39-8.6245 15.39-19.263s-6.89-19.263-15.39-19.263c-8.4996 0-15.39 8.6245-15.39 19.263s6.8902 19.263 15.39 19.263z" fill="#F2F2F2"/>
<path d="m99.738 63.473h0.0422l0.7611 43.632h-1.6068l0.8035-43.632z" fill="#ccc"/>
<path d="m102.36 92.36c0.048 0.0893 0.057 0.1936 0.027 0.29s-0.097 0.177-0.186 0.224l-2.2072 1.1621-0.3546-0.6734 2.2078-1.1621c0.089-0.047 0.193-0.0567 0.29-0.0268 0.096 0.0299 0.176 0.0969 0.223 0.1862z" fill="#ccc"/>
<path d="m55.45 86.611c8.4995 0 15.39-8.6245 15.39-19.263s-6.8903-19.263-15.39-19.263c-8.4996 0-15.39 8.6245-15.39 19.263s6.8902 19.263 15.39 19.263z" fill="#F2F2F2"/>
<path d="m58.117 93.08c-0.047-0.0893-0.1276-0.1563-0.224-0.1862s-0.2007-0.0203-0.29 0.0267l-1.5409 0.8113-0.5278-30.259h-0.0423l-0.8032 43.632h1.6066l-0.2184-12.521 1.8806-0.9901c0.0893-0.047 0.1562-0.1276 0.1861-0.2239 0.0299-0.0964 0.0203-0.2007-0.0267-0.29z" fill="#ccc"/>
<path d="m77.519 22.953c10.77 0 19.524 20.293 19.524 33.774 0 13.481-8.7307 24.409-19.501 24.409-10.77 0-19.5-10.928-19.5-24.409 0-13.481 8.7077-33.774 19.478-33.774z" fill="#00A698"/>
<path d="m80.922 89.139c-0.0294-0.056-0.0697-0.1057-0.1184-0.1462s-0.1048-0.0709-0.1653-0.0897-0.1241-0.0254-0.1871-0.0196-0.1243 0.024-0.1803 0.0535l-1.9526 1.0279-0.6687-38.342h-0.0535l-1.0179 55.287h2.0357l-0.2767-15.865 2.3829-1.2546c0.056-0.0295 0.1057-0.0697 0.1462-0.1184 0.0404-0.0487 0.0709-0.1049 0.0897-0.1654 0.0187-0.0604 0.0254-0.124 0.0196-0.1871-0.0059-0.063-0.024-0.1243-0.0536-0.1803z" fill="#3F3D56"/>
</g>
<defs>
<clipPath id="a">
<rect width="150" height="112.39" fill="#fff"/>
</clipPath>
</defs>
</svg>
