<svg width="24" height="24" viewBox="0 0 24 24" fill="#00A698" xmlns="http://www.w3.org/2000/svg">
<path d="M10.2823 22.2605C9.98962 22.2609 9.7001 22.1997 9.43262 22.0808C9.16513 21.9619 8.92567 21.788 8.72983 21.5705L2.03233 14.1155C1.66413 13.7044 1.47395 13.1641 1.50348 12.613C1.533 12.0618 1.77982 11.5449 2.18983 11.1755L10.6723 3.5555C12.0799 2.3543 13.9011 1.75055 15.7474 1.87298C17.5938 1.99542 19.3193 2.83436 20.556 4.2109C21.7926 5.58744 22.4425 7.39264 22.3671 9.24154C22.2917 11.0904 21.497 12.8367 20.1523 14.108L11.6698 21.7505C11.2848 22.0836 10.7915 22.265 10.2823 22.2605ZM15.4048 3.143C14.0032 3.14094 12.6508 3.65946 11.6098 4.598L3.12733 12.218C3.06026 12.2778 3.00581 12.3504 2.96718 12.4316C2.92854 12.5127 2.90649 12.6007 2.90233 12.6905C2.89635 12.7792 2.90856 12.8682 2.93823 12.9521C2.96789 13.0359 3.01438 13.1128 3.07483 13.178L9.74983 20.633C9.87055 20.7666 10.0392 20.8471 10.219 20.857C10.3988 20.8668 10.5753 20.8052 10.7098 20.6855L19.2148 13.0655C20.0703 12.2951 20.6721 11.2834 20.9408 10.1639C21.2094 9.04438 21.1323 7.86974 20.7196 6.79497C20.3069 5.72021 19.5781 4.79583 18.6292 4.14384C17.6804 3.49185 16.5561 3.14288 15.4048 3.143Z"/>
<path d="M16.2076 10.9493C15.8102 10.9494 15.4173 10.8661 15.0542 10.7045C14.6911 10.543 14.3661 10.307 14.1001 10.0118C13.8497 9.73489 13.6564 9.41127 13.5314 9.0595C13.4064 8.70772 13.352 8.33472 13.3716 7.96189C13.3911 7.58907 13.484 7.22377 13.6451 6.88697C13.8062 6.55017 14.0322 6.24849 14.3101 5.99927C14.6513 5.69408 15.0616 5.4763 15.5055 5.36466C15.9495 5.25302 16.414 5.25085 16.859 5.35834C17.304 5.46583 17.7162 5.67976 18.0603 5.98175C18.4043 6.28374 18.6699 6.66475 18.8342 7.09205C18.9985 7.51935 19.0566 7.98015 19.0035 8.43486C18.9504 8.88956 18.7876 9.32457 18.5293 9.7025C18.2709 10.0804 17.9247 10.39 17.5203 10.6045C17.1159 10.8191 16.6654 10.9322 16.2076 10.9343V10.9493ZM16.2076 6.68927C15.931 6.68841 15.6601 6.76808 15.428 6.91855C15.1959 7.06902 15.0126 7.28379 14.9005 7.53666C14.7884 7.78952 14.7523 8.06955 14.7966 8.34259C14.8409 8.61562 14.9638 8.86985 15.1501 9.07427C15.2743 9.2143 15.4252 9.3282 15.5939 9.40932C15.7625 9.49044 15.9457 9.53717 16.1326 9.54677C16.5126 9.56581 16.8847 9.43369 17.1676 9.17927C17.3762 8.98973 17.5242 8.74288 17.5931 8.46963C17.6621 8.19637 17.6489 7.90885 17.5552 7.64306C17.4615 7.37727 17.2916 7.14501 17.0665 6.97535C16.8415 6.8057 16.5714 6.70618 16.2901 6.68927H16.2076Z" />
<path d="M16.4177 21.2557C16.3252 21.2564 16.2336 21.2382 16.1484 21.2021C16.0633 21.166 15.9864 21.1127 15.9227 21.0457C15.7927 20.9137 15.7197 20.7359 15.7197 20.5507C15.7197 20.3654 15.7927 20.1876 15.9227 20.0557L18.0527 17.9257C18.1846 17.7956 18.3625 17.7227 18.5477 17.7227C18.733 17.7227 18.9108 17.7956 19.0427 17.9257C19.109 17.99 19.1616 18.0669 19.1976 18.1519C19.2335 18.237 19.252 18.3283 19.252 18.4207C19.252 18.513 19.2335 18.6043 19.1976 18.6894C19.1616 18.7744 19.109 18.8513 19.0427 18.9157L16.9127 21.0457C16.849 21.1127 16.7722 21.166 16.687 21.2021C16.6019 21.2382 16.5102 21.2564 16.4177 21.2557Z" />
</svg>
