<svg width="24" height="24" viewBox="0 0 24 24" fill="none" xmlns="http://www.w3.org/2000/svg">
<path fill-rule="evenodd" clip-rule="evenodd" d="M20.8066 7.62385L20.1842 6.54376C19.6576 5.62984 18.4907 5.31456 17.5755 5.83896C17.1399 6.09558 16.6201 6.16839 16.1307 6.04133C15.6413 5.91426 15.2226 5.59776 14.9668 5.16161C14.8023 4.88439 14.7139 4.56863 14.7105 4.24628C14.7254 3.72946 14.5304 3.22864 14.17 2.85791C13.8096 2.48718 13.3145 2.2781 12.7975 2.27832H11.5435C11.037 2.27831 10.5513 2.48015 10.194 2.83918C9.83667 3.19822 9.63716 3.68483 9.63959 4.19136C9.62458 5.23716 8.77246 6.07705 7.72655 6.07694C7.4042 6.07359 7.08844 5.98518 6.81122 5.82065C5.89605 5.29625 4.7291 5.61153 4.20252 6.52546L3.53433 7.62385C3.00839 8.53663 3.31938 9.70285 4.22998 10.2326C4.82189 10.5743 5.18652 11.2059 5.18652 11.8893C5.18652 12.5728 4.82189 13.2043 4.22998 13.5461C3.32054 14.0722 3.00921 15.2356 3.53433 16.1456L4.16591 17.2349C4.41263 17.6801 4.82659 18.0086 5.31618 18.1477C5.80577 18.2869 6.33062 18.2252 6.77461 17.9763C7.21106 17.7216 7.73117 17.6518 8.21932 17.7825C8.70748 17.9131 9.12322 18.2333 9.37415 18.6719C9.53868 18.9492 9.62709 19.2649 9.63044 19.5873C9.63044 20.6438 10.4869 21.5003 11.5435 21.5003H12.7975C13.8505 21.5003 14.7055 20.6494 14.7105 19.5964C14.7081 19.0883 14.9089 18.6003 15.2681 18.241C15.6274 17.8817 16.1155 17.6809 16.6236 17.6834C16.9452 17.692 17.2596 17.78 17.5389 17.9397C18.4517 18.4656 19.6179 18.1546 20.1476 17.244L20.8066 16.1456C21.0617 15.7078 21.1318 15.1863 21.0012 14.6966C20.8706 14.207 20.5502 13.7896 20.111 13.5369C19.6717 13.2842 19.3514 12.8668 19.2208 12.3772C19.0902 11.8876 19.1602 11.3661 19.4153 10.9282C19.5812 10.6386 19.8214 10.3985 20.111 10.2326C21.0161 9.70313 21.3264 8.54373 20.8066 7.63301V7.62385Z" stroke="#393939" stroke-width="1.5" stroke-linecap="round" stroke-linejoin="round"/>
<path d="M12.1751 14.5252C13.631 14.5252 14.8113 13.345 14.8113 11.8891C14.8113 10.4332 13.631 9.25293 12.1751 9.25293C10.7192 9.25293 9.53894 10.4332 9.53894 11.8891C9.53894 13.345 10.7192 14.5252 12.1751 14.5252Z" stroke="#393939" stroke-width="1.5" stroke-linecap="round" stroke-linejoin="round"/>
</svg>
