<svg width="24" height="24" viewBox="0 0 24 24" fill="#00a698" xmlns="http://www.w3.org/2000/svg">
<path d="M18 21.75H6C5.40326 21.75 4.83097 21.5129 4.40901 21.091C3.98705 20.669 3.75 20.0967 3.75 19.5V12C3.75 11.8011 3.82902 11.6103 3.96967 11.4697C4.11032 11.329 4.30109 11.25 4.5 11.25C4.69891 11.25 4.88968 11.329 5.03033 11.4697C5.17098 11.6103 5.25 11.8011 5.25 12V19.5C5.25 19.6989 5.32902 19.8897 5.46967 20.0303C5.61032 20.171 5.80109 20.25 6 20.25H18C18.1989 20.25 18.3897 20.171 18.5303 20.0303C18.671 19.8897 18.75 19.6989 18.75 19.5V12C18.75 11.8011 18.829 11.6103 18.9697 11.4697C19.1103 11.329 19.3011 11.25 19.5 11.25C19.6989 11.25 19.8897 11.329 20.0303 11.4697C20.171 11.6103 20.25 11.8011 20.25 12V19.5C20.25 20.0967 20.0129 20.669 19.591 21.091C19.169 21.5129 18.5967 21.75 18 21.75Z" />
<path d="M11.25 21.75H7.5C7.30109 21.75 7.11032 21.671 6.96967 21.5303C6.82902 21.3897 6.75 21.1989 6.75 21V16.5C6.75 15.9033 6.98705 15.331 7.40901 14.909C7.83097 14.4871 8.40326 14.25 9 14.25H9.75C10.3467 14.25 10.919 14.4871 11.341 14.909C11.7629 15.331 12 15.9033 12 16.5V21C12 21.1989 11.921 21.3897 11.7803 21.5303C11.6397 21.671 11.4489 21.75 11.25 21.75ZM8.25 20.25H10.5V16.5C10.5 16.3011 10.421 16.1103 10.2803 15.9697C10.1397 15.829 9.94891 15.75 9.75 15.75H9C8.80109 15.75 8.61032 15.829 8.46967 15.9697C8.32902 16.1103 8.25 16.3011 8.25 16.5V20.25Z" />
<path d="M18.75 12.75C17.9544 12.75 17.1913 12.4339 16.6287 11.8713C16.0661 11.3087 15.75 10.5456 15.75 9.75C15.75 9.55109 15.829 9.36032 15.9697 9.21967C16.1103 9.07902 16.3011 9 16.5 9C16.6989 9 16.8897 9.07902 17.0303 9.21967C17.171 9.36032 17.25 9.55109 17.25 9.75C17.25 10.1478 17.408 10.5294 17.6893 10.8107C17.9706 11.092 18.3522 11.25 18.75 11.25C19.1478 11.25 19.5294 11.092 19.8107 10.8107C20.092 10.5294 20.25 10.1478 20.25 9.75V9.18L18.285 5.25H5.715L3.75 9.18V9.75C3.75 10.1478 3.90804 10.5294 4.18934 10.8107C4.47064 11.092 4.85218 11.25 5.25 11.25C5.64782 11.25 6.02936 11.092 6.31066 10.8107C6.59196 10.5294 6.75 10.1478 6.75 9.75C6.75 9.55109 6.82902 9.36032 6.96967 9.21967C7.11032 9.07902 7.30109 9 7.5 9C7.69891 9 7.88968 9.07902 8.03033 9.21967C8.17098 9.36032 8.25 9.55109 8.25 9.75C8.25 10.5456 7.93393 11.3087 7.37132 11.8713C6.80871 12.4339 6.04565 12.75 5.25 12.75C4.45435 12.75 3.69129 12.4339 3.12868 11.8713C2.56607 11.3087 2.25 10.5456 2.25 9.75V9C2.2507 8.88259 2.27896 8.76699 2.3325 8.6625L4.5825 4.1625C4.64482 4.03881 4.74018 3.9348 4.858 3.86199C4.97582 3.78918 5.1115 3.75042 5.25 3.75H18.75C18.8885 3.75042 19.0242 3.78918 19.142 3.86199C19.2598 3.9348 19.3552 4.03881 19.4175 4.1625L21.6675 8.6625C21.721 8.76699 21.7493 8.88259 21.75 9V9.75C21.75 10.5456 21.4339 11.3087 20.8713 11.8713C20.3087 12.4339 19.5456 12.75 18.75 12.75Z" />
<path d="M9.75 12.75C8.95435 12.75 8.19129 12.4339 7.62868 11.8713C7.06607 11.3087 6.75 10.5456 6.75 9.75C6.75 9.55109 6.82902 9.36032 6.96967 9.21967C7.11032 9.07902 7.30109 9 7.5 9C7.69891 9 7.88968 9.07902 8.03033 9.21967C8.17098 9.36032 8.25 9.55109 8.25 9.75C8.25 10.1478 8.40804 10.5294 8.68934 10.8107C8.97064 11.092 9.35218 11.25 9.75 11.25C10.1478 11.25 10.5294 11.092 10.8107 10.8107C11.092 10.5294 11.25 10.1478 11.25 9.75C11.25 9.55109 11.329 9.36032 11.4697 9.21967C11.6103 9.07902 11.8011 9 12 9C12.1989 9 12.3897 9.07902 12.5303 9.21967C12.671 9.36032 12.75 9.55109 12.75 9.75C12.75 10.5456 12.4339 11.3087 11.8713 11.8713C11.3087 12.4339 10.5456 12.75 9.75 12.75Z" />
<path d="M14.25 12.75C13.4544 12.75 12.6913 12.4339 12.1287 11.8713C11.5661 11.3087 11.25 10.5456 11.25 9.75C11.25 9.55109 11.329 9.36032 11.4697 9.21967C11.6103 9.07902 11.8011 9 12 9C12.1989 9 12.3897 9.07902 12.5303 9.21967C12.671 9.36032 12.75 9.55109 12.75 9.75C12.75 10.1478 12.908 10.5294 13.1893 10.8107C13.4706 11.092 13.8522 11.25 14.25 11.25C14.6478 11.25 15.0294 11.092 15.3107 10.8107C15.592 10.5294 15.75 10.1478 15.75 9.75C15.75 9.55109 15.829 9.36032 15.9697 9.21967C16.1103 9.07902 16.3011 9 16.5 9C16.6989 9 16.8897 9.07902 17.0303 9.21967C17.171 9.36032 17.25 9.55109 17.25 9.75C17.25 10.5456 16.9339 11.3087 16.3713 11.8713C15.8087 12.4339 15.0456 12.75 14.25 12.75Z" />
<path d="M16.5 16.5H14.25C14.0511 16.5 13.8603 16.421 13.7197 16.2803C13.579 16.1397 13.5 15.9489 13.5 15.75C13.5 15.5511 13.579 15.3603 13.7197 15.2197C13.8603 15.079 14.0511 15 14.25 15H16.5C16.6989 15 16.8897 15.079 17.0303 15.2197C17.171 15.3603 17.25 15.5511 17.25 15.75C17.25 15.9489 17.171 16.1397 17.0303 16.2803C16.8897 16.421 16.6989 16.5 16.5 16.5Z" />
</svg>
