<svg width="225" height="28" viewBox="0 0 225 28" fill="none" xmlns="http://www.w3.org/2000/svg">
<path d="M19.6173 7.56C19.0413 4.68 16.6653 0.935999 10.4733 0.935999C5.6493 0.935999 1.5813 4.392 1.5813 8.928C1.5813 12.78 4.2093 15.408 8.2773 16.236L11.8413 16.956C13.8213 17.352 14.9373 18.504 14.9373 19.98C14.9373 21.78 13.4613 23.112 10.7973 23.112C7.1973 23.112 5.4333 20.844 5.2173 18.324L0.609297 19.548C1.0053 23.184 3.9933 27.54 10.7613 27.54C16.7013 27.54 19.9773 23.58 19.9773 19.656C19.9773 16.056 17.4933 13.032 12.8493 12.132L9.2853 11.448C7.4133 11.088 6.5133 9.972 6.5133 8.568C6.5133 6.876 8.0973 5.328 10.5093 5.328C13.7493 5.328 14.9013 7.524 15.1533 8.928L19.6173 7.56ZM42.5935 6.192V1.476H21.4615V6.192H29.5255V27H34.5295V6.192H42.5935ZM60.7511 27H66.1511L56.4311 1.476H50.6711L40.8791 27H46.1351L48.2591 21.168H58.6271L60.7511 27ZM53.4431 6.984L56.9711 16.632H49.9151L53.4431 6.984ZM72.5688 16.272V27H77.5368V16.272L86.5368 1.476H80.9568L75.2328 11.592L69.5088 1.476H63.6768L72.5688 16.272ZM116.909 6.192V1.476H95.7772V6.192H103.841V27H108.845V6.192H116.909ZM129.752 27.576C135.224 27.576 139.58 24.228 139.58 17.964V1.476H134.612V17.604C134.612 20.952 132.776 22.716 129.752 22.716C126.8 22.716 124.928 20.952 124.928 17.604V1.476H119.96V17.964C119.96 24.228 124.316 27.576 129.752 27.576ZM166.653 27V1.476H161.685V18.36L151.065 1.476H144.873V27H149.841V8.892L161.433 27H166.653ZM188.154 27V22.32H177.138V16.416H187.11V11.988H177.138V6.156H188.154V1.476H172.17V27H188.154ZM197.791 22.392V6.084H201.787C205.963 6.084 209.419 8.712 209.419 14.256C209.419 19.8 205.927 22.392 201.751 22.392H197.791ZM201.931 27C209.203 27 214.567 22.32 214.567 14.256C214.567 6.192 209.239 1.476 201.967 1.476H192.823V27H201.931ZM224.339 1.476H218.543L219.695 19.224H223.187L224.339 1.476ZM218.615 24.444C218.615 26.028 219.875 27.288 221.423 27.288C223.007 27.288 224.303 26.028 224.303 24.444C224.303 22.86 223.007 21.564 221.423 21.564C219.875 21.564 218.615 22.86 218.615 24.444Z" fill="white"/>
</svg>
